# Blender v2.63 (sub 0) OBJ File: 'bras1.blend'
# www.blender.org
mtllib bras1.mtl
o Cube
v -0.626068 4.999997 -4.338760
v -0.626068 -4.999998 -4.338760
v -100.245499 -4.999997 4.376813
v -100.245468 5.000000 4.376812
v 0.245514 4.999995 5.623185
v 0.245457 -5.000000 5.623190
v -99.373947 -4.999996 14.338762
v -99.373932 4.999998 14.338760
vn -0.087156 0.000000 -0.996195
vn 0.087156 0.000000 0.996195
vn 0.996195 -0.000003 -0.087155
vn -0.000000 -1.000000 -0.000000
vn -0.996195 0.000002 0.087154
vn 0.000000 1.000000 0.000000
usemtl Material
s off
f 1//1 2//1 3//1
f 1//1 3//1 4//1
f 5//2 8//2 7//2
f 5//2 7//2 6//2
f 1//3 5//3 6//3
f 1//3 6//3 2//3
f 2//4 6//4 7//4
f 2//4 7//4 3//4
f 3//5 7//5 8//5
f 3//5 8//5 4//5
f 5//6 1//6 4//6
f 5//6 4//6 8//6
