solid CATIA STL
  facet normal  1.000000e+000  0.000000e+000  0.000000e+000
    outer loop
      vertex  4.300000e+002  0.000000e+000  0.000000e+000
      vertex  4.300000e+002  2.000000e+002  0.000000e+000
      vertex  4.300000e+002  1.471331e+002  6.004241e+001
    endloop
  endfacet
  facet normal  1.000000e+000  0.000000e+000  -0.000000e+000
    outer loop
      vertex  4.300000e+002  0.000000e+000  0.000000e+000
      vertex  4.300000e+002  1.471331e+002  6.004241e+001
      vertex  4.300000e+002  1.654278e+002  1.379225e+002
    endloop
  endfacet
  facet normal  1.000000e+000  0.000000e+000  0.000000e+000
    outer loop
      vertex  4.300000e+002  0.000000e+000  0.000000e+000
      vertex  4.300000e+002  1.654278e+002  1.379225e+002
      vertex  4.300000e+002  1.457261e+002  2.154585e+002
    endloop
  endfacet
  facet normal  1.000000e+000  0.000000e+000  0.000000e+000
    outer loop
      vertex  4.300000e+002  0.000000e+000  0.000000e+000
      vertex  4.300000e+002  1.457261e+002  2.154585e+002
      vertex  4.300000e+002  6.647160e+001  2.263544e+002
    endloop
  endfacet
  facet normal  1.000000e+000  0.000000e+000  0.000000e+000
    outer loop
      vertex  4.300000e+002  0.000000e+000  0.000000e+000
      vertex  4.300000e+002  6.647160e+001  2.263544e+002
      vertex  4.300000e+002  3.156082e+001  2.983352e+002
    endloop
  endfacet
  facet normal -1.000000e+000  0.000000e+000  -0.000000e+000
    outer loop
      vertex  0.000000e+000  0.000000e+000  0.000000e+000
      vertex  0.000000e+000  3.156082e+001  2.983352e+002
      vertex  0.000000e+000  6.647160e+001  2.263544e+002
    endloop
  endfacet
  facet normal -1.000000e+000  0.000000e+000  -0.000000e+000
    outer loop
      vertex  0.000000e+000  0.000000e+000  0.000000e+000
      vertex  0.000000e+000  6.647160e+001  2.263544e+002
      vertex  0.000000e+000  1.457261e+002  2.154585e+002
    endloop
  endfacet
  facet normal -1.000000e+000  0.000000e+000  -0.000000e+000
    outer loop
      vertex  0.000000e+000  0.000000e+000  0.000000e+000
      vertex  0.000000e+000  1.457261e+002  2.154585e+002
      vertex  0.000000e+000  1.654278e+002  1.379225e+002
    endloop
  endfacet
  facet normal -1.000000e+000  0.000000e+000  0.000000e+000
    outer loop
      vertex  0.000000e+000  0.000000e+000  0.000000e+000
      vertex  0.000000e+000  1.654278e+002  1.379225e+002
      vertex  0.000000e+000  1.471331e+002  6.004241e+001
    endloop
  endfacet
  facet normal -1.000000e+000  0.000000e+000  -0.000000e+000
    outer loop
      vertex  0.000000e+000  0.000000e+000  0.000000e+000
      vertex  0.000000e+000  1.471331e+002  6.004241e+001
      vertex  0.000000e+000  2.000000e+002  0.000000e+000
    endloop
  endfacet
  facet normal  0.000000e+000 -9.944507e-001  1.052027e-001
    outer loop
      vertex  0.000000e+000  3.156082e+001  2.983352e+002
      vertex  0.000000e+000  0.000000e+000  0.000000e+000
      vertex  4.300000e+002  3.156082e+001  2.983352e+002
    endloop
  endfacet
  facet normal  0.000000e+000 -9.944507e-001  1.052027e-001
    outer loop
      vertex  4.300000e+002  3.156082e+001  2.983352e+002
      vertex  0.000000e+000  0.000000e+000  0.000000e+000
      vertex  4.300000e+002  0.000000e+000  0.000000e+000
    endloop
  endfacet
  facet normal  0.000000e+000  8.997602e-001  4.363847e-001
    outer loop
      vertex  0.000000e+000  6.647160e+001  2.263544e+002
      vertex  0.000000e+000  3.156082e+001  2.983352e+002
      vertex  4.300000e+002  6.647160e+001  2.263544e+002
    endloop
  endfacet
  facet normal  0.000000e+000  8.997602e-001  4.363847e-001
    outer loop
      vertex  4.300000e+002  6.647160e+001  2.263544e+002
      vertex  0.000000e+000  3.156082e+001  2.983352e+002
      vertex  4.300000e+002  3.156082e+001  2.983352e+002
    endloop
  endfacet
  facet normal  0.000000e+000  1.361984e-001  9.906816e-001
    outer loop
      vertex  0.000000e+000  1.457261e+002  2.154585e+002
      vertex  0.000000e+000  6.647160e+001  2.263544e+002
      vertex  4.300000e+002  1.457261e+002  2.154585e+002
    endloop
  endfacet
  facet normal  0.000000e+000  1.361984e-001  9.906816e-001
    outer loop
      vertex  4.300000e+002  1.457261e+002  2.154585e+002
      vertex  0.000000e+000  6.647160e+001  2.263544e+002
      vertex  4.300000e+002  6.647160e+001  2.263544e+002
    endloop
  endfacet
  facet normal  0.000000e+000  9.692010e-001  2.462711e-001
    outer loop
      vertex  0.000000e+000  1.654278e+002  1.379225e+002
      vertex  0.000000e+000  1.457261e+002  2.154585e+002
      vertex  4.300000e+002  1.654278e+002  1.379225e+002
    endloop
  endfacet
  facet normal  0.000000e+000  9.692010e-001  2.462711e-001
    outer loop
      vertex  4.300000e+002  1.654278e+002  1.379225e+002
      vertex  0.000000e+000  1.457261e+002  2.154585e+002
      vertex  4.300000e+002  1.457261e+002  2.154585e+002
    endloop
  endfacet
  facet normal  0.000000e+000  9.735008e-001 -2.286838e-001
    outer loop
      vertex  0.000000e+000  1.471331e+002  6.004241e+001
      vertex  0.000000e+000  1.654278e+002  1.379225e+002
      vertex  4.300000e+002  1.471331e+002  6.004241e+001
    endloop
  endfacet
  facet normal  0.000000e+000  9.735008e-001 -2.286838e-001
    outer loop
      vertex  4.300000e+002  1.471331e+002  6.004241e+001
      vertex  0.000000e+000  1.654278e+002  1.379225e+002
      vertex  4.300000e+002  1.654278e+002  1.379225e+002
    endloop
  endfacet
  facet normal  0.000000e+000  7.505301e-001  6.608362e-001
    outer loop
      vertex  0.000000e+000  2.000000e+002  0.000000e+000
      vertex  0.000000e+000  1.471331e+002  6.004241e+001
      vertex  4.300000e+002  2.000000e+002  0.000000e+000
    endloop
  endfacet
  facet normal  0.000000e+000  7.505301e-001  6.608362e-001
    outer loop
      vertex  4.300000e+002  2.000000e+002  0.000000e+000
      vertex  0.000000e+000  1.471331e+002  6.004241e+001
      vertex  4.300000e+002  1.471331e+002  6.004241e+001
    endloop
  endfacet
  facet normal  0.000000e+000  0.000000e+000 -1.000000e+000
    outer loop
      vertex  0.000000e+000  0.000000e+000  0.000000e+000
      vertex  0.000000e+000  2.000000e+002  0.000000e+000
      vertex  4.300000e+002  0.000000e+000  0.000000e+000
    endloop
  endfacet
  facet normal  0.000000e+000  0.000000e+000 -1.000000e+000
    outer loop
      vertex  4.300000e+002  0.000000e+000  0.000000e+000
      vertex  0.000000e+000  2.000000e+002  0.000000e+000
      vertex  4.300000e+002  2.000000e+002  0.000000e+000
    endloop
  endfacet
endsolid CATIA STL
