solid CATIA STL
  facet normal  8.637741e-001  5.019677e-001  4.384793e-002
    outer loop
      vertex  1.002737e+002  1.540828e+002  2.382382e+002
      vertex  1.293703e+002  1.028141e+002  2.519756e+002
      vertex  7.997260e+001  1.934965e+002  1.869517e+002
    endloop
  endfacet
  facet normal  8.637741e-001  5.019679e-001  4.384829e-002
    outer loop
      vertex  7.997260e+001  1.934965e+002  1.869517e+002
      vertex  1.293703e+002  1.028141e+002  2.519756e+002
      vertex  1.598386e+002  5.459691e+001  2.037584e+002
    endloop
  endfacet
  facet normal  8.637729e-001  5.019687e-001  4.386059e-002
    outer loop
      vertex  7.997260e+001  1.934965e+002  1.869517e+002
      vertex  1.598386e+002  5.459691e+001  2.037584e+002
      vertex  8.000000e+001  1.934730e+002  1.866807e+002
    endloop
  endfacet
  facet normal  8.637742e-001  5.019677e-001  4.384661e-002
    outer loop
      vertex  8.000000e+001  1.934730e+002  1.866807e+002
      vertex  1.598386e+002  5.459691e+001  2.037584e+002
      vertex  1.600000e+002  5.438746e+001  2.029768e+002
    endloop
  endfacet
  facet normal  0.000000e+000 -7.071067e-001  7.071069e-001
    outer loop
      vertex  7.732888e-002  5.459691e+001  2.037584e+002
      vertex  1.598386e+002  5.459691e+001  2.037584e+002
      vertex  7.774358e+001  1.028141e+002  2.519756e+002
    endloop
  endfacet
  facet normal  0.000000e+000 -7.071067e-001  7.071068e-001
    outer loop
      vertex  7.774358e+001  1.028141e+002  2.519756e+002
      vertex  1.598386e+002  5.459691e+001  2.037584e+002
      vertex  1.293703e+002  1.028141e+002  2.519756e+002
    endloop
  endfacet
  facet normal  0.000000e+000 -9.659258e-001  2.588193e-001
    outer loop
      vertex  1.598386e+002  5.459691e+001  2.037584e+002
      vertex  7.732888e-002  5.459691e+001  2.037584e+002
      vertex  1.600000e+002  5.438746e+001  2.029768e+002
    endloop
  endfacet
  facet normal -1.221922e-007 -9.659320e-001  2.587960e-001
    outer loop
      vertex  1.600000e+002  5.438746e+001  2.029768e+002
      vertex  7.732888e-002  5.459691e+001  2.037584e+002
      vertex  0.000000e+000  5.457821e+001  2.036886e+002
    endloop
  endfacet
  facet normal -1.238240e-008 -9.659258e-001  2.588190e-001
    outer loop
      vertex  1.600000e+002  5.438746e+001  2.029768e+002
      vertex  0.000000e+000  5.457821e+001  2.036886e+002
      vertex  1.600000e+002  0.000000e+000  0.000000e+000
    endloop
  endfacet
  facet normal  0.000000e+000 -9.659258e-001  2.588191e-001
    outer loop
      vertex  1.600000e+002  0.000000e+000  0.000000e+000
      vertex  0.000000e+000  5.457821e+001  2.036886e+002
      vertex  0.000000e+000  0.000000e+000  0.000000e+000
    endloop
  endfacet
  facet normal  -0.000000e+000  2.588192e-001  9.659258e-001
    outer loop
      vertex  1.002737e+002  1.540828e+002  2.382382e+002
      vertex  7.774358e+001  1.028141e+002  2.519756e+002
      vertex  1.293703e+002  1.028141e+002  2.519756e+002
    endloop
  endfacet
  facet normal -8.660254e-001  4.829629e-001 -1.294096e-001
    outer loop
      vertex  8.000000e+001  1.434521e+002 -2.842171e-014
      vertex  0.000000e+000  0.000000e+000  0.000000e+000
      vertex  8.000000e+001  1.934730e+002  1.866807e+002
    endloop
  endfacet
  facet normal -8.660254e-001  4.829628e-001 -1.294095e-001
    outer loop
      vertex  8.000000e+001  1.934730e+002  1.866807e+002
      vertex  0.000000e+000  0.000000e+000  0.000000e+000
      vertex  0.000000e+000  5.457821e+001  2.036886e+002
    endloop
  endfacet
  facet normal -8.660264e-001  4.829655e-001 -1.293925e-001
    outer loop
      vertex  8.000000e+001  1.934730e+002  1.866807e+002
      vertex  0.000000e+000  5.457821e+001  2.036886e+002
      vertex  7.997260e+001  1.934965e+002  1.869517e+002
    endloop
  endfacet
  facet normal  8.660254e-001  4.829629e-001 -1.294095e-001
    outer loop
      vertex  1.600000e+002  0.000000e+000  0.000000e+000
      vertex  8.000000e+001  1.434521e+002 -2.842171e-014
      vertex  1.600000e+002  5.438746e+001  2.029768e+002
    endloop
  endfacet
  facet normal  8.660255e-001  4.829629e-001 -1.294096e-001
    outer loop
      vertex  1.600000e+002  5.438746e+001  2.029768e+002
      vertex  8.000000e+001  1.434521e+002 -2.842171e-014
      vertex  8.000000e+001  1.934730e+002  1.866807e+002
    endloop
  endfacet
  facet normal -6.557822e-001  4.505084e-001  6.057985e-001
    outer loop
      vertex  7.774358e+001  1.028141e+002  2.519756e+002
      vertex  1.002737e+002  1.540828e+002  2.382382e+002
      vertex  7.732888e-002  5.459691e+001  2.037584e+002
    endloop
  endfacet
  facet normal -6.557822e-001  4.505083e-001  6.057986e-001
    outer loop
      vertex  7.732888e-002  5.459691e+001  2.037584e+002
      vertex  1.002737e+002  1.540828e+002  2.382382e+002
      vertex  7.997260e+001  1.934965e+002  1.869517e+002
    endloop
  endfacet
  facet normal -6.558141e-001  4.505213e-001  6.057544e-001
    outer loop
      vertex  7.732888e-002  5.459691e+001  2.037584e+002
      vertex  7.997260e+001  1.934965e+002  1.869517e+002
      vertex  0.000000e+000  5.457821e+001  2.036886e+002
    endloop
  endfacet
  facet normal  -0.000000e+000 -1.981269e-016 -1.000000e+000
    outer loop
      vertex  8.000000e+001  1.434521e+002 -2.842171e-014
      vertex  1.600000e+002  0.000000e+000  0.000000e+000
      vertex  0.000000e+000  0.000000e+000  0.000000e+000
    endloop
  endfacet
endsolid CATIA STL
