solid OpenSCAD_Model
  facet normal -0.479423 0 0.877584
    outer loop
      vertex 77.8185 -30 22.0594
      vertex 79.4457 -30 22.9483
      vertex 79.4457 30 22.9483
    endloop
  endfacet
  facet normal -0.479423 0 0.877584
    outer loop
      vertex 77.8185 30 22.0594
      vertex 77.8185 -30 22.0594
      vertex 79.4457 30 22.9483
    endloop
  endfacet
  facet normal 0 1 0
    outer loop
      vertex 60.809 -30 25.6308
      vertex 62.9203 -30 30.4059
      vertex 60.0056 -30 20.4719
    endloop
  endfacet
  facet normal 0 1 0
    outer loop
      vertex 60.0056 -30 20.4719
      vertex 62.9203 -30 30.4059
      vertex 66.1955 -30 34.4719
    endloop
  endfacet
  facet normal 0 1 0
    outer loop
      vertex 60.0056 -30 20.4719
      vertex 66.1955 -30 34.4719
      vertex 70.4115 -30 37.5516
    endloop
  endfacet
  facet normal 0 1 0
    outer loop
      vertex 60.0056 -30 20.4719
      vertex 70.4115 -30 37.5516
      vertex 75.2809 -30 39.4353
    endloop
  endfacet
  facet normal 0 1 0
    outer loop
      vertex 60.0056 -30 20.4719
      vertex 75.2809 -30 39.4353
      vertex 80.4719 -30 39.9944
    endloop
  endfacet
  facet normal 0 1 0
    outer loop
      vertex 60.0056 -30 20.4719
      vertex 80.4719 -30 39.9944
      vertex 85.6308 -30 39.191
    endloop
  endfacet
  facet normal 0 1 0
    outer loop
      vertex 60.0056 -30 20.4719
      vertex 85.6308 -30 39.191
      vertex 90.4059 -30 37.0797
    endloop
  endfacet
  facet normal 0 1 0
    outer loop
      vertex 60.0056 -30 20.4719
      vertex 90.4059 -30 37.0797
      vertex 94.4719 -30 33.8045
    endloop
  endfacet
  facet normal 0 1 0
    outer loop
      vertex 60.0056 -30 20.4719
      vertex 94.4719 -30 33.8045
      vertex 97.5516 -30 29.5885
    endloop
  endfacet
  facet normal 0 1 0
    outer loop
      vertex 79.4457 -30 22.9483
      vertex 97.5516 -30 29.5885
      vertex 99.4353 -30 24.7191
    endloop
  endfacet
  facet normal 0 1 0
    outer loop
      vertex 82.6327 -30 21.4383
      vertex 99.4353 -30 24.7191
      vertex 99.9944 -30 19.5281
    endloop
  endfacet
  facet normal 0 1 0
    outer loop
      vertex 82.1814 -30 17.9406
      vertex 99.9944 -30 19.5281
      vertex 99.191 -30 14.3692
    endloop
  endfacet
  facet normal 0 1 0
    outer loop
      vertex 78.7155 -30 17.2889
      vertex 99.191 -30 14.3692
      vertex 97.0797 -30 9.59408
    endloop
  endfacet
  facet normal 0 1 0
    outer loop
      vertex 60.0056 -30 20.4719
      vertex 97.0797 -30 9.59408
      vertex 93.8045 -30 5.5281
    endloop
  endfacet
  facet normal 0 1 0
    outer loop
      vertex 60.0056 -30 20.4719
      vertex 93.8045 -30 5.5281
      vertex 89.5885 -30 2.44835
    endloop
  endfacet
  facet normal 0 1 0
    outer loop
      vertex 60.0056 -30 20.4719
      vertex 89.5885 -30 2.44835
      vertex 84.7191 -30 0.564718
    endloop
  endfacet
  facet normal 0 1 0
    outer loop
      vertex 60.0056 -30 20.4719
      vertex 84.7191 -30 0.564718
      vertex 79.5281 -30 0.005569
    endloop
  endfacet
  facet normal 0 1 0
    outer loop
      vertex 60.0056 -30 20.4719
      vertex 79.5281 -30 0.005569
      vertex 74.3692 -30 0.809007
    endloop
  endfacet
  facet normal 0 1 0
    outer loop
      vertex 60.0056 -30 20.4719
      vertex 74.3692 -30 0.809007
      vertex 69.5941 -30 2.92028
    endloop
  endfacet
  facet normal 0 1 0
    outer loop
      vertex 60.0056 -30 20.4719
      vertex 69.5941 -30 2.92028
      vertex 65.5281 -30 6.19551
    endloop
  endfacet
  facet normal 0 1 0
    outer loop
      vertex 60.0056 -30 20.4719
      vertex 65.5281 -30 6.19551
      vertex 62.4484 -30 10.4115
    endloop
  endfacet
  facet normal 0 1 0
    outer loop
      vertex 60.0056 -30 20.4719
      vertex 62.4484 -30 10.4115
      vertex 60.5647 -30 15.2809
    endloop
  endfacet
  facet normal 0 1 0
    outer loop
      vertex 79.4457 -30 22.9483
      vertex 99.4353 -30 24.7191
      vertex 81.2845 -30 22.7111
    endloop
  endfacet
  facet normal 0 1 0
    outer loop
      vertex 82.6327 -30 21.4383
      vertex 99.9944 -30 19.5281
      vertex 82.9753 -30 19.6161
    endloop
  endfacet
  facet normal 0 1 0
    outer loop
      vertex 80.5543 -30 17.0517
      vertex 99.191 -30 14.3692
      vertex 78.7155 -30 17.2889
    endloop
  endfacet
  facet normal 0 1 0
    outer loop
      vertex 60.0056 -30 20.4719
      vertex 78.7155 -30 17.2889
      vertex 97.0797 -30 9.59408
    endloop
  endfacet
  facet normal 0 1 0
    outer loop
      vertex 82.1814 -30 17.9406
      vertex 99.191 -30 14.3692
      vertex 80.5543 -30 17.0517
    endloop
  endfacet
  facet normal 0 1 0
    outer loop
      vertex 82.9753 -30 19.6161
      vertex 99.9944 -30 19.5281
      vertex 82.1814 -30 17.9406
    endloop
  endfacet
  facet normal 0 1 0
    outer loop
      vertex 78.7155 -30 17.2889
      vertex 60.0056 -30 20.4719
      vertex 77.3672 -30 18.5617
    endloop
  endfacet
  facet normal 0 1 0
    outer loop
      vertex 81.2845 -30 22.7111
      vertex 99.4353 -30 24.7191
      vertex 82.6327 -30 21.4383
    endloop
  endfacet
  facet normal 0 1 0
    outer loop
      vertex 60.0056 -30 20.4719
      vertex 97.5516 -30 29.5885
      vertex 79.4457 -30 22.9483
    endloop
  endfacet
  facet normal 0 1 0
    outer loop
      vertex 77.8185 -30 22.0594
      vertex 60.0056 -30 20.4719
      vertex 79.4457 -30 22.9483
    endloop
  endfacet
  facet normal 0 1 0
    outer loop
      vertex 60.0056 -30 20.4719
      vertex 77.8185 -30 22.0594
      vertex 77.0247 -30 20.3839
    endloop
  endfacet
  facet normal 0 1 0
    outer loop
      vertex 77.3672 -30 18.5617
      vertex 60.0056 -30 20.4719
      vertex 77.0247 -30 20.3839
    endloop
  endfacet
  facet normal -0.903691 0 0.428184
    outer loop
      vertex 77.8185 -30 22.0594
      vertex 77.8185 30 22.0594
      vertex 77.0247 -30 20.3839
    endloop
  endfacet
  facet normal -0.903691 0 0.428184
    outer loop
      vertex 77.0247 -30 20.3839
      vertex 77.8185 30 22.0594
      vertex 77.0247 30 20.3839
    endloop
  endfacet
  facet normal 0 -1 0
    outer loop
      vertex 60.0056 30 20.4719
      vertex 60.5647 30 15.2809
      vertex 62.4484 30 10.4115
    endloop
  endfacet
  facet normal 0 -1 0
    outer loop
      vertex 69.5941 30 2.92028
      vertex 60.0056 30 20.4719
      vertex 65.5281 30 6.19551
    endloop
  endfacet
  facet normal 0 -1 0
    outer loop
      vertex 65.5281 30 6.19551
      vertex 60.0056 30 20.4719
      vertex 62.4484 30 10.4115
    endloop
  endfacet
  facet normal 0 -1 0
    outer loop
      vertex 74.3692 30 0.809007
      vertex 60.0056 30 20.4719
      vertex 69.5941 30 2.92028
    endloop
  endfacet
  facet normal 0 -1 0
    outer loop
      vertex 79.5281 30 0.005569
      vertex 60.0056 30 20.4719
      vertex 74.3692 30 0.809007
    endloop
  endfacet
  facet normal 0 -1 0
    outer loop
      vertex 84.7191 30 0.564718
      vertex 60.0056 30 20.4719
      vertex 79.5281 30 0.005569
    endloop
  endfacet
  facet normal 0 -1 0
    outer loop
      vertex 89.5885 30 2.44835
      vertex 60.0056 30 20.4719
      vertex 84.7191 30 0.564718
    endloop
  endfacet
  facet normal 0 -1 0
    outer loop
      vertex 93.8045 30 5.5281
      vertex 60.0056 30 20.4719
      vertex 89.5885 30 2.44835
    endloop
  endfacet
  facet normal 0 -1 0
    outer loop
      vertex 97.0797 30 9.59408
      vertex 60.0056 30 20.4719
      vertex 93.8045 30 5.5281
    endloop
  endfacet
  facet normal 0 -1 0
    outer loop
      vertex 78.7155 30 17.2889
      vertex 60.0056 30 20.4719
      vertex 97.0797 30 9.59408
    endloop
  endfacet
  facet normal 0 -1 0
    outer loop
      vertex 79.4457 30 22.9483
      vertex 81.2845 30 22.7111
      vertex 99.4353 30 24.7191
    endloop
  endfacet
  facet normal 0 -1 0
    outer loop
      vertex 94.4719 30 33.8045
      vertex 60.0056 30 20.4719
      vertex 97.5516 30 29.5885
    endloop
  endfacet
  facet normal 0 -1 0
    outer loop
      vertex 90.4059 30 37.0797
      vertex 60.0056 30 20.4719
      vertex 94.4719 30 33.8045
    endloop
  endfacet
  facet normal 0 -1 0
    outer loop
      vertex 85.6308 30 39.191
      vertex 60.0056 30 20.4719
      vertex 90.4059 30 37.0797
    endloop
  endfacet
  facet normal 0 -1 0
    outer loop
      vertex 80.4719 30 39.9944
      vertex 60.0056 30 20.4719
      vertex 85.6308 30 39.191
    endloop
  endfacet
  facet normal 0 -1 0
    outer loop
      vertex 75.2809 30 39.4353
      vertex 60.0056 30 20.4719
      vertex 80.4719 30 39.9944
    endloop
  endfacet
  facet normal 0 -1 0
    outer loop
      vertex 70.4115 30 37.5516
      vertex 60.0056 30 20.4719
      vertex 75.2809 30 39.4353
    endloop
  endfacet
  facet normal 0 -1 0
    outer loop
      vertex 66.1955 30 34.4719
      vertex 60.0056 30 20.4719
      vertex 70.4115 30 37.5516
    endloop
  endfacet
  facet normal 0 -1 0
    outer loop
      vertex 62.9203 30 30.4059
      vertex 60.0056 30 20.4719
      vertex 66.1955 30 34.4719
    endloop
  endfacet
  facet normal 0 -1 0
    outer loop
      vertex 60.809 30 25.6308
      vertex 60.0056 30 20.4719
      vertex 62.9203 30 30.4059
    endloop
  endfacet
  facet normal 0 -1 0
    outer loop
      vertex 82.1814 30 17.9406
      vertex 80.5543 30 17.0517
      vertex 99.191 30 14.3692
    endloop
  endfacet
  facet normal 0 -1 0
    outer loop
      vertex 77.8185 30 22.0594
      vertex 60.0056 30 20.4719
      vertex 77.0247 30 20.3839
    endloop
  endfacet
  facet normal 0 -1 0
    outer loop
      vertex 82.6327 30 21.4383
      vertex 82.9753 30 19.6161
      vertex 99.9944 30 19.5281
    endloop
  endfacet
  facet normal 0 -1 0
    outer loop
      vertex 81.2845 30 22.7111
      vertex 82.6327 30 21.4383
      vertex 99.4353 30 24.7191
    endloop
  endfacet
  facet normal 0 -1 0
    outer loop
      vertex 97.5516 30 29.5885
      vertex 79.4457 30 22.9483
      vertex 99.4353 30 24.7191
    endloop
  endfacet
  facet normal 0 -1 0
    outer loop
      vertex 97.5516 30 29.5885
      vertex 60.0056 30 20.4719
      vertex 79.4457 30 22.9483
    endloop
  endfacet
  facet normal 0 -1 0
    outer loop
      vertex 78.7155 30 17.2889
      vertex 77.3672 30 18.5617
      vertex 60.0056 30 20.4719
    endloop
  endfacet
  facet normal 0 -1 0
    outer loop
      vertex 99.4353 30 24.7191
      vertex 82.6327 30 21.4383
      vertex 99.9944 30 19.5281
    endloop
  endfacet
  facet normal 0 -1 0
    outer loop
      vertex 99.9944 30 19.5281
      vertex 82.9753 30 19.6161
      vertex 99.191 30 14.3692
    endloop
  endfacet
  facet normal 0 -1 0
    outer loop
      vertex 82.9753 30 19.6161
      vertex 82.1814 30 17.9406
      vertex 99.191 30 14.3692
    endloop
  endfacet
  facet normal 0 -1 0
    outer loop
      vertex 99.191 30 14.3692
      vertex 80.5543 30 17.0517
      vertex 97.0797 30 9.59408
    endloop
  endfacet
  facet normal 0 -1 0
    outer loop
      vertex 80.5543 30 17.0517
      vertex 78.7155 30 17.2889
      vertex 97.0797 30 9.59408
    endloop
  endfacet
  facet normal 0 -1 0
    outer loop
      vertex 77.8185 30 22.0594
      vertex 79.4457 30 22.9483
      vertex 60.0056 30 20.4719
    endloop
  endfacet
  facet normal 0 -1 0
    outer loop
      vertex 77.3672 30 18.5617
      vertex 77.0247 30 20.3839
      vertex 60.0056 30 20.4719
    endloop
  endfacet
  facet normal 0.127933 0 0.991783
    outer loop
      vertex 79.4457 -30 22.9483
      vertex 81.2845 -30 22.7111
      vertex 81.2845 30 22.7111
    endloop
  endfacet
  facet normal 0.127933 0 0.991783
    outer loop
      vertex 79.4457 30 22.9483
      vertex 79.4457 -30 22.9483
      vertex 81.2845 30 22.7111
    endloop
  endfacet
  facet normal -0.99425 0 -0.107086
    outer loop
      vertex 60.0056 -30 20.4719
      vertex 60.5647 -30 15.2809
      vertex 60.0056 -50 20.4719
    endloop
  endfacet
  facet normal -0.99425 0 -0.107086
    outer loop
      vertex 60.0056 -50 20.4719
      vertex 60.5647 -30 15.2809
      vertex 60.5647 -50 15.2809
    endloop
  endfacet
  facet normal -0.98809 0 0.153876
    outer loop
      vertex 60.809 -50 25.6308
      vertex 60.809 -30 25.6308
      vertex 60.0056 -50 20.4719
    endloop
  endfacet
  facet normal -0.98809 0 0.153876
    outer loop
      vertex 60.0056 -50 20.4719
      vertex 60.809 -30 25.6308
      vertex 60.0056 -30 20.4719
    endloop
  endfacet
  facet normal -0.932647 0 -0.360789
    outer loop
      vertex 60.5647 -30 15.2809
      vertex 62.4484 -30 10.4115
      vertex 60.5647 -50 15.2809
    endloop
  endfacet
  facet normal -0.932647 0 -0.360789
    outer loop
      vertex 60.5647 -50 15.2809
      vertex 62.4484 -30 10.4115
      vertex 62.4484 -50 10.4115
    endloop
  endfacet
  facet normal -0.807502 0 -0.589865
    outer loop
      vertex 62.4484 -30 10.4115
      vertex 65.5281 -30 6.19551
      vertex 62.4484 -50 10.4115
    endloop
  endfacet
  facet normal -0.807502 0 -0.589865
    outer loop
      vertex 62.4484 -50 10.4115
      vertex 65.5281 -30 6.19551
      vertex 65.5281 -50 6.19551
    endloop
  endfacet
  facet normal -0.627311 0 -0.778769
    outer loop
      vertex 65.5281 -30 6.19551
      vertex 69.5941 -30 2.92028
      vertex 65.5281 -50 6.19551
    endloop
  endfacet
  facet normal -0.627311 0 -0.778769
    outer loop
      vertex 65.5281 -50 6.19551
      vertex 69.5941 -30 2.92028
      vertex 69.5941 -50 2.92028
    endloop
  endfacet
  facet normal -0.404379 0 -0.914592
    outer loop
      vertex 69.5941 -30 2.92028
      vertex 74.3692 -30 0.809007
      vertex 69.5941 -50 2.92028
    endloop
  endfacet
  facet normal -0.404379 0 -0.914592
    outer loop
      vertex 69.5941 -50 2.92028
      vertex 74.3692 -30 0.809007
      vertex 74.3692 -50 0.809007
    endloop
  endfacet
  facet normal -0.153884 0 -0.988089
    outer loop
      vertex 74.3692 -30 0.809007
      vertex 79.5281 -30 0.005569
      vertex 74.3692 -50 0.809007
    endloop
  endfacet
  facet normal -0.153884 0 -0.988089
    outer loop
      vertex 74.3692 -50 0.809007
      vertex 79.5281 -30 0.005569
      vertex 79.5281 -50 0.005569
    endloop
  endfacet
  facet normal 0.107095 0 -0.994249
    outer loop
      vertex 79.5281 -30 0.005569
      vertex 84.7191 -30 0.564718
      vertex 79.5281 -50 0.005569
    endloop
  endfacet
  facet normal 0.107095 0 -0.994249
    outer loop
      vertex 79.5281 -50 0.005569
      vertex 84.7191 -30 0.564718
      vertex 84.7191 -50 0.564718
    endloop
  endfacet
  facet normal 0.360777 0 -0.932652
    outer loop
      vertex 84.7191 -30 0.564718
      vertex 89.5885 -30 2.44835
      vertex 84.7191 -50 0.564718
    endloop
  endfacet
  facet normal 0.360777 0 -0.932652
    outer loop
      vertex 84.7191 -50 0.564718
      vertex 89.5885 -30 2.44835
      vertex 89.5885 -50 2.44835
    endloop
  endfacet
  facet normal 0.589871 0 -0.807497
    outer loop
      vertex 89.5885 -30 2.44835
      vertex 93.8045 -30 5.5281
      vertex 89.5885 -50 2.44835
    endloop
  endfacet
  facet normal 0.589871 0 -0.807497
    outer loop
      vertex 89.5885 -50 2.44835
      vertex 93.8045 -30 5.5281
      vertex 93.8045 -50 5.5281
    endloop
  endfacet
  facet normal 0.77877 0 -0.627309
    outer loop
      vertex 93.8045 -50 5.5281
      vertex 93.8045 -30 5.5281
      vertex 97.0797 -30 9.59408
    endloop
  endfacet
  facet normal 0.77877 0 -0.627309
    outer loop
      vertex 97.0797 -50 9.59408
      vertex 93.8045 -50 5.5281
      vertex 97.0797 -30 9.59408
    endloop
  endfacet
  facet normal 0.91459 0 -0.404382
    outer loop
      vertex 97.0797 -50 9.59408
      vertex 97.0797 -30 9.59408
      vertex 99.191 -30 14.3692
    endloop
  endfacet
  facet normal 0.91459 0 -0.404382
    outer loop
      vertex 99.191 -50 14.3692
      vertex 97.0797 -50 9.59408
      vertex 99.191 -30 14.3692
    endloop
  endfacet
  facet normal 0.98809 0 -0.153876
    outer loop
      vertex 99.191 -50 14.3692
      vertex 99.191 -30 14.3692
      vertex 99.9944 -30 19.5281
    endloop
  endfacet
  facet normal 0.98809 0 -0.153876
    outer loop
      vertex 99.9944 -50 19.5281
      vertex 99.191 -50 14.3692
      vertex 99.9944 -30 19.5281
    endloop
  endfacet
  facet normal 0.99425 0 0.107086
    outer loop
      vertex 99.4353 -50 24.7191
      vertex 99.9944 -50 19.5281
      vertex 99.9944 -30 19.5281
    endloop
  endfacet
  facet normal 0.99425 0 0.107086
    outer loop
      vertex 99.4353 -30 24.7191
      vertex 99.4353 -50 24.7191
      vertex 99.9944 -30 19.5281
    endloop
  endfacet
  facet normal 0.932647 0 0.360789
    outer loop
      vertex 97.5516 -50 29.5885
      vertex 99.4353 -50 24.7191
      vertex 99.4353 -30 24.7191
    endloop
  endfacet
  facet normal 0.932647 0 0.360789
    outer loop
      vertex 97.5516 -30 29.5885
      vertex 97.5516 -50 29.5885
      vertex 99.4353 -30 24.7191
    endloop
  endfacet
  facet normal 0.807503 0 0.589864
    outer loop
      vertex 94.4719 -50 33.8045
      vertex 97.5516 -50 29.5885
      vertex 97.5516 -30 29.5885
    endloop
  endfacet
  facet normal 0.807503 0 0.589864
    outer loop
      vertex 94.4719 -30 33.8045
      vertex 94.4719 -50 33.8045
      vertex 97.5516 -30 29.5885
    endloop
  endfacet
  facet normal 0.627308 0 0.778772
    outer loop
      vertex 90.4059 -50 37.0797
      vertex 94.4719 -50 33.8045
      vertex 94.4719 -30 33.8045
    endloop
  endfacet
  facet normal 0.627308 0 0.778772
    outer loop
      vertex 90.4059 -30 37.0797
      vertex 90.4059 -50 37.0797
      vertex 94.4719 -30 33.8045
    endloop
  endfacet
  facet normal 0.404383 0 0.91459
    outer loop
      vertex 85.6308 -50 39.191
      vertex 90.4059 -50 37.0797
      vertex 90.4059 -30 37.0797
    endloop
  endfacet
  facet normal 0.404383 0 0.91459
    outer loop
      vertex 85.6308 -30 39.191
      vertex 85.6308 -50 39.191
      vertex 90.4059 -30 37.0797
    endloop
  endfacet
  facet normal 0.153877 0 0.98809
    outer loop
      vertex 80.4719 -50 39.9944
      vertex 85.6308 -50 39.191
      vertex 85.6308 -30 39.191
    endloop
  endfacet
  facet normal 0.153877 0 0.98809
    outer loop
      vertex 80.4719 -30 39.9944
      vertex 80.4719 -50 39.9944
      vertex 85.6308 -30 39.191
    endloop
  endfacet
  facet normal -0.107086 0 0.99425
    outer loop
      vertex 75.2809 -50 39.4353
      vertex 80.4719 -50 39.9944
      vertex 80.4719 -30 39.9944
    endloop
  endfacet
  facet normal -0.107086 0 0.99425
    outer loop
      vertex 75.2809 -30 39.4353
      vertex 75.2809 -50 39.4353
      vertex 80.4719 -30 39.9944
    endloop
  endfacet
  facet normal -0.360788 0 0.932648
    outer loop
      vertex 70.4115 -50 37.5516
      vertex 75.2809 -50 39.4353
      vertex 75.2809 -30 39.4353
    endloop
  endfacet
  facet normal -0.360788 0 0.932648
    outer loop
      vertex 70.4115 -30 37.5516
      vertex 70.4115 -50 37.5516
      vertex 75.2809 -30 39.4353
    endloop
  endfacet
  facet normal -0.589865 0 0.807502
    outer loop
      vertex 66.1955 -50 34.4719
      vertex 70.4115 -50 37.5516
      vertex 70.4115 -30 37.5516
    endloop
  endfacet
  facet normal -0.589865 0 0.807502
    outer loop
      vertex 66.1955 -30 34.4719
      vertex 66.1955 -50 34.4719
      vertex 70.4115 -30 37.5516
    endloop
  endfacet
  facet normal -0.778772 0 0.627308
    outer loop
      vertex 66.1955 -50 34.4719
      vertex 66.1955 -30 34.4719
      vertex 62.9203 -50 30.4059
    endloop
  endfacet
  facet normal -0.778772 0 0.627308
    outer loop
      vertex 62.9203 -50 30.4059
      vertex 66.1955 -30 34.4719
      vertex 62.9203 -30 30.4059
    endloop
  endfacet
  facet normal -0.914589 0 0.404384
    outer loop
      vertex 62.9203 -50 30.4059
      vertex 62.9203 -30 30.4059
      vertex 60.809 -50 25.6308
    endloop
  endfacet
  facet normal -0.914589 0 0.404384
    outer loop
      vertex 60.809 -50 25.6308
      vertex 62.9203 -30 30.4059
      vertex 60.809 -30 25.6308
    endloop
  endfacet
  facet normal -0.982782 0 -0.184767
    outer loop
      vertex 77.0247 30 20.3839
      vertex 77.3672 30 18.5617
      vertex 77.0247 -30 20.3839
    endloop
  endfacet
  facet normal -0.982782 0 -0.184767
    outer loop
      vertex 77.0247 -30 20.3839
      vertex 77.3672 30 18.5617
      vertex 77.3672 -30 18.5617
    endloop
  endfacet
  facet normal 0.686478 0 0.72715
    outer loop
      vertex 81.2845 -30 22.7111
      vertex 82.6327 -30 21.4383
      vertex 82.6327 30 21.4383
    endloop
  endfacet
  facet normal 0.686478 0 0.72715
    outer loop
      vertex 81.2845 30 22.7111
      vertex 81.2845 -30 22.7111
      vertex 82.6327 30 21.4383
    endloop
  endfacet
  facet normal 0.982782 0 0.184767
    outer loop
      vertex 82.6327 -30 21.4383
      vertex 82.9753 -30 19.6161
      vertex 82.9753 30 19.6161
    endloop
  endfacet
  facet normal 0.982782 0 0.184767
    outer loop
      vertex 82.6327 30 21.4383
      vertex 82.6327 -30 21.4383
      vertex 82.9753 30 19.6161
    endloop
  endfacet
  facet normal 0.903691 0 -0.428184
    outer loop
      vertex 82.1814 -30 17.9406
      vertex 82.1814 30 17.9406
      vertex 82.9753 30 19.6161
    endloop
  endfacet
  facet normal 0.903691 0 -0.428184
    outer loop
      vertex 82.9753 -30 19.6161
      vertex 82.1814 -30 17.9406
      vertex 82.9753 30 19.6161
    endloop
  endfacet
  facet normal 0.479423 0 -0.877584
    outer loop
      vertex 80.5543 30 17.0517
      vertex 82.1814 30 17.9406
      vertex 80.5543 -30 17.0517
    endloop
  endfacet
  facet normal 0.479423 0 -0.877584
    outer loop
      vertex 80.5543 -30 17.0517
      vertex 82.1814 30 17.9406
      vertex 82.1814 -30 17.9406
    endloop
  endfacet
  facet normal -0.127933 0 -0.991783
    outer loop
      vertex 78.7155 30 17.2889
      vertex 80.5543 30 17.0517
      vertex 78.7155 -30 17.2889
    endloop
  endfacet
  facet normal -0.127933 0 -0.991783
    outer loop
      vertex 78.7155 -30 17.2889
      vertex 80.5543 30 17.0517
      vertex 80.5543 -30 17.0517
    endloop
  endfacet
  facet normal -0.686478 0 -0.72715
    outer loop
      vertex 77.3672 30 18.5617
      vertex 78.7155 30 17.2889
      vertex 77.3672 -30 18.5617
    endloop
  endfacet
  facet normal -0.686478 0 -0.72715
    outer loop
      vertex 77.3672 -30 18.5617
      vertex 78.7155 30 17.2889
      vertex 78.7155 -30 17.2889
    endloop
  endfacet
  facet normal -0.98809 0 0.153876
    outer loop
      vertex 60.809 30 25.6308
      vertex 60.809 50 25.6308
      vertex 60.0056 30 20.4719
    endloop
  endfacet
  facet normal -0.98809 0 0.153876
    outer loop
      vertex 60.0056 30 20.4719
      vertex 60.809 50 25.6308
      vertex 60.0056 50 20.4719
    endloop
  endfacet
  facet normal -0.99425 0 -0.107086
    outer loop
      vertex 60.0056 50 20.4719
      vertex 60.5647 50 15.2809
      vertex 60.0056 30 20.4719
    endloop
  endfacet
  facet normal -0.99425 0 -0.107086
    outer loop
      vertex 60.0056 30 20.4719
      vertex 60.5647 50 15.2809
      vertex 60.5647 30 15.2809
    endloop
  endfacet
  facet normal -0.914589 0 0.404384
    outer loop
      vertex 62.9203 30 30.4059
      vertex 62.9203 50 30.4059
      vertex 60.809 30 25.6308
    endloop
  endfacet
  facet normal -0.914589 0 0.404384
    outer loop
      vertex 60.809 30 25.6308
      vertex 62.9203 50 30.4059
      vertex 60.809 50 25.6308
    endloop
  endfacet
  facet normal -0.778772 0 0.627308
    outer loop
      vertex 66.1955 30 34.4719
      vertex 66.1955 50 34.4719
      vertex 62.9203 30 30.4059
    endloop
  endfacet
  facet normal -0.778772 0 0.627308
    outer loop
      vertex 62.9203 30 30.4059
      vertex 66.1955 50 34.4719
      vertex 62.9203 50 30.4059
    endloop
  endfacet
  facet normal -0.589865 0 0.807502
    outer loop
      vertex 66.1955 30 34.4719
      vertex 70.4115 30 37.5516
      vertex 70.4115 50 37.5516
    endloop
  endfacet
  facet normal -0.589865 0 0.807502
    outer loop
      vertex 66.1955 50 34.4719
      vertex 66.1955 30 34.4719
      vertex 70.4115 50 37.5516
    endloop
  endfacet
  facet normal -0.360788 0 0.932648
    outer loop
      vertex 70.4115 30 37.5516
      vertex 75.2809 30 39.4353
      vertex 75.2809 50 39.4353
    endloop
  endfacet
  facet normal -0.360788 0 0.932648
    outer loop
      vertex 70.4115 50 37.5516
      vertex 70.4115 30 37.5516
      vertex 75.2809 50 39.4353
    endloop
  endfacet
  facet normal -0.107086 0 0.99425
    outer loop
      vertex 75.2809 30 39.4353
      vertex 80.4719 30 39.9944
      vertex 80.4719 50 39.9944
    endloop
  endfacet
  facet normal -0.107086 0 0.99425
    outer loop
      vertex 75.2809 50 39.4353
      vertex 75.2809 30 39.4353
      vertex 80.4719 50 39.9944
    endloop
  endfacet
  facet normal 0.153877 0 0.98809
    outer loop
      vertex 80.4719 30 39.9944
      vertex 85.6308 30 39.191
      vertex 85.6308 50 39.191
    endloop
  endfacet
  facet normal 0.153877 0 0.98809
    outer loop
      vertex 80.4719 50 39.9944
      vertex 80.4719 30 39.9944
      vertex 85.6308 50 39.191
    endloop
  endfacet
  facet normal 0.404383 0 0.91459
    outer loop
      vertex 85.6308 30 39.191
      vertex 90.4059 30 37.0797
      vertex 90.4059 50 37.0797
    endloop
  endfacet
  facet normal 0.404383 0 0.91459
    outer loop
      vertex 85.6308 50 39.191
      vertex 85.6308 30 39.191
      vertex 90.4059 50 37.0797
    endloop
  endfacet
  facet normal 0.627308 0 0.778772
    outer loop
      vertex 90.4059 30 37.0797
      vertex 94.4719 30 33.8045
      vertex 94.4719 50 33.8045
    endloop
  endfacet
  facet normal 0.627308 0 0.778772
    outer loop
      vertex 90.4059 50 37.0797
      vertex 90.4059 30 37.0797
      vertex 94.4719 50 33.8045
    endloop
  endfacet
  facet normal 0.807503 0 0.589864
    outer loop
      vertex 94.4719 30 33.8045
      vertex 97.5516 30 29.5885
      vertex 97.5516 50 29.5885
    endloop
  endfacet
  facet normal 0.807503 0 0.589864
    outer loop
      vertex 94.4719 50 33.8045
      vertex 94.4719 30 33.8045
      vertex 97.5516 50 29.5885
    endloop
  endfacet
  facet normal 0.932647 0 0.360789
    outer loop
      vertex 97.5516 30 29.5885
      vertex 99.4353 30 24.7191
      vertex 99.4353 50 24.7191
    endloop
  endfacet
  facet normal 0.932647 0 0.360789
    outer loop
      vertex 97.5516 50 29.5885
      vertex 97.5516 30 29.5885
      vertex 99.4353 50 24.7191
    endloop
  endfacet
  facet normal 0.99425 0 0.107086
    outer loop
      vertex 99.4353 30 24.7191
      vertex 99.9944 30 19.5281
      vertex 99.9944 50 19.5281
    endloop
  endfacet
  facet normal 0.99425 0 0.107086
    outer loop
      vertex 99.4353 50 24.7191
      vertex 99.4353 30 24.7191
      vertex 99.9944 50 19.5281
    endloop
  endfacet
  facet normal 0.98809 0 -0.153876
    outer loop
      vertex 99.191 30 14.3692
      vertex 99.191 50 14.3692
      vertex 99.9944 50 19.5281
    endloop
  endfacet
  facet normal 0.98809 0 -0.153876
    outer loop
      vertex 99.9944 30 19.5281
      vertex 99.191 30 14.3692
      vertex 99.9944 50 19.5281
    endloop
  endfacet
  facet normal 0.91459 0 -0.404382
    outer loop
      vertex 97.0797 30 9.59408
      vertex 97.0797 50 9.59408
      vertex 99.191 50 14.3692
    endloop
  endfacet
  facet normal 0.91459 0 -0.404382
    outer loop
      vertex 99.191 30 14.3692
      vertex 97.0797 30 9.59408
      vertex 99.191 50 14.3692
    endloop
  endfacet
  facet normal 0.77877 0 -0.627309
    outer loop
      vertex 93.8045 30 5.5281
      vertex 93.8045 50 5.5281
      vertex 97.0797 50 9.59408
    endloop
  endfacet
  facet normal 0.77877 0 -0.627309
    outer loop
      vertex 97.0797 30 9.59408
      vertex 93.8045 30 5.5281
      vertex 97.0797 50 9.59408
    endloop
  endfacet
  facet normal 0.589871 0 -0.807497
    outer loop
      vertex 89.5885 50 2.44835
      vertex 93.8045 50 5.5281
      vertex 89.5885 30 2.44835
    endloop
  endfacet
  facet normal 0.589871 0 -0.807497
    outer loop
      vertex 89.5885 30 2.44835
      vertex 93.8045 50 5.5281
      vertex 93.8045 30 5.5281
    endloop
  endfacet
  facet normal 0.360777 0 -0.932652
    outer loop
      vertex 84.7191 50 0.564718
      vertex 89.5885 50 2.44835
      vertex 84.7191 30 0.564718
    endloop
  endfacet
  facet normal 0.360777 0 -0.932652
    outer loop
      vertex 84.7191 30 0.564718
      vertex 89.5885 50 2.44835
      vertex 89.5885 30 2.44835
    endloop
  endfacet
  facet normal 0.107095 0 -0.994249
    outer loop
      vertex 79.5281 50 0.005569
      vertex 84.7191 50 0.564718
      vertex 79.5281 30 0.005569
    endloop
  endfacet
  facet normal 0.107095 0 -0.994249
    outer loop
      vertex 79.5281 30 0.005569
      vertex 84.7191 50 0.564718
      vertex 84.7191 30 0.564718
    endloop
  endfacet
  facet normal -0.153884 0 -0.988089
    outer loop
      vertex 74.3692 50 0.809007
      vertex 79.5281 50 0.005569
      vertex 74.3692 30 0.809007
    endloop
  endfacet
  facet normal -0.153884 0 -0.988089
    outer loop
      vertex 74.3692 30 0.809007
      vertex 79.5281 50 0.005569
      vertex 79.5281 30 0.005569
    endloop
  endfacet
  facet normal -0.404379 0 -0.914592
    outer loop
      vertex 69.5941 50 2.92028
      vertex 74.3692 50 0.809007
      vertex 69.5941 30 2.92028
    endloop
  endfacet
  facet normal -0.404379 0 -0.914592
    outer loop
      vertex 69.5941 30 2.92028
      vertex 74.3692 50 0.809007
      vertex 74.3692 30 0.809007
    endloop
  endfacet
  facet normal -0.627311 0 -0.778769
    outer loop
      vertex 65.5281 50 6.19551
      vertex 69.5941 50 2.92028
      vertex 65.5281 30 6.19551
    endloop
  endfacet
  facet normal -0.627311 0 -0.778769
    outer loop
      vertex 65.5281 30 6.19551
      vertex 69.5941 50 2.92028
      vertex 69.5941 30 2.92028
    endloop
  endfacet
  facet normal -0.807502 0 -0.589865
    outer loop
      vertex 62.4484 50 10.4115
      vertex 65.5281 50 6.19551
      vertex 62.4484 30 10.4115
    endloop
  endfacet
  facet normal -0.807502 0 -0.589865
    outer loop
      vertex 62.4484 30 10.4115
      vertex 65.5281 50 6.19551
      vertex 65.5281 30 6.19551
    endloop
  endfacet
  facet normal -0.932647 0 -0.360789
    outer loop
      vertex 60.5647 50 15.2809
      vertex 62.4484 50 10.4115
      vertex 60.5647 30 15.2809
    endloop
  endfacet
  facet normal -0.932647 0 -0.360789
    outer loop
      vertex 60.5647 30 15.2809
      vertex 62.4484 50 10.4115
      vertex 62.4484 30 10.4115
    endloop
  endfacet
  facet normal 0 -1 0
    outer loop
      vertex 60.0056 -50 20.4719
      vertex 60.5647 -50 15.2809
      vertex 62.4484 -50 10.4115
    endloop
  endfacet
  facet normal 0 -1 0
    outer loop
      vertex 69.5941 -50 2.92028
      vertex 60.0056 -50 20.4719
      vertex 65.5281 -50 6.19551
    endloop
  endfacet
  facet normal 0 -1 0
    outer loop
      vertex 65.5281 -50 6.19551
      vertex 60.0056 -50 20.4719
      vertex 62.4484 -50 10.4115
    endloop
  endfacet
  facet normal 0 -1 0
    outer loop
      vertex 74.3692 -50 0.809007
      vertex 60.0056 -50 20.4719
      vertex 69.5941 -50 2.92028
    endloop
  endfacet
  facet normal 0 -1 0
    outer loop
      vertex 79.5281 -50 0.005569
      vertex 60.0056 -50 20.4719
      vertex 74.3692 -50 0.809007
    endloop
  endfacet
  facet normal 0 -1 0
    outer loop
      vertex 84.7191 -50 0.564718
      vertex 60.0056 -50 20.4719
      vertex 79.5281 -50 0.005569
    endloop
  endfacet
  facet normal 0 -1 0
    outer loop
      vertex 89.5885 -50 2.44835
      vertex 60.0056 -50 20.4719
      vertex 84.7191 -50 0.564718
    endloop
  endfacet
  facet normal 0 -1 0
    outer loop
      vertex 93.8045 -50 5.5281
      vertex 60.0056 -50 20.4719
      vertex 89.5885 -50 2.44835
    endloop
  endfacet
  facet normal 0 -1 0
    outer loop
      vertex 97.0797 -50 9.59408
      vertex 60.0056 -50 20.4719
      vertex 93.8045 -50 5.5281
    endloop
  endfacet
  facet normal 0 -1 0
    outer loop
      vertex 99.191 -50 14.3692
      vertex 60.0056 -50 20.4719
      vertex 97.0797 -50 9.59408
    endloop
  endfacet
  facet normal 0 -1 0
    outer loop
      vertex 99.9944 -50 19.5281
      vertex 60.0056 -50 20.4719
      vertex 99.191 -50 14.3692
    endloop
  endfacet
  facet normal 0 -1 0
    outer loop
      vertex 99.4353 -50 24.7191
      vertex 60.0056 -50 20.4719
      vertex 99.9944 -50 19.5281
    endloop
  endfacet
  facet normal 0 -1 0
    outer loop
      vertex 97.5516 -50 29.5885
      vertex 60.0056 -50 20.4719
      vertex 99.4353 -50 24.7191
    endloop
  endfacet
  facet normal 0 -1 0
    outer loop
      vertex 94.4719 -50 33.8045
      vertex 60.0056 -50 20.4719
      vertex 97.5516 -50 29.5885
    endloop
  endfacet
  facet normal 0 -1 0
    outer loop
      vertex 90.4059 -50 37.0797
      vertex 60.0056 -50 20.4719
      vertex 94.4719 -50 33.8045
    endloop
  endfacet
  facet normal 0 -1 0
    outer loop
      vertex 85.6308 -50 39.191
      vertex 60.0056 -50 20.4719
      vertex 90.4059 -50 37.0797
    endloop
  endfacet
  facet normal 0 -1 0
    outer loop
      vertex 80.4719 -50 39.9944
      vertex 60.0056 -50 20.4719
      vertex 85.6308 -50 39.191
    endloop
  endfacet
  facet normal 0 -1 0
    outer loop
      vertex 75.2809 -50 39.4353
      vertex 60.0056 -50 20.4719
      vertex 80.4719 -50 39.9944
    endloop
  endfacet
  facet normal 0 -1 0
    outer loop
      vertex 70.4115 -50 37.5516
      vertex 60.0056 -50 20.4719
      vertex 75.2809 -50 39.4353
    endloop
  endfacet
  facet normal 0 -1 0
    outer loop
      vertex 66.1955 -50 34.4719
      vertex 60.0056 -50 20.4719
      vertex 70.4115 -50 37.5516
    endloop
  endfacet
  facet normal 0 -1 0
    outer loop
      vertex 62.9203 -50 30.4059
      vertex 60.0056 -50 20.4719
      vertex 66.1955 -50 34.4719
    endloop
  endfacet
  facet normal 0 -1 0
    outer loop
      vertex 60.809 -50 25.6308
      vertex 60.0056 -50 20.4719
      vertex 62.9203 -50 30.4059
    endloop
  endfacet
  facet normal 0 1 0
    outer loop
      vertex 60.809 50 25.6308
      vertex 62.9203 50 30.4059
      vertex 60.0056 50 20.4719
    endloop
  endfacet
  facet normal 0 1 0
    outer loop
      vertex 60.0056 50 20.4719
      vertex 62.9203 50 30.4059
      vertex 66.1955 50 34.4719
    endloop
  endfacet
  facet normal 0 1 0
    outer loop
      vertex 60.0056 50 20.4719
      vertex 66.1955 50 34.4719
      vertex 70.4115 50 37.5516
    endloop
  endfacet
  facet normal 0 1 0
    outer loop
      vertex 60.0056 50 20.4719
      vertex 70.4115 50 37.5516
      vertex 75.2809 50 39.4353
    endloop
  endfacet
  facet normal 0 1 0
    outer loop
      vertex 60.0056 50 20.4719
      vertex 75.2809 50 39.4353
      vertex 80.4719 50 39.9944
    endloop
  endfacet
  facet normal 0 1 0
    outer loop
      vertex 60.0056 50 20.4719
      vertex 80.4719 50 39.9944
      vertex 85.6308 50 39.191
    endloop
  endfacet
  facet normal 0 1 0
    outer loop
      vertex 60.0056 50 20.4719
      vertex 85.6308 50 39.191
      vertex 90.4059 50 37.0797
    endloop
  endfacet
  facet normal 0 1 0
    outer loop
      vertex 60.0056 50 20.4719
      vertex 90.4059 50 37.0797
      vertex 94.4719 50 33.8045
    endloop
  endfacet
  facet normal 0 1 0
    outer loop
      vertex 60.0056 50 20.4719
      vertex 94.4719 50 33.8045
      vertex 97.5516 50 29.5885
    endloop
  endfacet
  facet normal 0 1 0
    outer loop
      vertex 60.0056 50 20.4719
      vertex 97.5516 50 29.5885
      vertex 99.4353 50 24.7191
    endloop
  endfacet
  facet normal 0 1 0
    outer loop
      vertex 60.0056 50 20.4719
      vertex 99.4353 50 24.7191
      vertex 99.9944 50 19.5281
    endloop
  endfacet
  facet normal 0 1 0
    outer loop
      vertex 60.0056 50 20.4719
      vertex 99.9944 50 19.5281
      vertex 99.191 50 14.3692
    endloop
  endfacet
  facet normal 0 1 0
    outer loop
      vertex 60.0056 50 20.4719
      vertex 99.191 50 14.3692
      vertex 97.0797 50 9.59408
    endloop
  endfacet
  facet normal 0 1 0
    outer loop
      vertex 60.0056 50 20.4719
      vertex 97.0797 50 9.59408
      vertex 93.8045 50 5.5281
    endloop
  endfacet
  facet normal 0 1 0
    outer loop
      vertex 60.0056 50 20.4719
      vertex 93.8045 50 5.5281
      vertex 89.5885 50 2.44835
    endloop
  endfacet
  facet normal 0 1 0
    outer loop
      vertex 60.0056 50 20.4719
      vertex 89.5885 50 2.44835
      vertex 84.7191 50 0.564718
    endloop
  endfacet
  facet normal 0 1 0
    outer loop
      vertex 60.0056 50 20.4719
      vertex 84.7191 50 0.564718
      vertex 79.5281 50 0.005569
    endloop
  endfacet
  facet normal 0 1 0
    outer loop
      vertex 60.0056 50 20.4719
      vertex 79.5281 50 0.005569
      vertex 74.3692 50 0.809007
    endloop
  endfacet
  facet normal 0 1 0
    outer loop
      vertex 60.0056 50 20.4719
      vertex 74.3692 50 0.809007
      vertex 69.5941 50 2.92028
    endloop
  endfacet
  facet normal 0 1 0
    outer loop
      vertex 60.0056 50 20.4719
      vertex 69.5941 50 2.92028
      vertex 65.5281 50 6.19551
    endloop
  endfacet
  facet normal 0 1 0
    outer loop
      vertex 60.0056 50 20.4719
      vertex 65.5281 50 6.19551
      vertex 62.4484 50 10.4115
    endloop
  endfacet
  facet normal 0 1 0
    outer loop
      vertex 60.0056 50 20.4719
      vertex 62.4484 50 10.4115
      vertex 60.5647 50 15.2809
    endloop
  endfacet
  facet normal -0.903687 0 0.428193
    outer loop
      vertex 157.819 -40 22.0594
      vertex 157.819 40 22.0594
      vertex 157.025 -40 20.3839
    endloop
  endfacet
  facet normal -0.903687 0 0.428193
    outer loop
      vertex 157.025 -40 20.3839
      vertex 157.819 40 22.0594
      vertex 157.025 40 20.3839
    endloop
  endfacet
  facet normal 0 -1 0
    outer loop
      vertex 157.025 -40 20.3839
      vertex 157.367 -40 18.5617
      vertex 158.715 -40 17.2889
    endloop
  endfacet
  facet normal 0 -1 0
    outer loop
      vertex 162.181 -40 17.9406
      vertex 157.025 -40 20.3839
      vertex 160.554 -40 17.0517
    endloop
  endfacet
  facet normal 0 -1 0
    outer loop
      vertex 160.554 -40 17.0517
      vertex 157.025 -40 20.3839
      vertex 158.715 -40 17.2889
    endloop
  endfacet
  facet normal 0 -1 0
    outer loop
      vertex 162.975 -40 19.6161
      vertex 157.025 -40 20.3839
      vertex 162.181 -40 17.9406
    endloop
  endfacet
  facet normal 0 -1 0
    outer loop
      vertex 162.633 -40 21.4383
      vertex 157.025 -40 20.3839
      vertex 162.975 -40 19.6161
    endloop
  endfacet
  facet normal 0 -1 0
    outer loop
      vertex 161.284 -40 22.7111
      vertex 157.025 -40 20.3839
      vertex 162.633 -40 21.4383
    endloop
  endfacet
  facet normal 0 -1 0
    outer loop
      vertex 159.446 -40 22.9483
      vertex 157.025 -40 20.3839
      vertex 161.284 -40 22.7111
    endloop
  endfacet
  facet normal 0 -1 0
    outer loop
      vertex 157.819 -40 22.0594
      vertex 157.025 -40 20.3839
      vertex 159.446 -40 22.9483
    endloop
  endfacet
  facet normal -0.98279 0 -0.184725
    outer loop
      vertex 157.025 40 20.3839
      vertex 157.367 40 18.5617
      vertex 157.025 -40 20.3839
    endloop
  endfacet
  facet normal -0.98279 0 -0.184725
    outer loop
      vertex 157.025 -40 20.3839
      vertex 157.367 40 18.5617
      vertex 157.367 -40 18.5617
    endloop
  endfacet
  facet normal 0 1 0
    outer loop
      vertex 157.819 40 22.0594
      vertex 159.446 40 22.9483
      vertex 157.025 40 20.3839
    endloop
  endfacet
  facet normal 0 1 0
    outer loop
      vertex 157.025 40 20.3839
      vertex 159.446 40 22.9483
      vertex 161.284 40 22.7111
    endloop
  endfacet
  facet normal 0 1 0
    outer loop
      vertex 157.025 40 20.3839
      vertex 161.284 40 22.7111
      vertex 162.633 40 21.4383
    endloop
  endfacet
  facet normal 0 1 0
    outer loop
      vertex 157.025 40 20.3839
      vertex 162.633 40 21.4383
      vertex 162.975 40 19.6161
    endloop
  endfacet
  facet normal 0 1 0
    outer loop
      vertex 157.025 40 20.3839
      vertex 162.975 40 19.6161
      vertex 162.181 40 17.9406
    endloop
  endfacet
  facet normal 0 1 0
    outer loop
      vertex 157.025 40 20.3839
      vertex 162.181 40 17.9406
      vertex 160.554 40 17.0517
    endloop
  endfacet
  facet normal 0 1 0
    outer loop
      vertex 157.025 40 20.3839
      vertex 160.554 40 17.0517
      vertex 158.715 40 17.2889
    endloop
  endfacet
  facet normal 0 1 0
    outer loop
      vertex 157.025 40 20.3839
      vertex 158.715 40 17.2889
      vertex 157.367 40 18.5617
    endloop
  endfacet
  facet normal -0.47943 0 0.87758
    outer loop
      vertex 157.819 -40 22.0594
      vertex 159.446 -40 22.9483
      vertex 159.446 40 22.9483
    endloop
  endfacet
  facet normal -0.47943 0 0.87758
    outer loop
      vertex 157.819 40 22.0594
      vertex 157.819 -40 22.0594
      vertex 159.446 40 22.9483
    endloop
  endfacet
  facet normal 0.127937 0 0.991782
    outer loop
      vertex 159.446 -40 22.9483
      vertex 161.284 -40 22.7111
      vertex 161.284 40 22.7111
    endloop
  endfacet
  facet normal 0.127937 0 0.991782
    outer loop
      vertex 159.446 40 22.9483
      vertex 159.446 -40 22.9483
      vertex 161.284 40 22.7111
    endloop
  endfacet
  facet normal 0.686454 0 0.727173
    outer loop
      vertex 161.284 -40 22.7111
      vertex 162.633 -40 21.4383
      vertex 162.633 40 21.4383
    endloop
  endfacet
  facet normal 0.686454 0 0.727173
    outer loop
      vertex 161.284 40 22.7111
      vertex 161.284 -40 22.7111
      vertex 162.633 40 21.4383
    endloop
  endfacet
  facet normal 0.98279 0 0.184725
    outer loop
      vertex 162.633 -40 21.4383
      vertex 162.975 -40 19.6161
      vertex 162.975 40 19.6161
    endloop
  endfacet
  facet normal 0.98279 0 0.184725
    outer loop
      vertex 162.633 40 21.4383
      vertex 162.633 -40 21.4383
      vertex 162.975 40 19.6161
    endloop
  endfacet
  facet normal 0.903687 0 -0.428193
    outer loop
      vertex 162.181 -40 17.9406
      vertex 162.181 40 17.9406
      vertex 162.975 40 19.6161
    endloop
  endfacet
  facet normal 0.903687 0 -0.428193
    outer loop
      vertex 162.975 -40 19.6161
      vertex 162.181 -40 17.9406
      vertex 162.975 40 19.6161
    endloop
  endfacet
  facet normal 0.47943 0 -0.87758
    outer loop
      vertex 160.554 40 17.0517
      vertex 162.181 40 17.9406
      vertex 160.554 -40 17.0517
    endloop
  endfacet
  facet normal 0.47943 0 -0.87758
    outer loop
      vertex 160.554 -40 17.0517
      vertex 162.181 40 17.9406
      vertex 162.181 -40 17.9406
    endloop
  endfacet
  facet normal -0.127937 0 -0.991782
    outer loop
      vertex 158.715 40 17.2889
      vertex 160.554 40 17.0517
      vertex 158.715 -40 17.2889
    endloop
  endfacet
  facet normal -0.127937 0 -0.991782
    outer loop
      vertex 158.715 -40 17.2889
      vertex 160.554 40 17.0517
      vertex 160.554 -40 17.0517
    endloop
  endfacet
  facet normal -0.686454 0 -0.727173
    outer loop
      vertex 157.367 40 18.5617
      vertex 158.715 40 17.2889
      vertex 157.367 -40 18.5617
    endloop
  endfacet
  facet normal -0.686454 0 -0.727173
    outer loop
      vertex 157.367 -40 18.5617
      vertex 158.715 40 17.2889
      vertex 158.715 -40 17.2889
    endloop
  endfacet
  facet normal -0.47943 0 0.87758
    outer loop
      vertex -2.1814 -30 22.0594
      vertex -0.5543 -30 22.9483
      vertex -0.5543 30 22.9483
    endloop
  endfacet
  facet normal -0.47943 0 0.87758
    outer loop
      vertex -2.1814 30 22.0594
      vertex -2.1814 -30 22.0594
      vertex -0.5543 30 22.9483
    endloop
  endfacet
  facet normal 0 1 0
    outer loop
      vertex -19.191 -30 25.6308
      vertex -17.0797 -30 30.4059
      vertex -19.9944 -30 20.4719
    endloop
  endfacet
  facet normal 0 1 0
    outer loop
      vertex -19.9944 -30 20.4719
      vertex -17.0797 -30 30.4059
      vertex -13.8045 -30 34.4719
    endloop
  endfacet
  facet normal 0 1 0
    outer loop
      vertex -19.9944 -30 20.4719
      vertex -13.8045 -30 34.4719
      vertex -9.5885 -30 37.5516
    endloop
  endfacet
  facet normal 0 1 0
    outer loop
      vertex -19.9944 -30 20.4719
      vertex -9.5885 -30 37.5516
      vertex -4.7191 -30 39.4353
    endloop
  endfacet
  facet normal 0 1 0
    outer loop
      vertex -19.9944 -30 20.4719
      vertex -4.7191 -30 39.4353
      vertex 0.4719 -30 39.9944
    endloop
  endfacet
  facet normal 0 1 0
    outer loop
      vertex -19.9944 -30 20.4719
      vertex 0.4719 -30 39.9944
      vertex 5.6308 -30 39.191
    endloop
  endfacet
  facet normal 0 1 0
    outer loop
      vertex -19.9944 -30 20.4719
      vertex 5.6308 -30 39.191
      vertex 10.4059 -30 37.0797
    endloop
  endfacet
  facet normal 0 1 0
    outer loop
      vertex -19.9944 -30 20.4719
      vertex 10.4059 -30 37.0797
      vertex 14.4719 -30 33.8045
    endloop
  endfacet
  facet normal 0 1 0
    outer loop
      vertex -19.9944 -30 20.4719
      vertex 14.4719 -30 33.8045
      vertex 17.5517 -30 29.5885
    endloop
  endfacet
  facet normal 0 1 0
    outer loop
      vertex -0.5543 -30 22.9483
      vertex 17.5517 -30 29.5885
      vertex 19.4353 -30 24.7191
    endloop
  endfacet
  facet normal 0 1 0
    outer loop
      vertex 2.6328 -30 21.4383
      vertex 19.4353 -30 24.7191
      vertex 19.9944 -30 19.5281
    endloop
  endfacet
  facet normal 0 1 0
    outer loop
      vertex 2.1814 -30 17.9406
      vertex 19.9944 -30 19.5281
      vertex 19.191 -30 14.3692
    endloop
  endfacet
  facet normal 0 1 0
    outer loop
      vertex -1.2845 -30 17.2889
      vertex 19.191 -30 14.3692
      vertex 17.0797 -30 9.59408
    endloop
  endfacet
  facet normal 0 1 0
    outer loop
      vertex -19.9944 -30 20.4719
      vertex 17.0797 -30 9.59408
      vertex 13.8045 -30 5.5281
    endloop
  endfacet
  facet normal 0 1 0
    outer loop
      vertex -19.9944 -30 20.4719
      vertex 13.8045 -30 5.5281
      vertex 9.5885 -30 2.44835
    endloop
  endfacet
  facet normal 0 1 0
    outer loop
      vertex -19.9944 -30 20.4719
      vertex 9.5885 -30 2.44835
      vertex 4.7191 -30 0.564718
    endloop
  endfacet
  facet normal 0 1 0
    outer loop
      vertex -19.9944 -30 20.4719
      vertex 4.7191 -30 0.564718
      vertex -0.4719 -30 0.005569
    endloop
  endfacet
  facet normal 0 1 0
    outer loop
      vertex -19.9944 -30 20.4719
      vertex -0.4719 -30 0.005569
      vertex -5.6308 -30 0.809007
    endloop
  endfacet
  facet normal 0 1 0
    outer loop
      vertex -19.9944 -30 20.4719
      vertex -5.6308 -30 0.809007
      vertex -10.4059 -30 2.92028
    endloop
  endfacet
  facet normal 0 1 0
    outer loop
      vertex -19.9944 -30 20.4719
      vertex -10.4059 -30 2.92028
      vertex -14.4719 -30 6.19551
    endloop
  endfacet
  facet normal 0 1 0
    outer loop
      vertex -19.9944 -30 20.4719
      vertex -14.4719 -30 6.19551
      vertex -17.5516 -30 10.4115
    endloop
  endfacet
  facet normal 0 1 0
    outer loop
      vertex -19.9944 -30 20.4719
      vertex -17.5516 -30 10.4115
      vertex -19.4353 -30 15.2809
    endloop
  endfacet
  facet normal 0 1 0
    outer loop
      vertex -0.5543 -30 22.9483
      vertex 19.4353 -30 24.7191
      vertex 1.2845 -30 22.7111
    endloop
  endfacet
  facet normal 0 1 0
    outer loop
      vertex 2.6328 -30 21.4383
      vertex 19.9944 -30 19.5281
      vertex 2.9753 -30 19.6161
    endloop
  endfacet
  facet normal 0 1 0
    outer loop
      vertex 0.5543 -30 17.0517
      vertex 19.191 -30 14.3692
      vertex -1.2845 -30 17.2889
    endloop
  endfacet
  facet normal 0 1 0
    outer loop
      vertex -19.9944 -30 20.4719
      vertex -1.2845 -30 17.2889
      vertex 17.0797 -30 9.59408
    endloop
  endfacet
  facet normal 0 1 0
    outer loop
      vertex 2.1814 -30 17.9406
      vertex 19.191 -30 14.3692
      vertex 0.5543 -30 17.0517
    endloop
  endfacet
  facet normal 0 1 0
    outer loop
      vertex 2.9753 -30 19.6161
      vertex 19.9944 -30 19.5281
      vertex 2.1814 -30 17.9406
    endloop
  endfacet
  facet normal 0 1 0
    outer loop
      vertex -1.2845 -30 17.2889
      vertex -19.9944 -30 20.4719
      vertex -2.6328 -30 18.5617
    endloop
  endfacet
  facet normal 0 1 0
    outer loop
      vertex 1.2845 -30 22.7111
      vertex 19.4353 -30 24.7191
      vertex 2.6328 -30 21.4383
    endloop
  endfacet
  facet normal 0 1 0
    outer loop
      vertex -19.9944 -30 20.4719
      vertex 17.5517 -30 29.5885
      vertex -0.5543 -30 22.9483
    endloop
  endfacet
  facet normal 0 1 0
    outer loop
      vertex -2.1814 -30 22.0594
      vertex -19.9944 -30 20.4719
      vertex -0.5543 -30 22.9483
    endloop
  endfacet
  facet normal 0 1 0
    outer loop
      vertex -19.9944 -30 20.4719
      vertex -2.1814 -30 22.0594
      vertex -2.9753 -30 20.3839
    endloop
  endfacet
  facet normal 0 1 0
    outer loop
      vertex -2.6328 -30 18.5617
      vertex -19.9944 -30 20.4719
      vertex -2.9753 -30 20.3839
    endloop
  endfacet
  facet normal -0.903687 0 0.428193
    outer loop
      vertex -2.1814 -30 22.0594
      vertex -2.1814 30 22.0594
      vertex -2.9753 -30 20.3839
    endloop
  endfacet
  facet normal -0.903687 0 0.428193
    outer loop
      vertex -2.9753 -30 20.3839
      vertex -2.1814 30 22.0594
      vertex -2.9753 30 20.3839
    endloop
  endfacet
  facet normal 0 -1 0
    outer loop
      vertex -19.9944 30 20.4719
      vertex -19.4353 30 15.2809
      vertex -17.5516 30 10.4115
    endloop
  endfacet
  facet normal 0 -1 0
    outer loop
      vertex -10.4059 30 2.92028
      vertex -19.9944 30 20.4719
      vertex -14.4719 30 6.19551
    endloop
  endfacet
  facet normal 0 -1 0
    outer loop
      vertex -14.4719 30 6.19551
      vertex -19.9944 30 20.4719
      vertex -17.5516 30 10.4115
    endloop
  endfacet
  facet normal 0 -1 0
    outer loop
      vertex -5.6308 30 0.809007
      vertex -19.9944 30 20.4719
      vertex -10.4059 30 2.92028
    endloop
  endfacet
  facet normal 0 -1 0
    outer loop
      vertex -0.4719 30 0.005569
      vertex -19.9944 30 20.4719
      vertex -5.6308 30 0.809007
    endloop
  endfacet
  facet normal 0 -1 0
    outer loop
      vertex 4.7191 30 0.564718
      vertex -19.9944 30 20.4719
      vertex -0.4719 30 0.005569
    endloop
  endfacet
  facet normal 0 -1 0
    outer loop
      vertex 9.5885 30 2.44835
      vertex -19.9944 30 20.4719
      vertex 4.7191 30 0.564718
    endloop
  endfacet
  facet normal 0 -1 0
    outer loop
      vertex 13.8045 30 5.5281
      vertex -19.9944 30 20.4719
      vertex 9.5885 30 2.44835
    endloop
  endfacet
  facet normal 0 -1 0
    outer loop
      vertex 17.0797 30 9.59408
      vertex -19.9944 30 20.4719
      vertex 13.8045 30 5.5281
    endloop
  endfacet
  facet normal 0 -1 0
    outer loop
      vertex -1.2845 30 17.2889
      vertex -19.9944 30 20.4719
      vertex 17.0797 30 9.59408
    endloop
  endfacet
  facet normal 0 -1 0
    outer loop
      vertex -0.5543 30 22.9483
      vertex 1.2845 30 22.7111
      vertex 19.4353 30 24.7191
    endloop
  endfacet
  facet normal 0 -1 0
    outer loop
      vertex 14.4719 30 33.8045
      vertex -19.9944 30 20.4719
      vertex 17.5517 30 29.5885
    endloop
  endfacet
  facet normal 0 -1 0
    outer loop
      vertex 10.4059 30 37.0797
      vertex -19.9944 30 20.4719
      vertex 14.4719 30 33.8045
    endloop
  endfacet
  facet normal 0 -1 0
    outer loop
      vertex 5.6308 30 39.191
      vertex -19.9944 30 20.4719
      vertex 10.4059 30 37.0797
    endloop
  endfacet
  facet normal 0 -1 0
    outer loop
      vertex 0.4719 30 39.9944
      vertex -19.9944 30 20.4719
      vertex 5.6308 30 39.191
    endloop
  endfacet
  facet normal 0 -1 0
    outer loop
      vertex -4.7191 30 39.4353
      vertex -19.9944 30 20.4719
      vertex 0.4719 30 39.9944
    endloop
  endfacet
  facet normal 0 -1 0
    outer loop
      vertex -9.5885 30 37.5516
      vertex -19.9944 30 20.4719
      vertex -4.7191 30 39.4353
    endloop
  endfacet
  facet normal 0 -1 0
    outer loop
      vertex -13.8045 30 34.4719
      vertex -19.9944 30 20.4719
      vertex -9.5885 30 37.5516
    endloop
  endfacet
  facet normal 0 -1 0
    outer loop
      vertex -17.0797 30 30.4059
      vertex -19.9944 30 20.4719
      vertex -13.8045 30 34.4719
    endloop
  endfacet
  facet normal 0 -1 0
    outer loop
      vertex -19.191 30 25.6308
      vertex -19.9944 30 20.4719
      vertex -17.0797 30 30.4059
    endloop
  endfacet
  facet normal 0 -1 0
    outer loop
      vertex 2.1814 30 17.9406
      vertex 0.5543 30 17.0517
      vertex 19.191 30 14.3692
    endloop
  endfacet
  facet normal 0 -1 0
    outer loop
      vertex -2.1814 30 22.0594
      vertex -19.9944 30 20.4719
      vertex -2.9753 30 20.3839
    endloop
  endfacet
  facet normal 0 -1 0
    outer loop
      vertex 2.6328 30 21.4383
      vertex 2.9753 30 19.6161
      vertex 19.9944 30 19.5281
    endloop
  endfacet
  facet normal 0 -1 0
    outer loop
      vertex 1.2845 30 22.7111
      vertex 2.6328 30 21.4383
      vertex 19.4353 30 24.7191
    endloop
  endfacet
  facet normal 0 -1 0
    outer loop
      vertex 17.5517 30 29.5885
      vertex -0.5543 30 22.9483
      vertex 19.4353 30 24.7191
    endloop
  endfacet
  facet normal 0 -1 0
    outer loop
      vertex 17.5517 30 29.5885
      vertex -19.9944 30 20.4719
      vertex -0.5543 30 22.9483
    endloop
  endfacet
  facet normal 0 -1 0
    outer loop
      vertex -1.2845 30 17.2889
      vertex -2.6328 30 18.5617
      vertex -19.9944 30 20.4719
    endloop
  endfacet
  facet normal 0 -1 0
    outer loop
      vertex 19.4353 30 24.7191
      vertex 2.6328 30 21.4383
      vertex 19.9944 30 19.5281
    endloop
  endfacet
  facet normal 0 -1 0
    outer loop
      vertex 19.9944 30 19.5281
      vertex 2.9753 30 19.6161
      vertex 19.191 30 14.3692
    endloop
  endfacet
  facet normal 0 -1 0
    outer loop
      vertex 2.9753 30 19.6161
      vertex 2.1814 30 17.9406
      vertex 19.191 30 14.3692
    endloop
  endfacet
  facet normal 0 -1 0
    outer loop
      vertex 19.191 30 14.3692
      vertex 0.5543 30 17.0517
      vertex 17.0797 30 9.59408
    endloop
  endfacet
  facet normal 0 -1 0
    outer loop
      vertex 0.5543 30 17.0517
      vertex -1.2845 30 17.2889
      vertex 17.0797 30 9.59408
    endloop
  endfacet
  facet normal 0 -1 0
    outer loop
      vertex -2.1814 30 22.0594
      vertex -0.5543 30 22.9483
      vertex -19.9944 30 20.4719
    endloop
  endfacet
  facet normal 0 -1 0
    outer loop
      vertex -2.6328 30 18.5617
      vertex -2.9753 30 20.3839
      vertex -19.9944 30 20.4719
    endloop
  endfacet
  facet normal 0.127937 0 0.991782
    outer loop
      vertex -0.5543 -30 22.9483
      vertex 1.2845 -30 22.7111
      vertex 1.2845 30 22.7111
    endloop
  endfacet
  facet normal 0.127937 0 0.991782
    outer loop
      vertex -0.5543 30 22.9483
      vertex -0.5543 -30 22.9483
      vertex 1.2845 30 22.7111
    endloop
  endfacet
  facet normal -0.99425 0 -0.107086
    outer loop
      vertex -19.9944 -30 20.4719
      vertex -19.4353 -30 15.2809
      vertex -19.9944 -50 20.4719
    endloop
  endfacet
  facet normal -0.99425 0 -0.107086
    outer loop
      vertex -19.9944 -50 20.4719
      vertex -19.4353 -30 15.2809
      vertex -19.4353 -50 15.2809
    endloop
  endfacet
  facet normal -0.98809 0 0.153876
    outer loop
      vertex -19.191 -50 25.6308
      vertex -19.191 -30 25.6308
      vertex -19.9944 -50 20.4719
    endloop
  endfacet
  facet normal -0.98809 0 0.153876
    outer loop
      vertex -19.9944 -50 20.4719
      vertex -19.191 -30 25.6308
      vertex -19.9944 -30 20.4719
    endloop
  endfacet
  facet normal -0.932647 0 -0.360789
    outer loop
      vertex -19.4353 -30 15.2809
      vertex -17.5516 -30 10.4115
      vertex -19.4353 -50 15.2809
    endloop
  endfacet
  facet normal -0.932647 0 -0.360789
    outer loop
      vertex -19.4353 -50 15.2809
      vertex -17.5516 -30 10.4115
      vertex -17.5516 -50 10.4115
    endloop
  endfacet
  facet normal -0.807502 0 -0.589865
    outer loop
      vertex -17.5516 -30 10.4115
      vertex -14.4719 -30 6.19551
      vertex -17.5516 -50 10.4115
    endloop
  endfacet
  facet normal -0.807502 0 -0.589865
    outer loop
      vertex -17.5516 -50 10.4115
      vertex -14.4719 -30 6.19551
      vertex -14.4719 -50 6.19551
    endloop
  endfacet
  facet normal -0.627311 0 -0.778769
    outer loop
      vertex -14.4719 -30 6.19551
      vertex -10.4059 -30 2.92028
      vertex -14.4719 -50 6.19551
    endloop
  endfacet
  facet normal -0.627311 0 -0.778769
    outer loop
      vertex -14.4719 -50 6.19551
      vertex -10.4059 -30 2.92028
      vertex -10.4059 -50 2.92028
    endloop
  endfacet
  facet normal -0.404379 0 -0.914591
    outer loop
      vertex -10.4059 -30 2.92028
      vertex -5.6308 -30 0.809007
      vertex -10.4059 -50 2.92028
    endloop
  endfacet
  facet normal -0.404379 0 -0.914591
    outer loop
      vertex -10.4059 -50 2.92028
      vertex -5.6308 -30 0.809007
      vertex -5.6308 -50 0.809007
    endloop
  endfacet
  facet normal -0.153883 0 -0.988089
    outer loop
      vertex -5.6308 -30 0.809007
      vertex -0.4719 -30 0.005569
      vertex -5.6308 -50 0.809007
    endloop
  endfacet
  facet normal -0.153883 0 -0.988089
    outer loop
      vertex -5.6308 -50 0.809007
      vertex -0.4719 -30 0.005569
      vertex -0.4719 -50 0.005569
    endloop
  endfacet
  facet normal 0.107096 0 -0.994249
    outer loop
      vertex -0.4719 -30 0.005569
      vertex 4.7191 -30 0.564718
      vertex -0.4719 -50 0.005569
    endloop
  endfacet
  facet normal 0.107096 0 -0.994249
    outer loop
      vertex -0.4719 -50 0.005569
      vertex 4.7191 -30 0.564718
      vertex 4.7191 -50 0.564718
    endloop
  endfacet
  facet normal 0.360778 0 -0.932652
    outer loop
      vertex 4.7191 -30 0.564718
      vertex 9.5885 -30 2.44835
      vertex 4.7191 -50 0.564718
    endloop
  endfacet
  facet normal 0.360778 0 -0.932652
    outer loop
      vertex 4.7191 -50 0.564718
      vertex 9.5885 -30 2.44835
      vertex 9.5885 -50 2.44835
    endloop
  endfacet
  facet normal 0.58987 0 -0.807498
    outer loop
      vertex 9.5885 -30 2.44835
      vertex 13.8045 -30 5.5281
      vertex 9.5885 -50 2.44835
    endloop
  endfacet
  facet normal 0.58987 0 -0.807498
    outer loop
      vertex 9.5885 -50 2.44835
      vertex 13.8045 -30 5.5281
      vertex 13.8045 -50 5.5281
    endloop
  endfacet
  facet normal 0.77877 0 -0.627309
    outer loop
      vertex 13.8045 -50 5.5281
      vertex 13.8045 -30 5.5281
      vertex 17.0797 -30 9.59408
    endloop
  endfacet
  facet normal 0.77877 0 -0.627309
    outer loop
      vertex 17.0797 -50 9.59408
      vertex 13.8045 -50 5.5281
      vertex 17.0797 -30 9.59408
    endloop
  endfacet
  facet normal 0.91459 0 -0.404382
    outer loop
      vertex 17.0797 -50 9.59408
      vertex 17.0797 -30 9.59408
      vertex 19.191 -30 14.3692
    endloop
  endfacet
  facet normal 0.91459 0 -0.404382
    outer loop
      vertex 19.191 -50 14.3692
      vertex 17.0797 -50 9.59408
      vertex 19.191 -30 14.3692
    endloop
  endfacet
  facet normal 0.98809 0 -0.153876
    outer loop
      vertex 19.191 -50 14.3692
      vertex 19.191 -30 14.3692
      vertex 19.9944 -30 19.5281
    endloop
  endfacet
  facet normal 0.98809 0 -0.153876
    outer loop
      vertex 19.9944 -50 19.5281
      vertex 19.191 -50 14.3692
      vertex 19.9944 -30 19.5281
    endloop
  endfacet
  facet normal 0.99425 0 0.107086
    outer loop
      vertex 19.4353 -50 24.7191
      vertex 19.9944 -50 19.5281
      vertex 19.9944 -30 19.5281
    endloop
  endfacet
  facet normal 0.99425 0 0.107086
    outer loop
      vertex 19.4353 -30 24.7191
      vertex 19.4353 -50 24.7191
      vertex 19.9944 -30 19.5281
    endloop
  endfacet
  facet normal 0.932654 0 0.360773
    outer loop
      vertex 17.5517 -50 29.5885
      vertex 19.4353 -50 24.7191
      vertex 19.4353 -30 24.7191
    endloop
  endfacet
  facet normal 0.932654 0 0.360773
    outer loop
      vertex 17.5517 -30 29.5885
      vertex 17.5517 -50 29.5885
      vertex 19.4353 -30 24.7191
    endloop
  endfacet
  facet normal 0.807494 0 0.589876
    outer loop
      vertex 14.4719 -50 33.8045
      vertex 17.5517 -50 29.5885
      vertex 17.5517 -30 29.5885
    endloop
  endfacet
  facet normal 0.807494 0 0.589876
    outer loop
      vertex 14.4719 -30 33.8045
      vertex 14.4719 -50 33.8045
      vertex 17.5517 -30 29.5885
    endloop
  endfacet
  facet normal 0.627308 0 0.778772
    outer loop
      vertex 10.4059 -50 37.0797
      vertex 14.4719 -50 33.8045
      vertex 14.4719 -30 33.8045
    endloop
  endfacet
  facet normal 0.627308 0 0.778772
    outer loop
      vertex 10.4059 -30 37.0797
      vertex 10.4059 -50 37.0797
      vertex 14.4719 -30 33.8045
    endloop
  endfacet
  facet normal 0.404384 0 0.914589
    outer loop
      vertex 5.6308 -50 39.191
      vertex 10.4059 -50 37.0797
      vertex 10.4059 -30 37.0797
    endloop
  endfacet
  facet normal 0.404384 0 0.914589
    outer loop
      vertex 5.6308 -30 39.191
      vertex 5.6308 -50 39.191
      vertex 10.4059 -30 37.0797
    endloop
  endfacet
  facet normal 0.153876 0 0.98809
    outer loop
      vertex 0.4719 -50 39.9944
      vertex 5.6308 -50 39.191
      vertex 5.6308 -30 39.191
    endloop
  endfacet
  facet normal 0.153876 0 0.98809
    outer loop
      vertex 0.4719 -30 39.9944
      vertex 0.4719 -50 39.9944
      vertex 5.6308 -30 39.191
    endloop
  endfacet
  facet normal -0.107086 0 0.99425
    outer loop
      vertex -4.7191 -50 39.4353
      vertex 0.4719 -50 39.9944
      vertex 0.4719 -30 39.9944
    endloop
  endfacet
  facet normal -0.107086 0 0.99425
    outer loop
      vertex -4.7191 -30 39.4353
      vertex -4.7191 -50 39.4353
      vertex 0.4719 -30 39.9944
    endloop
  endfacet
  facet normal -0.360789 0 0.932647
    outer loop
      vertex -9.5885 -50 37.5516
      vertex -4.7191 -50 39.4353
      vertex -4.7191 -30 39.4353
    endloop
  endfacet
  facet normal -0.360789 0 0.932647
    outer loop
      vertex -9.5885 -30 37.5516
      vertex -9.5885 -50 37.5516
      vertex -4.7191 -30 39.4353
    endloop
  endfacet
  facet normal -0.589864 0 0.807503
    outer loop
      vertex -13.8045 -50 34.4719
      vertex -9.5885 -50 37.5516
      vertex -9.5885 -30 37.5516
    endloop
  endfacet
  facet normal -0.589864 0 0.807503
    outer loop
      vertex -13.8045 -30 34.4719
      vertex -13.8045 -50 34.4719
      vertex -9.5885 -30 37.5516
    endloop
  endfacet
  facet normal -0.778772 0 0.627308
    outer loop
      vertex -13.8045 -50 34.4719
      vertex -13.8045 -30 34.4719
      vertex -17.0797 -50 30.4059
    endloop
  endfacet
  facet normal -0.778772 0 0.627308
    outer loop
      vertex -17.0797 -50 30.4059
      vertex -13.8045 -30 34.4719
      vertex -17.0797 -30 30.4059
    endloop
  endfacet
  facet normal -0.914589 0 0.404384
    outer loop
      vertex -17.0797 -50 30.4059
      vertex -17.0797 -30 30.4059
      vertex -19.191 -50 25.6308
    endloop
  endfacet
  facet normal -0.914589 0 0.404384
    outer loop
      vertex -19.191 -50 25.6308
      vertex -17.0797 -30 30.4059
      vertex -19.191 -30 25.6308
    endloop
  endfacet
  facet normal -0.98279 0 -0.184725
    outer loop
      vertex -2.9753 30 20.3839
      vertex -2.6328 30 18.5617
      vertex -2.9753 -30 20.3839
    endloop
  endfacet
  facet normal -0.98279 0 -0.184725
    outer loop
      vertex -2.9753 -30 20.3839
      vertex -2.6328 30 18.5617
      vertex -2.6328 -30 18.5617
    endloop
  endfacet
  facet normal 0.686454 0 0.727173
    outer loop
      vertex 1.2845 -30 22.7111
      vertex 2.6328 -30 21.4383
      vertex 2.6328 30 21.4383
    endloop
  endfacet
  facet normal 0.686454 0 0.727173
    outer loop
      vertex 1.2845 30 22.7111
      vertex 1.2845 -30 22.7111
      vertex 2.6328 30 21.4383
    endloop
  endfacet
  facet normal 0.98279 0 0.184725
    outer loop
      vertex 2.6328 -30 21.4383
      vertex 2.9753 -30 19.6161
      vertex 2.9753 30 19.6161
    endloop
  endfacet
  facet normal 0.98279 0 0.184725
    outer loop
      vertex 2.6328 30 21.4383
      vertex 2.6328 -30 21.4383
      vertex 2.9753 30 19.6161
    endloop
  endfacet
  facet normal 0.903687 0 -0.428193
    outer loop
      vertex 2.1814 -30 17.9406
      vertex 2.1814 30 17.9406
      vertex 2.9753 30 19.6161
    endloop
  endfacet
  facet normal 0.903687 0 -0.428193
    outer loop
      vertex 2.9753 -30 19.6161
      vertex 2.1814 -30 17.9406
      vertex 2.9753 30 19.6161
    endloop
  endfacet
  facet normal 0.47943 0 -0.87758
    outer loop
      vertex 0.5543 30 17.0517
      vertex 2.1814 30 17.9406
      vertex 0.5543 -30 17.0517
    endloop
  endfacet
  facet normal 0.47943 0 -0.87758
    outer loop
      vertex 0.5543 -30 17.0517
      vertex 2.1814 30 17.9406
      vertex 2.1814 -30 17.9406
    endloop
  endfacet
  facet normal -0.127937 0 -0.991782
    outer loop
      vertex -1.2845 30 17.2889
      vertex 0.5543 30 17.0517
      vertex -1.2845 -30 17.2889
    endloop
  endfacet
  facet normal -0.127937 0 -0.991782
    outer loop
      vertex -1.2845 -30 17.2889
      vertex 0.5543 30 17.0517
      vertex 0.5543 -30 17.0517
    endloop
  endfacet
  facet normal -0.686454 0 -0.727173
    outer loop
      vertex -2.6328 30 18.5617
      vertex -1.2845 30 17.2889
      vertex -2.6328 -30 18.5617
    endloop
  endfacet
  facet normal -0.686454 0 -0.727173
    outer loop
      vertex -2.6328 -30 18.5617
      vertex -1.2845 30 17.2889
      vertex -1.2845 -30 17.2889
    endloop
  endfacet
  facet normal -0.98809 0 0.153876
    outer loop
      vertex -19.191 30 25.6308
      vertex -19.191 50 25.6308
      vertex -19.9944 30 20.4719
    endloop
  endfacet
  facet normal -0.98809 0 0.153876
    outer loop
      vertex -19.9944 30 20.4719
      vertex -19.191 50 25.6308
      vertex -19.9944 50 20.4719
    endloop
  endfacet
  facet normal -0.99425 0 -0.107086
    outer loop
      vertex -19.9944 50 20.4719
      vertex -19.4353 50 15.2809
      vertex -19.9944 30 20.4719
    endloop
  endfacet
  facet normal -0.99425 0 -0.107086
    outer loop
      vertex -19.9944 30 20.4719
      vertex -19.4353 50 15.2809
      vertex -19.4353 30 15.2809
    endloop
  endfacet
  facet normal -0.914589 0 0.404384
    outer loop
      vertex -17.0797 30 30.4059
      vertex -17.0797 50 30.4059
      vertex -19.191 30 25.6308
    endloop
  endfacet
  facet normal -0.914589 0 0.404384
    outer loop
      vertex -19.191 30 25.6308
      vertex -17.0797 50 30.4059
      vertex -19.191 50 25.6308
    endloop
  endfacet
  facet normal -0.778772 0 0.627308
    outer loop
      vertex -13.8045 30 34.4719
      vertex -13.8045 50 34.4719
      vertex -17.0797 30 30.4059
    endloop
  endfacet
  facet normal -0.778772 0 0.627308
    outer loop
      vertex -17.0797 30 30.4059
      vertex -13.8045 50 34.4719
      vertex -17.0797 50 30.4059
    endloop
  endfacet
  facet normal -0.589864 0 0.807503
    outer loop
      vertex -13.8045 30 34.4719
      vertex -9.5885 30 37.5516
      vertex -9.5885 50 37.5516
    endloop
  endfacet
  facet normal -0.589864 0 0.807503
    outer loop
      vertex -13.8045 50 34.4719
      vertex -13.8045 30 34.4719
      vertex -9.5885 50 37.5516
    endloop
  endfacet
  facet normal -0.360789 0 0.932647
    outer loop
      vertex -9.5885 30 37.5516
      vertex -4.7191 30 39.4353
      vertex -4.7191 50 39.4353
    endloop
  endfacet
  facet normal -0.360789 0 0.932647
    outer loop
      vertex -9.5885 50 37.5516
      vertex -9.5885 30 37.5516
      vertex -4.7191 50 39.4353
    endloop
  endfacet
  facet normal -0.107086 0 0.99425
    outer loop
      vertex -4.7191 30 39.4353
      vertex 0.4719 30 39.9944
      vertex 0.4719 50 39.9944
    endloop
  endfacet
  facet normal -0.107086 0 0.99425
    outer loop
      vertex -4.7191 50 39.4353
      vertex -4.7191 30 39.4353
      vertex 0.4719 50 39.9944
    endloop
  endfacet
  facet normal 0.153876 0 0.98809
    outer loop
      vertex 0.4719 30 39.9944
      vertex 5.6308 30 39.191
      vertex 5.6308 50 39.191
    endloop
  endfacet
  facet normal 0.153876 0 0.98809
    outer loop
      vertex 0.4719 50 39.9944
      vertex 0.4719 30 39.9944
      vertex 5.6308 50 39.191
    endloop
  endfacet
  facet normal 0.404384 0 0.914589
    outer loop
      vertex 5.6308 30 39.191
      vertex 10.4059 30 37.0797
      vertex 10.4059 50 37.0797
    endloop
  endfacet
  facet normal 0.404384 0 0.914589
    outer loop
      vertex 5.6308 50 39.191
      vertex 5.6308 30 39.191
      vertex 10.4059 50 37.0797
    endloop
  endfacet
  facet normal 0.627308 0 0.778772
    outer loop
      vertex 10.4059 30 37.0797
      vertex 14.4719 30 33.8045
      vertex 14.4719 50 33.8045
    endloop
  endfacet
  facet normal 0.627308 0 0.778772
    outer loop
      vertex 10.4059 50 37.0797
      vertex 10.4059 30 37.0797
      vertex 14.4719 50 33.8045
    endloop
  endfacet
  facet normal 0.807494 0 0.589876
    outer loop
      vertex 14.4719 30 33.8045
      vertex 17.5517 30 29.5885
      vertex 17.5517 50 29.5885
    endloop
  endfacet
  facet normal 0.807494 0 0.589876
    outer loop
      vertex 14.4719 50 33.8045
      vertex 14.4719 30 33.8045
      vertex 17.5517 50 29.5885
    endloop
  endfacet
  facet normal 0.932654 0 0.360773
    outer loop
      vertex 17.5517 30 29.5885
      vertex 19.4353 30 24.7191
      vertex 19.4353 50 24.7191
    endloop
  endfacet
  facet normal 0.932654 0 0.360773
    outer loop
      vertex 17.5517 50 29.5885
      vertex 17.5517 30 29.5885
      vertex 19.4353 50 24.7191
    endloop
  endfacet
  facet normal 0.99425 0 0.107086
    outer loop
      vertex 19.4353 30 24.7191
      vertex 19.9944 30 19.5281
      vertex 19.9944 50 19.5281
    endloop
  endfacet
  facet normal 0.99425 0 0.107086
    outer loop
      vertex 19.4353 50 24.7191
      vertex 19.4353 30 24.7191
      vertex 19.9944 50 19.5281
    endloop
  endfacet
  facet normal 0.98809 0 -0.153876
    outer loop
      vertex 19.191 30 14.3692
      vertex 19.191 50 14.3692
      vertex 19.9944 50 19.5281
    endloop
  endfacet
  facet normal 0.98809 0 -0.153876
    outer loop
      vertex 19.9944 30 19.5281
      vertex 19.191 30 14.3692
      vertex 19.9944 50 19.5281
    endloop
  endfacet
  facet normal 0.91459 0 -0.404382
    outer loop
      vertex 17.0797 30 9.59408
      vertex 17.0797 50 9.59408
      vertex 19.191 50 14.3692
    endloop
  endfacet
  facet normal 0.91459 0 -0.404382
    outer loop
      vertex 19.191 30 14.3692
      vertex 17.0797 30 9.59408
      vertex 19.191 50 14.3692
    endloop
  endfacet
  facet normal 0.77877 0 -0.627309
    outer loop
      vertex 13.8045 30 5.5281
      vertex 13.8045 50 5.5281
      vertex 17.0797 50 9.59408
    endloop
  endfacet
  facet normal 0.77877 0 -0.627309
    outer loop
      vertex 17.0797 30 9.59408
      vertex 13.8045 30 5.5281
      vertex 17.0797 50 9.59408
    endloop
  endfacet
  facet normal 0.58987 0 -0.807498
    outer loop
      vertex 9.5885 50 2.44835
      vertex 13.8045 50 5.5281
      vertex 9.5885 30 2.44835
    endloop
  endfacet
  facet normal 0.58987 0 -0.807498
    outer loop
      vertex 9.5885 30 2.44835
      vertex 13.8045 50 5.5281
      vertex 13.8045 30 5.5281
    endloop
  endfacet
  facet normal 0.360778 0 -0.932652
    outer loop
      vertex 4.7191 50 0.564718
      vertex 9.5885 50 2.44835
      vertex 4.7191 30 0.564718
    endloop
  endfacet
  facet normal 0.360778 0 -0.932652
    outer loop
      vertex 4.7191 30 0.564718
      vertex 9.5885 50 2.44835
      vertex 9.5885 30 2.44835
    endloop
  endfacet
  facet normal 0.107096 0 -0.994249
    outer loop
      vertex -0.4719 50 0.005569
      vertex 4.7191 50 0.564718
      vertex -0.4719 30 0.005569
    endloop
  endfacet
  facet normal 0.107096 0 -0.994249
    outer loop
      vertex -0.4719 30 0.005569
      vertex 4.7191 50 0.564718
      vertex 4.7191 30 0.564718
    endloop
  endfacet
  facet normal -0.153883 0 -0.988089
    outer loop
      vertex -5.6308 50 0.809007
      vertex -0.4719 50 0.005569
      vertex -5.6308 30 0.809007
    endloop
  endfacet
  facet normal -0.153883 0 -0.988089
    outer loop
      vertex -5.6308 30 0.809007
      vertex -0.4719 50 0.005569
      vertex -0.4719 30 0.005569
    endloop
  endfacet
  facet normal -0.404379 0 -0.914591
    outer loop
      vertex -10.4059 50 2.92028
      vertex -5.6308 50 0.809007
      vertex -10.4059 30 2.92028
    endloop
  endfacet
  facet normal -0.404379 0 -0.914591
    outer loop
      vertex -10.4059 30 2.92028
      vertex -5.6308 50 0.809007
      vertex -5.6308 30 0.809007
    endloop
  endfacet
  facet normal -0.627311 0 -0.778769
    outer loop
      vertex -14.4719 50 6.19551
      vertex -10.4059 50 2.92028
      vertex -14.4719 30 6.19551
    endloop
  endfacet
  facet normal -0.627311 0 -0.778769
    outer loop
      vertex -14.4719 30 6.19551
      vertex -10.4059 50 2.92028
      vertex -10.4059 30 2.92028
    endloop
  endfacet
  facet normal -0.807502 0 -0.589865
    outer loop
      vertex -17.5516 50 10.4115
      vertex -14.4719 50 6.19551
      vertex -17.5516 30 10.4115
    endloop
  endfacet
  facet normal -0.807502 0 -0.589865
    outer loop
      vertex -17.5516 30 10.4115
      vertex -14.4719 50 6.19551
      vertex -14.4719 30 6.19551
    endloop
  endfacet
  facet normal -0.932647 0 -0.360789
    outer loop
      vertex -19.4353 50 15.2809
      vertex -17.5516 50 10.4115
      vertex -19.4353 30 15.2809
    endloop
  endfacet
  facet normal -0.932647 0 -0.360789
    outer loop
      vertex -19.4353 30 15.2809
      vertex -17.5516 50 10.4115
      vertex -17.5516 30 10.4115
    endloop
  endfacet
  facet normal 0 -1 0
    outer loop
      vertex -19.9944 -50 20.4719
      vertex -19.4353 -50 15.2809
      vertex -17.5516 -50 10.4115
    endloop
  endfacet
  facet normal 0 -1 0
    outer loop
      vertex -10.4059 -50 2.92028
      vertex -19.9944 -50 20.4719
      vertex -14.4719 -50 6.19551
    endloop
  endfacet
  facet normal 0 -1 0
    outer loop
      vertex -14.4719 -50 6.19551
      vertex -19.9944 -50 20.4719
      vertex -17.5516 -50 10.4115
    endloop
  endfacet
  facet normal 0 -1 0
    outer loop
      vertex -5.6308 -50 0.809007
      vertex -19.9944 -50 20.4719
      vertex -10.4059 -50 2.92028
    endloop
  endfacet
  facet normal 0 -1 0
    outer loop
      vertex -0.4719 -50 0.005569
      vertex -19.9944 -50 20.4719
      vertex -5.6308 -50 0.809007
    endloop
  endfacet
  facet normal 0 -1 0
    outer loop
      vertex 4.7191 -50 0.564718
      vertex -19.9944 -50 20.4719
      vertex -0.4719 -50 0.005569
    endloop
  endfacet
  facet normal 0 -1 0
    outer loop
      vertex 9.5885 -50 2.44835
      vertex -19.9944 -50 20.4719
      vertex 4.7191 -50 0.564718
    endloop
  endfacet
  facet normal 0 -1 0
    outer loop
      vertex 13.8045 -50 5.5281
      vertex -19.9944 -50 20.4719
      vertex 9.5885 -50 2.44835
    endloop
  endfacet
  facet normal 0 -1 0
    outer loop
      vertex 17.0797 -50 9.59408
      vertex -19.9944 -50 20.4719
      vertex 13.8045 -50 5.5281
    endloop
  endfacet
  facet normal 0 -1 0
    outer loop
      vertex 19.191 -50 14.3692
      vertex -19.9944 -50 20.4719
      vertex 17.0797 -50 9.59408
    endloop
  endfacet
  facet normal 0 -1 0
    outer loop
      vertex 19.9944 -50 19.5281
      vertex -19.9944 -50 20.4719
      vertex 19.191 -50 14.3692
    endloop
  endfacet
  facet normal 0 -1 0
    outer loop
      vertex 19.4353 -50 24.7191
      vertex -19.9944 -50 20.4719
      vertex 19.9944 -50 19.5281
    endloop
  endfacet
  facet normal 0 -1 0
    outer loop
      vertex 17.5517 -50 29.5885
      vertex -19.9944 -50 20.4719
      vertex 19.4353 -50 24.7191
    endloop
  endfacet
  facet normal 0 -1 0
    outer loop
      vertex 14.4719 -50 33.8045
      vertex -19.9944 -50 20.4719
      vertex 17.5517 -50 29.5885
    endloop
  endfacet
  facet normal 0 -1 0
    outer loop
      vertex 10.4059 -50 37.0797
      vertex -19.9944 -50 20.4719
      vertex 14.4719 -50 33.8045
    endloop
  endfacet
  facet normal 0 -1 0
    outer loop
      vertex 5.6308 -50 39.191
      vertex -19.9944 -50 20.4719
      vertex 10.4059 -50 37.0797
    endloop
  endfacet
  facet normal 0 -1 0
    outer loop
      vertex 0.4719 -50 39.9944
      vertex -19.9944 -50 20.4719
      vertex 5.6308 -50 39.191
    endloop
  endfacet
  facet normal 0 -1 0
    outer loop
      vertex -4.7191 -50 39.4353
      vertex -19.9944 -50 20.4719
      vertex 0.4719 -50 39.9944
    endloop
  endfacet
  facet normal 0 -1 0
    outer loop
      vertex -9.5885 -50 37.5516
      vertex -19.9944 -50 20.4719
      vertex -4.7191 -50 39.4353
    endloop
  endfacet
  facet normal 0 -1 0
    outer loop
      vertex -13.8045 -50 34.4719
      vertex -19.9944 -50 20.4719
      vertex -9.5885 -50 37.5516
    endloop
  endfacet
  facet normal 0 -1 0
    outer loop
      vertex -17.0797 -50 30.4059
      vertex -19.9944 -50 20.4719
      vertex -13.8045 -50 34.4719
    endloop
  endfacet
  facet normal 0 -1 0
    outer loop
      vertex -19.191 -50 25.6308
      vertex -19.9944 -50 20.4719
      vertex -17.0797 -50 30.4059
    endloop
  endfacet
  facet normal 0 1 0
    outer loop
      vertex -19.191 50 25.6308
      vertex -17.0797 50 30.4059
      vertex -19.9944 50 20.4719
    endloop
  endfacet
  facet normal 0 1 0
    outer loop
      vertex -19.9944 50 20.4719
      vertex -17.0797 50 30.4059
      vertex -13.8045 50 34.4719
    endloop
  endfacet
  facet normal 0 1 0
    outer loop
      vertex -19.9944 50 20.4719
      vertex -13.8045 50 34.4719
      vertex -9.5885 50 37.5516
    endloop
  endfacet
  facet normal 0 1 0
    outer loop
      vertex -19.9944 50 20.4719
      vertex -9.5885 50 37.5516
      vertex -4.7191 50 39.4353
    endloop
  endfacet
  facet normal 0 1 0
    outer loop
      vertex -19.9944 50 20.4719
      vertex -4.7191 50 39.4353
      vertex 0.4719 50 39.9944
    endloop
  endfacet
  facet normal 0 1 0
    outer loop
      vertex -19.9944 50 20.4719
      vertex 0.4719 50 39.9944
      vertex 5.6308 50 39.191
    endloop
  endfacet
  facet normal 0 1 0
    outer loop
      vertex -19.9944 50 20.4719
      vertex 5.6308 50 39.191
      vertex 10.4059 50 37.0797
    endloop
  endfacet
  facet normal 0 1 0
    outer loop
      vertex -19.9944 50 20.4719
      vertex 10.4059 50 37.0797
      vertex 14.4719 50 33.8045
    endloop
  endfacet
  facet normal 0 1 0
    outer loop
      vertex -19.9944 50 20.4719
      vertex 14.4719 50 33.8045
      vertex 17.5517 50 29.5885
    endloop
  endfacet
  facet normal 0 1 0
    outer loop
      vertex -19.9944 50 20.4719
      vertex 17.5517 50 29.5885
      vertex 19.4353 50 24.7191
    endloop
  endfacet
  facet normal 0 1 0
    outer loop
      vertex -19.9944 50 20.4719
      vertex 19.4353 50 24.7191
      vertex 19.9944 50 19.5281
    endloop
  endfacet
  facet normal 0 1 0
    outer loop
      vertex -19.9944 50 20.4719
      vertex 19.9944 50 19.5281
      vertex 19.191 50 14.3692
    endloop
  endfacet
  facet normal 0 1 0
    outer loop
      vertex -19.9944 50 20.4719
      vertex 19.191 50 14.3692
      vertex 17.0797 50 9.59408
    endloop
  endfacet
  facet normal 0 1 0
    outer loop
      vertex -19.9944 50 20.4719
      vertex 17.0797 50 9.59408
      vertex 13.8045 50 5.5281
    endloop
  endfacet
  facet normal 0 1 0
    outer loop
      vertex -19.9944 50 20.4719
      vertex 13.8045 50 5.5281
      vertex 9.5885 50 2.44835
    endloop
  endfacet
  facet normal 0 1 0
    outer loop
      vertex -19.9944 50 20.4719
      vertex 9.5885 50 2.44835
      vertex 4.7191 50 0.564718
    endloop
  endfacet
  facet normal 0 1 0
    outer loop
      vertex -19.9944 50 20.4719
      vertex 4.7191 50 0.564718
      vertex -0.4719 50 0.005569
    endloop
  endfacet
  facet normal 0 1 0
    outer loop
      vertex -19.9944 50 20.4719
      vertex -0.4719 50 0.005569
      vertex -5.6308 50 0.809007
    endloop
  endfacet
  facet normal 0 1 0
    outer loop
      vertex -19.9944 50 20.4719
      vertex -5.6308 50 0.809007
      vertex -10.4059 50 2.92028
    endloop
  endfacet
  facet normal 0 1 0
    outer loop
      vertex -19.9944 50 20.4719
      vertex -10.4059 50 2.92028
      vertex -14.4719 50 6.19551
    endloop
  endfacet
  facet normal 0 1 0
    outer loop
      vertex -19.9944 50 20.4719
      vertex -14.4719 50 6.19551
      vertex -17.5516 50 10.4115
    endloop
  endfacet
  facet normal 0 1 0
    outer loop
      vertex -19.9944 50 20.4719
      vertex -17.5516 50 10.4115
      vertex -19.4353 50 15.2809
    endloop
  endfacet
  facet normal 0 -1 0
    outer loop
      vertex 0 -20 20
      vertex 160 -20 20
      vertex 160 -20 50
    endloop
  endfacet
  facet normal 0 -1 0
    outer loop
      vertex 0 -20 50
      vertex 0 -20 20
      vertex 160 -20 50
    endloop
  endfacet
  facet normal 1 0 0
    outer loop
      vertex 160 -20 20
      vertex 160 20 20
      vertex 160 20 50
    endloop
  endfacet
  facet normal 1 0 0
    outer loop
      vertex 160 -20 50
      vertex 160 -20 20
      vertex 160 20 50
    endloop
  endfacet
  facet normal 0 0 -1
    outer loop
      vertex 0 20 20
      vertex 160 20 20
      vertex 0 -20 20
    endloop
  endfacet
  facet normal 0 0 -1
    outer loop
      vertex 0 -20 20
      vertex 160 20 20
      vertex 160 -20 20
    endloop
  endfacet
  facet normal -1 0 0
    outer loop
      vertex 0 -20 50
      vertex 0 20 50
      vertex 0 -20 20
    endloop
  endfacet
  facet normal -1 0 0
    outer loop
      vertex 0 -20 20
      vertex 0 20 50
      vertex 0 20 20
    endloop
  endfacet
  facet normal 0 0 -1
    outer loop
      vertex 160 -20 50
      vertex 175 50 50
      vertex 175 -50 50
    endloop
  endfacet
  facet normal 0 0 -1
    outer loop
      vertex -15 50 50
      vertex 0 -20 50
      vertex -15 -50 50
    endloop
  endfacet
  facet normal 0 0 -1
    outer loop
      vertex 160 20 50
      vertex 175 50 50
      vertex 160 -20 50
    endloop
  endfacet
  facet normal 0 0 -1
    outer loop
      vertex -15 -50 50
      vertex 160 -20 50
      vertex 175 -50 50
    endloop
  endfacet
  facet normal 0 0 -1
    outer loop
      vertex 0 20 50
      vertex 175 50 50
      vertex 160 20 50
    endloop
  endfacet
  facet normal 0 0 -1
    outer loop
      vertex -15 50 50
      vertex 175 50 50
      vertex 0 20 50
    endloop
  endfacet
  facet normal 0 0 -1
    outer loop
      vertex -15 50 50
      vertex 0 20 50
      vertex 0 -20 50
    endloop
  endfacet
  facet normal 0 0 -1
    outer loop
      vertex 160 -20 50
      vertex -15 -50 50
      vertex 0 -20 50
    endloop
  endfacet
  facet normal 0 1 0
    outer loop
      vertex 0 20 50
      vertex 160 20 50
      vertex 0 20 20
    endloop
  endfacet
  facet normal 0 1 0
    outer loop
      vertex 0 20 20
      vertex 160 20 50
      vertex 160 20 20
    endloop
  endfacet
  facet normal 0 -1 0
    outer loop
      vertex -15 -50 50
      vertex 175 -50 50
      vertex 175 -50 90
    endloop
  endfacet
  facet normal 0 -1 0
    outer loop
      vertex -15 -50 90
      vertex -15 -50 50
      vertex 175 -50 90
    endloop
  endfacet
  facet normal -1 0 0
    outer loop
      vertex -15 -50 90
      vertex -15 50 90
      vertex -15 -50 50
    endloop
  endfacet
  facet normal -1 0 0
    outer loop
      vertex -15 -50 50
      vertex -15 50 90
      vertex -15 50 50
    endloop
  endfacet
  facet normal 1 0 0
    outer loop
      vertex 175 -50 50
      vertex 175 50 50
      vertex 175 50 90
    endloop
  endfacet
  facet normal 1 0 0
    outer loop
      vertex 175 -50 90
      vertex 175 -50 50
      vertex 175 50 90
    endloop
  endfacet
  facet normal 0 1 0
    outer loop
      vertex -15 50 90
      vertex 175 50 90
      vertex -15 50 50
    endloop
  endfacet
  facet normal 0 1 0
    outer loop
      vertex -15 50 50
      vertex 175 50 90
      vertex 175 50 50
    endloop
  endfacet
  facet normal 0 0 1
    outer loop
      vertex 133.118 -15.2181 90
      vertex 175 -50 90
      vertex 175 50 90
    endloop
  endfacet
  facet normal 0 0 1
    outer loop
      vertex -15 50 90
      vertex -15 -50 90
      vertex 175 50 90
    endloop
  endfacet
  facet normal 0 0 1
    outer loop
      vertex -15 -50 90
      vertex 123.971 -17.3058 90
      vertex 175 50 90
    endloop
  endfacet
  facet normal 0 0 1
    outer loop
      vertex -15 -50 90
      vertex 123.377 -19.9091 90
      vertex 123.971 -17.3058 90
    endloop
  endfacet
  facet normal 0 0 1
    outer loop
      vertex 123.971 -17.3058 90
      vertex 125.636 -15.2181 90
      vertex 175 50 90
    endloop
  endfacet
  facet normal 0 0 1
    outer loop
      vertex 128.042 -14.0595 90
      vertex 130.712 -14.0595 90
      vertex 175 50 90
    endloop
  endfacet
  facet normal 0 0 1
    outer loop
      vertex 133.118 -24.6 90
      vertex 130.712 -25.7586 90
      vertex 175 -50 90
    endloop
  endfacet
  facet normal 0 0 1
    outer loop
      vertex 130.712 -14.0595 90
      vertex 133.118 -15.2181 90
      vertex 175 50 90
    endloop
  endfacet
  facet normal 0 0 1
    outer loop
      vertex 134.783 -17.3058 90
      vertex 175 -50 90
      vertex 133.118 -15.2181 90
    endloop
  endfacet
  facet normal 0 0 1
    outer loop
      vertex 134.783 -22.5124 90
      vertex 175 -50 90
      vertex 135.377 -19.9091 90
    endloop
  endfacet
  facet normal 0 0 1
    outer loop
      vertex 133.118 -24.6 90
      vertex 175 -50 90
      vertex 134.783 -22.5124 90
    endloop
  endfacet
  facet normal 0 0 1
    outer loop
      vertex -15 -50 90
      vertex 175 -50 90
      vertex 130.712 -25.7586 90
    endloop
  endfacet
  facet normal 0 0 1
    outer loop
      vertex -15 -50 90
      vertex 130.712 -25.7586 90
      vertex 128.042 -25.7586 90
    endloop
  endfacet
  facet normal 0 0 1
    outer loop
      vertex -15 -50 90
      vertex 128.042 -25.7586 90
      vertex 125.636 -24.6 90
    endloop
  endfacet
  facet normal 0 0 1
    outer loop
      vertex -15 -50 90
      vertex 123.971 -22.5124 90
      vertex 123.377 -19.9091 90
    endloop
  endfacet
  facet normal 0 0 1
    outer loop
      vertex -15 -50 90
      vertex 125.636 -24.6 90
      vertex 123.971 -22.5124 90
    endloop
  endfacet
  facet normal 0 0 1
    outer loop
      vertex 125.636 -15.2181 90
      vertex 128.042 -14.0595 90
      vertex 175 50 90
    endloop
  endfacet
  facet normal 0 0 1
    outer loop
      vertex 134.783 -17.3058 90
      vertex 135.377 -19.9091 90
      vertex 175 -50 90
    endloop
  endfacet
  facet normal -0.974927 -0.222526 0
    outer loop
      vertex 123.971 -22.5124 90
      vertex 123.971 -22.5124 150
      vertex 123.377 -19.9091 90
    endloop
  endfacet
  facet normal -0.974927 -0.222526 0
    outer loop
      vertex 123.377 -19.9091 90
      vertex 123.971 -22.5124 150
      vertex 123.377 -19.9091 150
    endloop
  endfacet
  facet normal -0.974927 0.222526 0
    outer loop
      vertex 123.377 -19.9091 150
      vertex 123.971 -17.3058 150
      vertex 123.377 -19.9091 90
    endloop
  endfacet
  facet normal -0.974927 0.222526 0
    outer loop
      vertex 123.377 -19.9091 90
      vertex 123.971 -17.3058 150
      vertex 123.971 -17.3058 90
    endloop
  endfacet
  facet normal -0.781814 -0.623511 0
    outer loop
      vertex 125.636 -24.6 90
      vertex 125.636 -24.6 150
      vertex 123.971 -22.5124 90
    endloop
  endfacet
  facet normal -0.781814 -0.623511 0
    outer loop
      vertex 123.971 -22.5124 90
      vertex 125.636 -24.6 150
      vertex 123.971 -22.5124 150
    endloop
  endfacet
  facet normal -0.433892 -0.900965 0
    outer loop
      vertex 125.636 -24.6 90
      vertex 128.042 -25.7586 90
      vertex 128.042 -25.7586 150
    endloop
  endfacet
  facet normal -0.433892 -0.900965 0
    outer loop
      vertex 125.636 -24.6 150
      vertex 125.636 -24.6 90
      vertex 128.042 -25.7586 150
    endloop
  endfacet
  facet normal 0 -1 0
    outer loop
      vertex 128.042 -25.7586 90
      vertex 130.712 -25.7586 90
      vertex 130.712 -25.7586 150
    endloop
  endfacet
  facet normal 0 -1 0
    outer loop
      vertex 128.042 -25.7586 150
      vertex 128.042 -25.7586 90
      vertex 130.712 -25.7586 150
    endloop
  endfacet
  facet normal 0.433892 -0.900965 0
    outer loop
      vertex 130.712 -25.7586 90
      vertex 133.118 -24.6 90
      vertex 133.118 -24.6 150
    endloop
  endfacet
  facet normal 0.433892 -0.900965 0
    outer loop
      vertex 130.712 -25.7586 150
      vertex 130.712 -25.7586 90
      vertex 133.118 -24.6 150
    endloop
  endfacet
  facet normal 0.781814 -0.623511 0
    outer loop
      vertex 133.118 -24.6 90
      vertex 134.783 -22.5124 90
      vertex 134.783 -22.5124 150
    endloop
  endfacet
  facet normal 0.781814 -0.623511 0
    outer loop
      vertex 133.118 -24.6 150
      vertex 133.118 -24.6 90
      vertex 134.783 -22.5124 150
    endloop
  endfacet
  facet normal 0.974927 -0.222526 0
    outer loop
      vertex 134.783 -22.5124 90
      vertex 135.377 -19.9091 90
      vertex 135.377 -19.9091 150
    endloop
  endfacet
  facet normal 0.974927 -0.222526 0
    outer loop
      vertex 134.783 -22.5124 150
      vertex 134.783 -22.5124 90
      vertex 135.377 -19.9091 150
    endloop
  endfacet
  facet normal 0.974927 0.222526 0
    outer loop
      vertex 134.783 -17.3058 90
      vertex 134.783 -17.3058 150
      vertex 135.377 -19.9091 150
    endloop
  endfacet
  facet normal 0.974927 0.222526 0
    outer loop
      vertex 135.377 -19.9091 90
      vertex 134.783 -17.3058 90
      vertex 135.377 -19.9091 150
    endloop
  endfacet
  facet normal 0.781829 0.623493 0
    outer loop
      vertex 133.118 -15.2181 90
      vertex 133.118 -15.2181 150
      vertex 134.783 -17.3058 150
    endloop
  endfacet
  facet normal 0.781829 0.623493 0
    outer loop
      vertex 134.783 -17.3058 90
      vertex 133.118 -15.2181 90
      vertex 134.783 -17.3058 150
    endloop
  endfacet
  facet normal 0.433892 0.900965 0
    outer loop
      vertex 130.712 -14.0595 150
      vertex 133.118 -15.2181 150
      vertex 130.712 -14.0595 90
    endloop
  endfacet
  facet normal 0.433892 0.900965 0
    outer loop
      vertex 130.712 -14.0595 90
      vertex 133.118 -15.2181 150
      vertex 133.118 -15.2181 90
    endloop
  endfacet
  facet normal 0 1 0
    outer loop
      vertex 128.042 -14.0595 150
      vertex 130.712 -14.0595 150
      vertex 128.042 -14.0595 90
    endloop
  endfacet
  facet normal 0 1 0
    outer loop
      vertex 128.042 -14.0595 90
      vertex 130.712 -14.0595 150
      vertex 130.712 -14.0595 90
    endloop
  endfacet
  facet normal -0.433892 0.900965 0
    outer loop
      vertex 125.636 -15.2181 150
      vertex 128.042 -14.0595 150
      vertex 125.636 -15.2181 90
    endloop
  endfacet
  facet normal -0.433892 0.900965 0
    outer loop
      vertex 125.636 -15.2181 90
      vertex 128.042 -14.0595 150
      vertex 128.042 -14.0595 90
    endloop
  endfacet
  facet normal -0.781829 0.623493 0
    outer loop
      vertex 123.971 -17.3058 150
      vertex 125.636 -15.2181 150
      vertex 123.971 -17.3058 90
    endloop
  endfacet
  facet normal -0.781829 0.623493 0
    outer loop
      vertex 123.971 -17.3058 90
      vertex 125.636 -15.2181 150
      vertex 125.636 -15.2181 90
    endloop
  endfacet
  facet normal 0 0 -1
    outer loop
      vertex 135.377 -19.9091 150
      vertex 137.643 -1.16043 150
      vertex 137.643 -39.2828 150
    endloop
  endfacet
  facet normal 0 0 -1
    outer loop
      vertex 121.586 -1.16043 150
      vertex 123.377 -19.9091 150
      vertex 121.586 -39.2828 150
    endloop
  endfacet
  facet normal 0 0 -1
    outer loop
      vertex 125.636 -15.2181 150
      vertex 137.643 -1.16043 150
      vertex 128.042 -14.0595 150
    endloop
  endfacet
  facet normal 0 0 -1
    outer loop
      vertex 123.377 -19.9091 150
      vertex 123.971 -22.5124 150
      vertex 121.586 -39.2828 150
    endloop
  endfacet
  facet normal 0 0 -1
    outer loop
      vertex 128.042 -14.0595 150
      vertex 137.643 -1.16043 150
      vertex 130.712 -14.0595 150
    endloop
  endfacet
  facet normal 0 0 -1
    outer loop
      vertex 123.971 -22.5124 150
      vertex 125.636 -24.6 150
      vertex 121.586 -39.2828 150
    endloop
  endfacet
  facet normal 0 0 -1
    outer loop
      vertex 134.783 -17.3058 150
      vertex 137.643 -1.16043 150
      vertex 135.377 -19.9091 150
    endloop
  endfacet
  facet normal 0 0 -1
    outer loop
      vertex 121.586 -39.2828 150
      vertex 128.042 -25.7586 150
      vertex 137.643 -39.2828 150
    endloop
  endfacet
  facet normal 0 0 -1
    outer loop
      vertex 130.712 -14.0595 150
      vertex 137.643 -1.16043 150
      vertex 133.118 -15.2181 150
    endloop
  endfacet
  facet normal 0 0 -1
    outer loop
      vertex 128.042 -25.7586 150
      vertex 130.712 -25.7586 150
      vertex 137.643 -39.2828 150
    endloop
  endfacet
  facet normal 0 0 -1
    outer loop
      vertex 130.712 -25.7586 150
      vertex 133.118 -24.6 150
      vertex 137.643 -39.2828 150
    endloop
  endfacet
  facet normal 0 0 -1
    outer loop
      vertex 133.118 -15.2181 150
      vertex 137.643 -1.16043 150
      vertex 134.783 -17.3058 150
    endloop
  endfacet
  facet normal 0 0 -1
    outer loop
      vertex 133.118 -24.6 150
      vertex 134.783 -22.5124 150
      vertex 137.643 -39.2828 150
    endloop
  endfacet
  facet normal 0 0 -1
    outer loop
      vertex 134.783 -22.5124 150
      vertex 135.377 -19.9091 150
      vertex 137.643 -39.2828 150
    endloop
  endfacet
  facet normal 0 0 -1
    outer loop
      vertex 121.586 -1.16043 150
      vertex 137.643 -1.16043 150
      vertex 125.636 -15.2181 150
    endloop
  endfacet
  facet normal 0 0 -1
    outer loop
      vertex 121.586 -1.16043 150
      vertex 125.636 -15.2181 150
      vertex 123.971 -17.3058 150
    endloop
  endfacet
  facet normal 0 0 -1
    outer loop
      vertex 121.586 -1.16043 150
      vertex 123.971 -17.3058 150
      vertex 123.377 -19.9091 150
    endloop
  endfacet
  facet normal 0 0 -1
    outer loop
      vertex 128.042 -25.7586 150
      vertex 121.586 -39.2828 150
      vertex 125.636 -24.6 150
    endloop
  endfacet
  facet normal 0 -1 0
    outer loop
      vertex 121.586 -39.2828 150
      vertex 137.643 -39.2828 150
      vertex 137.643 -39.2828 170
    endloop
  endfacet
  facet normal 0 -1 0
    outer loop
      vertex 121.586 -39.2828 170
      vertex 121.586 -39.2828 150
      vertex 137.643 -39.2828 170
    endloop
  endfacet
  facet normal -1 0 0
    outer loop
      vertex 121.586 -39.2828 170
      vertex 121.586 -1.16043 170
      vertex 121.586 -39.2828 150
    endloop
  endfacet
  facet normal -1 0 0
    outer loop
      vertex 121.586 -39.2828 150
      vertex 121.586 -1.16043 170
      vertex 121.586 -1.16043 150
    endloop
  endfacet
  facet normal 1 0 0
    outer loop
      vertex 137.643 -39.2828 150
      vertex 137.643 -1.16043 150
      vertex 137.643 -1.16043 170
    endloop
  endfacet
  facet normal 1 0 0
    outer loop
      vertex 137.643 -39.2828 170
      vertex 137.643 -39.2828 150
      vertex 137.643 -1.16043 170
    endloop
  endfacet
  facet normal 0 1 0
    outer loop
      vertex 121.586 -1.16043 170
      vertex 137.643 -1.16043 170
      vertex 121.586 -1.16043 150
    endloop
  endfacet
  facet normal 0 1 0
    outer loop
      vertex 121.586 -1.16043 150
      vertex 137.643 -1.16043 170
      vertex 137.643 -1.16043 150
    endloop
  endfacet
  facet normal 0 0 1
    outer loop
      vertex 121.586 -39.2828 170
      vertex 137.643 -39.2828 170
      vertex 137.643 -1.16043 170
    endloop
  endfacet
  facet normal 0 0 1
    outer loop
      vertex 121.586 -1.16043 170
      vertex 121.586 -39.2828 170
      vertex 137.643 -1.16043 170
    endloop
  endfacet
endsolid OpenSCAD_Model
