# File produced by Open Asset Import Library (http://www.assimp.sf.net)
# (assimp v3.1.187496374)

mtllib corpsRobot.obj.mtl

# 304 vertex positions
v  -2.18145 -30 22.0594
v  -2.18145 30 22.0594
v  -2.97533 -30 20.3839
v  -2.97533 30 20.3839
v  -19.191 -30 25.6308
v  -17.0797 -30 30.4059
v  -19.9944 -30 20.4719
v  -13.8045 -30 34.4719
v  -9.58851 -30 37.5516
v  -4.71909 -30 39.4353
v  0.471932 -30 39.9944
v  5.63079 -30 39.191
v  10.4059 -30 37.0797
v  14.4719 -30 33.8045
v  17.5516 -30 29.5885
v  -0.554319 -30 22.9483
v  19.4353 -30 24.7191
v  1.28454 -30 22.7111
v  2.63275 -30 21.4383
v  19.9944 -30 19.5281
v  2.97533 -30 19.6161
v  2.18145 -30 17.9406
v  19.191 -30 14.3692
v  0.554319 -30 17.0517
v  -1.28454 -30 17.2889
v  17.0797 -30 9.59408
v  -2.63275 -30 18.5617
v  13.8045 -30 5.5281
v  9.58851 -30 2.44835
v  4.71909 -30 0.564718
v  -0.471932 -30 0.005569
v  -5.63079 -30 0.809007
v  -10.4059 -30 2.92028
v  -14.4719 -30 6.19551
v  -17.5516 -30 10.4115
v  -19.4353 -30 15.2809
v  -2.63275 30 18.5617
v  -19.9944 30 20.4719
v  -19.4353 30 15.2809
v  -17.5516 30 10.4115
v  -10.4059 30 2.92028
v  -14.4719 30 6.19551
v  -5.63079 30 0.809007
v  -0.471932 30 0.005569
v  4.71909 30 0.564718
v  9.58851 30 2.44835
v  13.8045 30 5.5281
v  17.0797 30 9.59408
v  -1.28454 30 17.2889
v  14.4719 30 33.8045
v  17.5516 30 29.5885
v  10.4059 30 37.0797
v  5.63079 30 39.191
v  0.471932 30 39.9944
v  -4.71909 30 39.4353
v  -9.58851 30 37.5516
v  -13.8045 30 34.4719
v  -17.0797 30 30.4059
v  -19.191 30 25.6308
v  -0.554319 30 22.9483
v  1.28454 30 22.7111
v  19.4353 30 24.7191
v  2.63275 30 21.4383
v  19.9944 30 19.5281
v  2.97533 30 19.6161
v  19.191 30 14.3692
v  2.18145 30 17.9406
v  0.554319 30 17.0517
v  -19.191 -50 25.6308
v  -19.9944 -50 20.4719
v  -19.4353 -50 15.2809
v  -17.5516 -50 10.4115
v  -14.4719 -50 6.19551
v  -10.4059 -50 2.92028
v  -5.63079 -50 0.809007
v  -0.471932 -50 0.005569
v  4.71909 -50 0.564718
v  9.58851 -50 2.44835
v  13.8045 -50 5.5281
v  17.0797 -50 9.59408
v  19.191 -50 14.3692
v  19.9944 -50 19.5281
v  19.4353 -50 24.7191
v  17.5516 -50 29.5885
v  14.4719 -50 33.8045
v  10.4059 -50 37.0797
v  5.63079 -50 39.191
v  0.471932 -50 39.9944
v  -4.71909 -50 39.4353
v  -9.58851 -50 37.5516
v  -13.8045 -50 34.4719
v  -17.0797 -50 30.4059
v  -19.9944 50 20.4719
v  -19.4353 50 15.2809
v  -19.191 50 25.6308
v  -17.0797 50 30.4059
v  -13.8045 50 34.4719
v  -9.58851 50 37.5516
v  -4.71909 50 39.4353
v  0.471932 50 39.9944
v  5.63079 50 39.191
v  10.4059 50 37.0797
v  14.4719 50 33.8045
v  17.5516 50 29.5885
v  19.4353 50 24.7191
v  19.9944 50 19.5281
v  19.191 50 14.3692
v  17.0797 50 9.59408
v  13.8045 50 5.5281
v  9.58851 50 2.44835
v  4.71909 50 0.564718
v  -0.471932 50 0.005569
v  -5.63079 50 0.809007
v  -10.4059 50 2.92028
v  -14.4719 50 6.19551
v  -17.5516 50 10.4115
v  77.0247 -40 20.3839
v  77.3672 -40 18.5617
v  78.7155 -40 17.2889
v  82.1814 -40 17.9406
v  80.5543 -40 17.0517
v  82.9753 -40 19.6161
v  82.6328 -40 21.4383
v  81.2845 -40 22.7111
v  79.4457 -40 22.9483
v  77.8186 -40 22.0594
v  81.2845 40 22.7111
v  79.4457 40 22.9483
v  82.6328 40 21.4383
v  77.0247 40 20.3839
v  77.3672 40 18.5617
v  77.8186 40 22.0594
v  82.9753 40 19.6161
v  82.1814 40 17.9406
v  80.5543 40 17.0517
v  78.7155 40 17.2889
v  -82.1814 -30 22.0594
v  -82.1814 30 22.0594
v  -82.9753 -30 20.3839
v  -82.9753 30 20.3839
v  -99.191 -30 25.6308
v  -97.0797 -30 30.4059
v  -99.9944 -30 20.4719
v  -93.8045 -30 34.4719
v  -89.5885 -30 37.5516
v  -84.7191 -30 39.4353
v  -79.5281 -30 39.9944
v  -74.3692 -30 39.191
v  -69.5941 -30 37.0797
v  -65.5281 -30 33.8045
v  -62.4483 -30 29.5885
v  -80.5543 -30 22.9483
v  -60.5647 -30 24.7191
v  -78.7155 -30 22.7111
v  -77.3672 -30 21.4383
v  -60.0056 -30 19.5281
v  -77.0247 -30 19.6161
v  -77.8186 -30 17.9406
v  -60.809 -30 14.3692
v  -79.4457 -30 17.0517
v  -81.2845 -30 17.2889
v  -62.9203 -30 9.59408
v  -82.6328 -30 18.5617
v  -66.1955 -30 5.5281
v  -70.4115 -30 2.44835
v  -75.2809 -30 0.564718
v  -80.4719 -30 0.005569
v  -85.6308 -30 0.809007
v  -90.4059 -30 2.92028
v  -94.4719 -30 6.19551
v  -97.5516 -30 10.4115
v  -99.4353 -30 15.2809
v  -82.6328 30 18.5617
v  -99.9944 30 20.4719
v  -99.4353 30 15.2809
v  -97.5516 30 10.4115
v  -90.4059 30 2.92028
v  -94.4719 30 6.19551
v  -85.6308 30 0.809007
v  -80.4719 30 0.005569
v  -75.2809 30 0.564718
v  -70.4115 30 2.44835
v  -66.1955 30 5.5281
v  -62.9203 30 9.59408
v  -81.2845 30 17.2889
v  -65.5281 30 33.8045
v  -62.4483 30 29.5885
v  -69.5941 30 37.0797
v  -74.3692 30 39.191
v  -79.5281 30 39.9944
v  -84.7191 30 39.4353
v  -89.5885 30 37.5516
v  -93.8045 30 34.4719
v  -97.0797 30 30.4059
v  -99.191 30 25.6308
v  -80.5543 30 22.9483
v  -78.7155 30 22.7111
v  -60.5647 30 24.7191
v  -77.3672 30 21.4383
v  -60.0056 30 19.5281
v  -77.0247 30 19.6161
v  -60.809 30 14.3692
v  -77.8186 30 17.9406
v  -79.4457 30 17.0517
v  -99.191 -50 25.6308
v  -99.9944 -50 20.4719
v  -99.4353 -50 15.2809
v  -97.5516 -50 10.4115
v  -94.4719 -50 6.19551
v  -90.4059 -50 2.92028
v  -85.6308 -50 0.809007
v  -80.4719 -50 0.005569
v  -75.2809 -50 0.564718
v  -70.4115 -50 2.44835
v  -66.1955 -50 5.5281
v  -62.9203 -50 9.59408
v  -60.809 -50 14.3692
v  -60.0056 -50 19.5281
v  -60.5647 -50 24.7191
v  -62.4483 -50 29.5885
v  -65.5281 -50 33.8045
v  -69.5941 -50 37.0797
v  -74.3692 -50 39.191
v  -79.5281 -50 39.9944
v  -84.7191 -50 39.4353
v  -89.5885 -50 37.5516
v  -93.8045 -50 34.4719
v  -97.0797 -50 30.4059
v  -99.9944 50 20.4719
v  -99.4353 50 15.2809
v  -99.191 50 25.6308
v  -97.0797 50 30.4059
v  -93.8045 50 34.4719
v  -89.5885 50 37.5516
v  -84.7191 50 39.4353
v  -79.5281 50 39.9944
v  -74.3692 50 39.191
v  -69.5941 50 37.0797
v  -65.5281 50 33.8045
v  -62.4483 50 29.5885
v  -60.5647 50 24.7191
v  -60.0056 50 19.5281
v  -60.809 50 14.3692
v  -62.9203 50 9.59408
v  -66.1955 50 5.5281
v  -70.4115 50 2.44835
v  -75.2809 50 0.564718
v  -80.4719 50 0.005569
v  -85.6308 50 0.809007
v  -90.4059 50 2.92028
v  -94.4719 50 6.19551
v  -97.5516 50 10.4115
v  80 -20 20
v  80 20 20
v  80 20 50
v  80 -20 50
v  -80 20 20
v  -80 -20 20
v  -80 -20 50
v  95 50 50
v  95 -50 50
v  -95 -50 50
v  -80 20 50
v  -95 50 50
v  -95 -50 90
v  -95 50 90
v  95 -50 90
v  95 50 90
v  53.118 -15.2181 90
v  50.7122 -14.0595 90
v  54.7829 -17.3058 90
v  48.042 -14.0595 90
v  43.9713 -17.3058 90
v  45.6362 -15.2181 90
v  43.3771 -19.9091 90
v  43.9713 -22.5124 90
v  45.6362 -24.6 90
v  50.7122 -25.7586 90
v  48.042 -25.7586 90
v  53.118 -24.6 90
v  54.7829 -22.5124 90
v  55.3771 -19.9091 90
v  43.3771 -19.9091 150
v  43.9713 -17.3058 150
v  43.9713 -22.5124 150
v  45.6362 -24.6 150
v  48.042 -25.7586 150
v  50.7122 -25.7586 150
v  53.118 -24.6 150
v  54.7829 -22.5124 150
v  55.3771 -19.9091 150
v  54.7829 -17.3058 150
v  53.118 -15.2181 150
v  50.7122 -14.0595 150
v  48.042 -14.0595 150
v  45.6362 -15.2181 150
v  57.6434 -1.16043 150
v  57.6434 -39.2828 150
v  41.5856 -39.2828 150
v  41.5856 -1.16043 150
v  41.5856 -39.2828 170
v  41.5856 -1.16043 170
v  57.6434 -39.2828 170
v  57.6434 -1.16043 170

# 0 UV coordinates

# 61 vertex normals
vn -0.903694 0 0.42818
vn 0 1 0
vn -0.982781 0 -0.184772
vn 0 -1 0
vn -0.479424 0 0.877583
vn -0.988089 0 0.153885
vn -0.994249 0 -0.107095
vn -0.932652 0 -0.360776
vn -0.807497 0 -0.589872
vn -0.627313 0 -0.778767
vn -0.404377 0 -0.914592
vn -0.153884 0 -0.988089
vn 0.107095 0 -0.994249
vn 0.360776 0 -0.932652
vn 0.589872 0 -0.807497
vn 0.778768 0 -0.627313
vn 0.914592 0 -0.404377
vn 0.988089 0 -0.153885
vn 0.994249 0 0.107095
vn 0.932652 0 0.360776
vn 0.807497 0 0.589872
vn 0.627313 0 0.778767
vn 0.404377 0 0.914592
vn 0.153885 0 0.988089
vn -0.107095 0 0.994249
vn -0.360776 0 0.932652
vn -0.589872 0 0.807497
vn -0.778767 0 0.627313
vn -0.914592 0 0.404377
vn 0.127965 0 0.991779
vn 0.686479 0 0.72715
vn 0.982781 0 0.184772
vn 0.903694 0 -0.42818
vn 0.479424 0 -0.877583
vn -0.127965 0 -0.991779
vn -0.686479 0 -0.72715
vn 0.686478 0 0.72715
vn -0.982782 0 -0.184769
vn -0.903695 0 0.428176
vn -0.479423 0 0.877584
vn 0.982782 0 0.184769
vn 0.903695 0 -0.428176
vn 0.479423 0 -0.877584
vn -0.686478 0 -0.72715
vn 0.360777 0 -0.932652
vn 1 0 0
vn 0 0 -1
vn -1 0 0
vn 0 0 1
vn -0.974928 0.222521 0
vn -0.974928 -0.222522 0
vn -0.781831 -0.62349 0
vn -0.433885 -0.900968 0
vn 0.433883 -0.900969 0
vn 0.781831 -0.62349 0
vn 0.974928 -0.222522 0
vn 0.974928 0.222521 0
vn 0.781831 0.62349 0
vn 0.433883 0.900969 0
vn -0.433885 0.900968 0
vn -0.781831 0.62349 0

# Mesh 'OpenSCAD_Model' with 592 faces
g OpenSCAD_Model
usemtl DefaultMaterial
f  1//1 2//1 3//1
f  3//1 2//1 4//1
f  5//2 6//2 7//2
f  7//2 6//2 8//2
f  7//2 8//2 9//2
f  7//2 9//2 10//2
f  7//2 10//2 11//2
f  7//2 11//2 12//2
f  7//2 12//2 13//2
f  7//2 13//2 14//2
f  7//2 14//2 15//2
f  16//2 15//2 17//2
f  7//2 15//2 16//2
f  16//2 17//2 18//2
f  1//2 7//2 16//2
f  19//2 17//2 20//2
f  18//2 17//2 19//2
f  19//2 20//2 21//2
f  22//2 20//2 23//2
f  21//2 20//2 22//2
f  22//2 23//2 24//2
f  25//2 23//2 26//2
f  24//2 23//2 25//2
f  7//2 25//2 26//2
f  25//2 7//2 27//2
f  7//2 26//2 28//2
f  7//2 28//2 29//2
f  7//2 29//2 30//2
f  7//2 30//2 31//2
f  7//2 31//2 32//2
f  7//2 32//2 33//2
f  7//2 33//2 34//2
f  7//2 34//2 35//2
f  7//2 35//2 36//2
f  7//2 1//2 3//2
f  27//2 7//2 3//2
f  4//3 37//3 3//3
f  3//3 37//3 27//3
f  38//4 39//4 40//4
f  41//4 38//4 42//4
f  42//4 38//4 40//4
f  43//4 38//4 41//4
f  44//4 38//4 43//4
f  45//4 38//4 44//4
f  46//4 38//4 45//4
f  47//4 38//4 46//4
f  48//4 38//4 47//4
f  49//4 38//4 48//4
f  50//4 38//4 51//4
f  52//4 38//4 50//4
f  53//4 38//4 52//4
f  54//4 38//4 53//4
f  55//4 38//4 54//4
f  56//4 38//4 55//4
f  57//4 38//4 56//4
f  58//4 38//4 57//4
f  59//4 38//4 58//4
f  2//4 38//4 4//4
f  51//4 38//4 60//4
f  49//4 37//4 38//4
f  2//4 60//4 38//4
f  37//4 4//4 38//4
f  60//4 61//4 62//4
f  51//4 60//4 62//4
f  61//4 63//4 62//4
f  62//4 63//4 64//4
f  63//4 65//4 64//4
f  64//4 65//4 66//4
f  65//4 67//4 66//4
f  67//4 68//4 66//4
f  66//4 68//4 48//4
f  68//4 49//4 48//4
f  1//5 16//5 60//5
f  2//5 1//5 60//5
f  69//6 5//6 70//6
f  70//6 5//6 7//6
f  7//7 36//7 70//7
f  70//7 36//7 71//7
f  36//8 35//8 71//8
f  71//8 35//8 72//8
f  35//9 34//9 72//9
f  72//9 34//9 73//9
f  34//10 33//10 73//10
f  73//10 33//10 74//10
f  33//11 32//11 74//11
f  74//11 32//11 75//11
f  32//12 31//12 75//12
f  75//12 31//12 76//12
f  31//13 30//13 76//13
f  76//13 30//13 77//13
f  30//14 29//14 77//14
f  77//14 29//14 78//14
f  29//15 28//15 78//15
f  78//15 28//15 79//15
f  79//16 28//16 26//16
f  80//16 79//16 26//16
f  80//17 26//17 23//17
f  81//17 80//17 23//17
f  81//18 23//18 20//18
f  82//18 81//18 20//18
f  83//19 82//19 20//19
f  17//19 83//19 20//19
f  84//20 83//20 17//20
f  15//20 84//20 17//20
f  85//21 84//21 15//21
f  14//21 85//21 15//21
f  86//22 85//22 14//22
f  13//22 86//22 14//22
f  87//23 86//23 13//23
f  12//23 87//23 13//23
f  88//24 87//24 12//24
f  11//24 88//24 12//24
f  89//25 88//25 11//25
f  10//25 89//25 11//25
f  90//26 89//26 10//26
f  9//26 90//26 10//26
f  91//27 90//27 9//27
f  8//27 91//27 9//27
f  91//28 8//28 92//28
f  92//28 8//28 6//28
f  92//29 6//29 69//29
f  69//29 6//29 5//29
f  16//30 18//30 61//30
f  60//30 16//30 61//30
f  18//31 19//31 63//31
f  61//31 18//31 63//31
f  19//32 21//32 65//32
f  63//32 19//32 65//32
f  22//33 67//33 65//33
f  21//33 22//33 65//33
f  68//34 67//34 24//34
f  24//34 67//34 22//34
f  49//35 68//35 25//35
f  25//35 68//35 24//35
f  37//36 49//36 27//36
f  27//36 49//36 25//36
f  93//7 94//7 38//7
f  38//7 94//7 39//7
f  59//6 95//6 38//6
f  38//6 95//6 93//6
f  58//29 96//29 59//29
f  59//29 96//29 95//29
f  57//28 97//28 58//28
f  58//28 97//28 96//28
f  57//27 56//27 98//27
f  97//27 57//27 98//27
f  56//26 55//26 99//26
f  98//26 56//26 99//26
f  55//25 54//25 100//25
f  99//25 55//25 100//25
f  54//24 53//24 101//24
f  100//24 54//24 101//24
f  53//23 52//23 102//23
f  101//23 53//23 102//23
f  52//22 50//22 103//22
f  102//22 52//22 103//22
f  50//21 51//21 104//21
f  103//21 50//21 104//21
f  51//20 62//20 105//20
f  104//20 51//20 105//20
f  62//19 64//19 106//19
f  105//19 62//19 106//19
f  66//18 107//18 106//18
f  64//18 66//18 106//18
f  48//17 108//17 107//17
f  66//17 48//17 107//17
f  47//16 109//16 108//16
f  48//16 47//16 108//16
f  110//15 109//15 46//15
f  46//15 109//15 47//15
f  111//14 110//14 45//14
f  45//14 110//14 46//14
f  112//13 111//13 44//13
f  44//13 111//13 45//13
f  113//12 112//12 43//12
f  43//12 112//12 44//12
f  114//11 113//11 41//11
f  41//11 113//11 43//11
f  115//10 114//10 42//10
f  42//10 114//10 41//10
f  116//9 115//9 40//9
f  40//9 115//9 42//9
f  94//8 116//8 39//8
f  39//8 116//8 40//8
f  70//4 71//4 72//4
f  74//4 70//4 73//4
f  73//4 70//4 72//4
f  75//4 70//4 74//4
f  76//4 70//4 75//4
f  77//4 70//4 76//4
f  78//4 70//4 77//4
f  79//4 70//4 78//4
f  80//4 70//4 79//4
f  81//4 70//4 80//4
f  82//4 70//4 81//4
f  83//4 70//4 82//4
f  84//4 70//4 83//4
f  85//4 70//4 84//4
f  86//4 70//4 85//4
f  87//4 70//4 86//4
f  88//4 70//4 87//4
f  89//4 70//4 88//4
f  90//4 70//4 89//4
f  91//4 70//4 90//4
f  92//4 70//4 91//4
f  69//4 70//4 92//4
f  95//2 96//2 93//2
f  93//2 96//2 97//2
f  93//2 97//2 98//2
f  93//2 98//2 99//2
f  93//2 99//2 100//2
f  93//2 100//2 101//2
f  93//2 101//2 102//2
f  93//2 102//2 103//2
f  93//2 103//2 104//2
f  93//2 104//2 105//2
f  93//2 105//2 106//2
f  93//2 106//2 107//2
f  93//2 107//2 108//2
f  93//2 108//2 109//2
f  93//2 109//2 110//2
f  93//2 110//2 111//2
f  93//2 111//2 112//2
f  93//2 112//2 113//2
f  93//2 113//2 114//2
f  93//2 114//2 115//2
f  93//2 115//2 116//2
f  93//2 116//2 94//2
f  117//4 118//4 119//4
f  120//4 117//4 121//4
f  121//4 117//4 119//4
f  122//4 117//4 120//4
f  123//4 117//4 122//4
f  124//4 117//4 123//4
f  125//4 117//4 124//4
f  126//4 117//4 125//4
f  125//30 124//30 127//30
f  128//30 125//30 127//30
f  124//37 123//37 129//37
f  127//37 124//37 129//37
f  130//38 131//38 117//38
f  117//38 131//38 118//38
f  126//39 132//39 117//39
f  117//39 132//39 130//39
f  126//40 125//40 128//40
f  132//40 126//40 128//40
f  123//41 122//41 133//41
f  129//41 123//41 133//41
f  120//42 134//42 133//42
f  122//42 120//42 133//42
f  135//43 134//43 121//43
f  121//43 134//43 120//43
f  136//35 135//35 119//35
f  119//35 135//35 121//35
f  131//44 136//44 118//44
f  118//44 136//44 119//44
f  132//2 128//2 130//2
f  130//2 128//2 127//2
f  130//2 127//2 129//2
f  130//2 129//2 133//2
f  130//2 133//2 134//2
f  130//2 134//2 135//2
f  130//2 135//2 136//2
f  130//2 136//2 131//2
f  137//39 138//39 139//39
f  139//39 138//39 140//39
f  141//2 142//2 143//2
f  143//2 142//2 144//2
f  143//2 144//2 145//2
f  143//2 145//2 146//2
f  143//2 146//2 147//2
f  143//2 147//2 148//2
f  143//2 148//2 149//2
f  143//2 149//2 150//2
f  143//2 150//2 151//2
f  152//2 151//2 153//2
f  143//2 151//2 152//2
f  152//2 153//2 154//2
f  137//2 143//2 152//2
f  155//2 153//2 156//2
f  154//2 153//2 155//2
f  155//2 156//2 157//2
f  158//2 156//2 159//2
f  157//2 156//2 158//2
f  158//2 159//2 160//2
f  161//2 159//2 162//2
f  160//2 159//2 161//2
f  143//2 161//2 162//2
f  161//2 143//2 163//2
f  143//2 162//2 164//2
f  143//2 164//2 165//2
f  143//2 165//2 166//2
f  143//2 166//2 167//2
f  143//2 167//2 168//2
f  143//2 168//2 169//2
f  143//2 169//2 170//2
f  143//2 170//2 171//2
f  143//2 171//2 172//2
f  143//2 137//2 139//2
f  163//2 143//2 139//2
f  140//38 173//38 139//38
f  139//38 173//38 163//38
f  174//4 175//4 176//4
f  177//4 174//4 178//4
f  178//4 174//4 176//4
f  179//4 174//4 177//4
f  180//4 174//4 179//4
f  181//4 174//4 180//4
f  182//4 174//4 181//4
f  183//4 174//4 182//4
f  184//4 174//4 183//4
f  185//4 174//4 184//4
f  186//4 174//4 187//4
f  188//4 174//4 186//4
f  189//4 174//4 188//4
f  190//4 174//4 189//4
f  191//4 174//4 190//4
f  192//4 174//4 191//4
f  193//4 174//4 192//4
f  194//4 174//4 193//4
f  195//4 174//4 194//4
f  138//4 174//4 140//4
f  187//4 174//4 196//4
f  185//4 173//4 174//4
f  138//4 196//4 174//4
f  173//4 140//4 174//4
f  196//4 197//4 198//4
f  187//4 196//4 198//4
f  197//4 199//4 198//4
f  198//4 199//4 200//4
f  199//4 201//4 200//4
f  200//4 201//4 202//4
f  201//4 203//4 202//4
f  203//4 204//4 202//4
f  202//4 204//4 184//4
f  204//4 185//4 184//4
f  137//40 152//40 196//40
f  138//40 137//40 196//40
f  205//6 141//6 206//6
f  206//6 141//6 143//6
f  143//7 172//7 206//7
f  206//7 172//7 207//7
f  172//8 171//8 207//8
f  207//8 171//8 208//8
f  171//9 170//9 208//9
f  208//9 170//9 209//9
f  170//10 169//10 209//10
f  209//10 169//10 210//10
f  169//11 168//11 210//11
f  210//11 168//11 211//11
f  168//12 167//12 211//12
f  211//12 167//12 212//12
f  167//13 166//13 212//13
f  212//13 166//13 213//13
f  166//45 165//45 213//45
f  213//45 165//45 214//45
f  165//15 164//15 214//15
f  214//15 164//15 215//15
f  215//16 164//16 162//16
f  216//16 215//16 162//16
f  216//17 162//17 159//17
f  217//17 216//17 159//17
f  217//18 159//18 156//18
f  218//18 217//18 156//18
f  219//19 218//19 156//19
f  153//19 219//19 156//19
f  220//20 219//20 153//20
f  151//20 220//20 153//20
f  221//21 220//21 151//21
f  150//21 221//21 151//21
f  222//22 221//22 150//22
f  149//22 222//22 150//22
f  223//23 222//23 149//23
f  148//23 223//23 149//23
f  224//24 223//24 148//24
f  147//24 224//24 148//24
f  225//25 224//25 147//25
f  146//25 225//25 147//25
f  226//26 225//26 146//26
f  145//26 226//26 146//26
f  227//27 226//27 145//27
f  144//27 227//27 145//27
f  227//28 144//28 228//28
f  228//28 144//28 142//28
f  228//29 142//29 205//29
f  205//29 142//29 141//29
f  152//30 154//30 197//30
f  196//30 152//30 197//30
f  154//37 155//37 199//37
f  197//37 154//37 199//37
f  155//41 157//41 201//41
f  199//41 155//41 201//41
f  158//42 203//42 201//42
f  157//42 158//42 201//42
f  204//43 203//43 160//43
f  160//43 203//43 158//43
f  185//35 204//35 161//35
f  161//35 204//35 160//35
f  173//44 185//44 163//44
f  163//44 185//44 161//44
f  229//7 230//7 174//7
f  174//7 230//7 175//7
f  195//6 231//6 174//6
f  174//6 231//6 229//6
f  194//29 232//29 195//29
f  195//29 232//29 231//29
f  193//28 233//28 194//28
f  194//28 233//28 232//28
f  193//27 192//27 234//27
f  233//27 193//27 234//27
f  192//26 191//26 235//26
f  234//26 192//26 235//26
f  191//25 190//25 236//25
f  235//25 191//25 236//25
f  190//24 189//24 237//24
f  236//24 190//24 237//24
f  189//23 188//23 238//23
f  237//23 189//23 238//23
f  188//22 186//22 239//22
f  238//22 188//22 239//22
f  186//21 187//21 240//21
f  239//21 186//21 240//21
f  187//20 198//20 241//20
f  240//20 187//20 241//20
f  198//19 200//19 242//19
f  241//19 198//19 242//19
f  202//18 243//18 242//18
f  200//18 202//18 242//18
f  184//17 244//17 243//17
f  202//17 184//17 243//17
f  183//16 245//16 244//16
f  184//16 183//16 244//16
f  246//15 245//15 182//15
f  182//15 245//15 183//15
f  247//45 246//45 181//45
f  181//45 246//45 182//45
f  248//13 247//13 180//13
f  180//13 247//13 181//13
f  249//12 248//12 179//12
f  179//12 248//12 180//12
f  250//11 249//11 177//11
f  177//11 249//11 179//11
f  251//10 250//10 178//10
f  178//10 250//10 177//10
f  252//9 251//9 176//9
f  176//9 251//9 178//9
f  230//8 252//8 175//8
f  175//8 252//8 176//8
f  206//4 207//4 208//4
f  210//4 206//4 209//4
f  209//4 206//4 208//4
f  211//4 206//4 210//4
f  212//4 206//4 211//4
f  213//4 206//4 212//4
f  214//4 206//4 213//4
f  215//4 206//4 214//4
f  216//4 206//4 215//4
f  217//4 206//4 216//4
f  218//4 206//4 217//4
f  219//4 206//4 218//4
f  220//4 206//4 219//4
f  221//4 206//4 220//4
f  222//4 206//4 221//4
f  223//4 206//4 222//4
f  224//4 206//4 223//4
f  225//4 206//4 224//4
f  226//4 206//4 225//4
f  227//4 206//4 226//4
f  228//4 206//4 227//4
f  205//4 206//4 228//4
f  231//2 232//2 229//2
f  229//2 232//2 233//2
f  229//2 233//2 234//2
f  229//2 234//2 235//2
f  229//2 235//2 236//2
f  229//2 236//2 237//2
f  229//2 237//2 238//2
f  229//2 238//2 239//2
f  229//2 239//2 240//2
f  229//2 240//2 241//2
f  229//2 241//2 242//2
f  229//2 242//2 243//2
f  229//2 243//2 244//2
f  229//2 244//2 245//2
f  229//2 245//2 246//2
f  229//2 246//2 247//2
f  229//2 247//2 248//2
f  229//2 248//2 249//2
f  229//2 249//2 250//2
f  229//2 250//2 251//2
f  229//2 251//2 252//2
f  229//2 252//2 230//2
f  253//46 254//46 255//46
f  256//46 253//46 255//46
f  257//47 254//47 258//47
f  258//47 254//47 253//47
f  258//4 253//4 256//4
f  259//4 258//4 256//4
f  256//47 260//47 261//47
f  255//47 260//47 256//47
f  262//47 256//47 261//47
f  256//47 262//47 259//47
f  263//47 260//47 255//47
f  264//47 260//47 263//47
f  264//47 263//47 259//47
f  264//47 259//47 262//47
f  263//2 255//2 257//2
f  257//2 255//2 254//2
f  259//48 263//48 258//48
f  258//48 263//48 257//48
f  265//48 266//48 262//48
f  262//48 266//48 264//48
f  262//4 261//4 267//4
f  265//4 262//4 267//4
f  261//46 260//46 268//46
f  267//46 261//46 268//46
f  266//2 268//2 264//2
f  264//2 268//2 260//2
f  269//49 267//49 268//49
f  270//49 269//49 268//49
f  271//49 267//49 269//49
f  272//49 270//49 268//49
f  266//49 265//49 268//49
f  265//49 273//49 268//49
f  273//49 274//49 268//49
f  274//49 272//49 268//49
f  265//49 275//49 273//49
f  265//49 276//49 275//49
f  265//49 277//49 276//49
f  265//49 267//49 278//49
f  265//49 278//49 279//49
f  265//49 279//49 277//49
f  280//49 278//49 267//49
f  280//49 267//49 281//49
f  281//49 267//49 282//49
f  271//49 282//49 267//49
f  283//50 284//50 275//50
f  275//50 284//50 273//50
f  276//51 285//51 275//51
f  275//51 285//51 283//51
f  277//52 286//52 276//52
f  276//52 286//52 285//52
f  277//53 279//53 287//53
f  286//53 277//53 287//53
f  279//4 278//4 288//4
f  287//4 279//4 288//4
f  278//54 280//54 289//54
f  288//54 278//54 289//54
f  280//55 281//55 290//55
f  289//55 280//55 290//55
f  281//56 282//56 291//56
f  290//56 281//56 291//56
f  271//57 292//57 291//57
f  282//57 271//57 291//57
f  269//58 293//58 292//58
f  271//58 269//58 292//58
f  294//59 293//59 270//59
f  270//59 293//59 269//59
f  295//2 294//2 272//2
f  272//2 294//2 270//2
f  296//60 295//60 274//60
f  274//60 295//60 272//60
f  284//61 296//61 273//61
f  273//61 296//61 274//61
f  291//47 297//47 298//47
f  292//47 297//47 291//47
f  290//47 291//47 298//47
f  299//47 287//47 298//47
f  287//47 288//47 298//47
f  288//47 289//47 298//47
f  289//47 290//47 298//47
f  300//47 283//47 299//47
f  283//47 285//47 299//47
f  285//47 286//47 299//47
f  287//47 299//47 286//47
f  300//47 297//47 296//47
f  300//47 296//47 284//47
f  300//47 284//47 283//47
f  296//47 297//47 295//47
f  295//47 297//47 294//47
f  294//47 297//47 293//47
f  293//47 297//47 292//47
f  301//48 302//48 299//48
f  299//48 302//48 300//48
f  299//4 298//4 303//4
f  301//4 299//4 303//4
f  298//46 297//46 304//46
f  303//46 298//46 304//46
f  302//2 304//2 300//2
f  300//2 304//2 297//2
f  301//49 303//49 304//49
f  302//49 301//49 304//49

