# File produced by Open Asset Import Library (http://www.assimp.sf.net)
# (assimp v3.1.187496374)

mtllib corpsRobotDecentre.obj.mtl

# 304 vertex positions
v  77.8185 -30 22.0594
v  79.4457 -30 22.9483
v  79.4457 30 22.9483
v  77.8185 30 22.0594
v  60.809 -30 25.6308
v  62.9203 -30 30.4059
v  60.0056 -30 20.4719
v  66.1955 -30 34.4719
v  70.4115 -30 37.5516
v  75.2809 -30 39.4353
v  80.4719 -30 39.9944
v  85.6308 -30 39.191
v  90.4059 -30 37.0797
v  94.4719 -30 33.8045
v  97.5516 -30 29.5885
v  99.4353 -30 24.7191
v  81.2845 -30 22.7111
v  82.6327 -30 21.4383
v  99.9944 -30 19.5281
v  82.9753 -30 19.6161
v  82.1814 -30 17.9406
v  99.191 -30 14.3692
v  80.5543 -30 17.0517
v  78.7155 -30 17.2889
v  97.0797 -30 9.59408
v  77.3672 -30 18.5617
v  93.8045 -30 5.5281
v  89.5885 -30 2.44835
v  84.7191 -30 0.564718
v  79.5281 -30 0.005569
v  74.3692 -30 0.809007
v  69.5941 -30 2.92028
v  65.5281 -30 6.19551
v  62.4484 -30 10.4115
v  60.5647 -30 15.2809
v  77.0247 -30 20.3839
v  77.0247 30 20.3839
v  60.0056 30 20.4719
v  60.5647 30 15.2809
v  62.4484 30 10.4115
v  69.5941 30 2.92028
v  65.5281 30 6.19551
v  74.3692 30 0.809007
v  79.5281 30 0.005569
v  84.7191 30 0.564718
v  89.5885 30 2.44835
v  93.8045 30 5.5281
v  97.0797 30 9.59408
v  78.7155 30 17.2889
v  94.4719 30 33.8045
v  97.5516 30 29.5885
v  90.4059 30 37.0797
v  85.6308 30 39.191
v  80.4719 30 39.9944
v  75.2809 30 39.4353
v  70.4115 30 37.5516
v  66.1955 30 34.4719
v  62.9203 30 30.4059
v  60.809 30 25.6308
v  77.3672 30 18.5617
v  81.2845 30 22.7111
v  99.4353 30 24.7191
v  82.6327 30 21.4383
v  99.9944 30 19.5281
v  82.9753 30 19.6161
v  99.191 30 14.3692
v  82.1814 30 17.9406
v  80.5543 30 17.0517
v  60.0056 -50 20.4719
v  60.5647 -50 15.2809
v  60.809 -50 25.6308
v  62.4484 -50 10.4115
v  65.5281 -50 6.19551
v  69.5941 -50 2.92028
v  74.3692 -50 0.809007
v  79.5281 -50 0.005569
v  84.7191 -50 0.564718
v  89.5885 -50 2.44835
v  93.8045 -50 5.5281
v  97.0797 -50 9.59408
v  99.191 -50 14.3692
v  99.9944 -50 19.5281
v  99.4353 -50 24.7191
v  97.5516 -50 29.5885
v  94.4719 -50 33.8045
v  90.4059 -50 37.0797
v  85.6308 -50 39.191
v  80.4719 -50 39.9944
v  75.2809 -50 39.4353
v  70.4115 -50 37.5516
v  66.1955 -50 34.4719
v  62.9203 -50 30.4059
v  60.809 50 25.6308
v  60.0056 50 20.4719
v  60.5647 50 15.2809
v  62.9203 50 30.4059
v  66.1955 50 34.4719
v  70.4115 50 37.5516
v  75.2809 50 39.4353
v  80.4719 50 39.9944
v  85.6308 50 39.191
v  90.4059 50 37.0797
v  94.4719 50 33.8045
v  97.5516 50 29.5885
v  99.4353 50 24.7191
v  99.9944 50 19.5281
v  99.191 50 14.3692
v  97.0797 50 9.59408
v  93.8045 50 5.5281
v  89.5885 50 2.44835
v  84.7191 50 0.564718
v  79.5281 50 0.005569
v  74.3692 50 0.809007
v  69.5941 50 2.92028
v  65.5281 50 6.19551
v  62.4484 50 10.4115
v  157.819 -40 22.0594
v  157.819 40 22.0594
v  157.025 -40 20.3839
v  157.025 40 20.3839
v  157.367 -40 18.5617
v  158.715 -40 17.2889
v  162.181 -40 17.9406
v  160.554 -40 17.0517
v  162.975 -40 19.6161
v  162.633 -40 21.4383
v  161.284 -40 22.7111
v  159.446 -40 22.9483
v  157.367 40 18.5617
v  159.446 40 22.9483
v  161.284 40 22.7111
v  162.633 40 21.4383
v  162.975 40 19.6161
v  162.181 40 17.9406
v  160.554 40 17.0517
v  158.715 40 17.2889
v  -2.1814 -30 22.0594
v  -0.5543 -30 22.9483
v  -0.5543 30 22.9483
v  -2.1814 30 22.0594
v  -19.191 -30 25.6308
v  -17.0797 -30 30.4059
v  -19.9944 -30 20.4719
v  -13.8045 -30 34.4719
v  -9.5885 -30 37.5516
v  -4.7191 -30 39.4353
v  0.4719 -30 39.9944
v  5.6308 -30 39.191
v  10.4059 -30 37.0797
v  14.4719 -30 33.8045
v  17.5517 -30 29.5885
v  19.4353 -30 24.7191
v  1.2845 -30 22.7111
v  2.6328 -30 21.4383
v  19.9944 -30 19.5281
v  2.9753 -30 19.6161
v  2.1814 -30 17.9406
v  19.191 -30 14.3692
v  0.5543 -30 17.0517
v  -1.2845 -30 17.2889
v  17.0797 -30 9.59408
v  -2.6328 -30 18.5617
v  13.8045 -30 5.5281
v  9.5885 -30 2.44835
v  4.7191 -30 0.564718
v  -0.4719 -30 0.005569
v  -5.6308 -30 0.809007
v  -10.4059 -30 2.92028
v  -14.4719 -30 6.19551
v  -17.5516 -30 10.4115
v  -19.4353 -30 15.2809
v  -2.9753 -30 20.3839
v  -2.9753 30 20.3839
v  -19.9944 30 20.4719
v  -19.4353 30 15.2809
v  -17.5516 30 10.4115
v  -10.4059 30 2.92028
v  -14.4719 30 6.19551
v  -5.6308 30 0.809007
v  -0.4719 30 0.005569
v  4.7191 30 0.564718
v  9.5885 30 2.44835
v  13.8045 30 5.5281
v  17.0797 30 9.59408
v  -1.2845 30 17.2889
v  14.4719 30 33.8045
v  17.5517 30 29.5885
v  10.4059 30 37.0797
v  5.6308 30 39.191
v  0.4719 30 39.9944
v  -4.7191 30 39.4353
v  -9.5885 30 37.5516
v  -13.8045 30 34.4719
v  -17.0797 30 30.4059
v  -19.191 30 25.6308
v  -2.6328 30 18.5617
v  1.2845 30 22.7111
v  19.4353 30 24.7191
v  2.6328 30 21.4383
v  19.9944 30 19.5281
v  2.9753 30 19.6161
v  19.191 30 14.3692
v  2.1814 30 17.9406
v  0.5543 30 17.0517
v  -19.9944 -50 20.4719
v  -19.4353 -50 15.2809
v  -19.191 -50 25.6308
v  -17.5516 -50 10.4115
v  -14.4719 -50 6.19551
v  -10.4059 -50 2.92028
v  -5.6308 -50 0.809007
v  -0.4719 -50 0.005569
v  4.7191 -50 0.564718
v  9.5885 -50 2.44835
v  13.8045 -50 5.5281
v  17.0797 -50 9.59408
v  19.191 -50 14.3692
v  19.9944 -50 19.5281
v  19.4353 -50 24.7191
v  17.5517 -50 29.5885
v  14.4719 -50 33.8045
v  10.4059 -50 37.0797
v  5.6308 -50 39.191
v  0.4719 -50 39.9944
v  -4.7191 -50 39.4353
v  -9.5885 -50 37.5516
v  -13.8045 -50 34.4719
v  -17.0797 -50 30.4059
v  -19.191 50 25.6308
v  -19.9944 50 20.4719
v  -19.4353 50 15.2809
v  -17.0797 50 30.4059
v  -13.8045 50 34.4719
v  -9.5885 50 37.5516
v  -4.7191 50 39.4353
v  0.4719 50 39.9944
v  5.6308 50 39.191
v  10.4059 50 37.0797
v  14.4719 50 33.8045
v  17.5517 50 29.5885
v  19.4353 50 24.7191
v  19.9944 50 19.5281
v  19.191 50 14.3692
v  17.0797 50 9.59408
v  13.8045 50 5.5281
v  9.5885 50 2.44835
v  4.7191 50 0.564718
v  -0.4719 50 0.005569
v  -5.6308 50 0.809007
v  -10.4059 50 2.92028
v  -14.4719 50 6.19551
v  -17.5516 50 10.4115
v  0 -20 20
v  160 -20 20
v  160 -20 50
v  0 -20 50
v  160 20 20
v  160 20 50
v  0 20 20
v  0 20 50
v  175 50 50
v  175 -50 50
v  -15 -50 50
v  -15 50 50
v  175 -50 90
v  -15 -50 90
v  -15 50 90
v  175 50 90
v  133.118 -15.2181 90
v  130.712 -14.0595 90
v  134.783 -17.3058 90
v  128.042 -14.0595 90
v  123.971 -17.3058 90
v  125.636 -15.2181 90
v  123.377 -19.9091 90
v  123.971 -22.5124 90
v  125.636 -24.6 90
v  130.712 -25.7586 90
v  128.042 -25.7586 90
v  133.118 -24.6 90
v  134.783 -22.5124 90
v  135.377 -19.9091 90
v  123.971 -22.5124 150
v  123.377 -19.9091 150
v  123.971 -17.3058 150
v  125.636 -24.6 150
v  128.042 -25.7586 150
v  130.712 -25.7586 150
v  133.118 -24.6 150
v  134.783 -22.5124 150
v  135.377 -19.9091 150
v  134.783 -17.3058 150
v  133.118 -15.2181 150
v  130.712 -14.0595 150
v  128.042 -14.0595 150
v  125.636 -15.2181 150
v  137.643 -1.16043 150
v  137.643 -39.2828 150
v  121.586 -39.2828 150
v  121.586 -1.16043 150
v  137.643 -39.2828 170
v  121.586 -39.2828 170
v  121.586 -1.16043 170
v  137.643 -1.16043 170

# 0 UV coordinates

# 73 vertex normals
vn -0.479423 0 0.877584
vn 0 1 0
vn -0.903691 0 0.428184
vn 0 -1 0
vn 0.127933 0 0.991783
vn -0.99425 0 -0.107086
vn -0.98809 0 0.153876
vn -0.932647 0 -0.360789
vn -0.807502 0 -0.589865
vn -0.627311 0 -0.778769
vn -0.404379 0 -0.914592
vn -0.153884 0 -0.988089
vn 0.107095 0 -0.994249
vn 0.360777 0 -0.932652
vn 0.589871 0 -0.807497
vn 0.77877 0 -0.627309
vn 0.91459 0 -0.404382
vn 0.98809 0 -0.153876
vn 0.99425 0 0.107086
vn 0.932647 0 0.360789
vn 0.807503 0 0.589864
vn 0.627308 0 0.778772
vn 0.404383 0 0.91459
vn 0.153877 0 0.98809
vn -0.107086 0 0.99425
vn -0.360788 0 0.932648
vn -0.589865 0 0.807502
vn -0.778772 0 0.627308
vn -0.914589 0 0.404384
vn -0.982782 0 -0.184767
vn 0.686478 0 0.72715
vn 0.982782 0 0.184767
vn 0.903691 0 -0.428184
vn 0.479423 0 -0.877584
vn -0.127933 0 -0.991783
vn -0.686478 0 -0.72715
vn -0.903687 0 0.428193
vn -0.98279 0 -0.184725
vn -0.47943 0 0.87758
vn 0.127937 0 0.991782
vn 0.686454 0 0.727173
vn 0.98279 0 0.184725
vn 0.903687 0 -0.428193
vn 0.47943 0 -0.87758
vn -0.127937 0 -0.991782
vn -0.686454 0 -0.727173
vn -0.404379 0 -0.914591
vn -0.153883 0 -0.988089
vn 0.107096 0 -0.994249
vn 0.360778 0 -0.932652
vn 0.58987 0 -0.807498
vn 0.932654 0 0.360773
vn 0.807494 0 0.589876
vn 0.404384 0 0.914589
vn 0.153876 0 0.98809
vn -0.360789 0 0.932647
vn -0.589864 0 0.807503
vn 1 0 0
vn 0 0 -1
vn -1 0 0
vn 0 0 1
vn -0.974927 -0.222526 0
vn -0.974927 0.222526 0
vn -0.781814 -0.623511 0
vn -0.433892 -0.900965 0
vn 0.433892 -0.900965 0
vn 0.781814 -0.623511 0
vn 0.974927 -0.222526 0
vn 0.974927 0.222526 0
vn 0.781829 0.623493 0
vn 0.433892 0.900965 0
vn -0.433892 0.900965 0
vn -0.781829 0.623493 0

# Mesh 'OpenSCAD_Model' with 592 faces
g OpenSCAD_Model
usemtl DefaultMaterial
f  1//1 2//1 3//1
f  4//1 1//1 3//1
f  5//2 6//2 7//2
f  7//2 6//2 8//2
f  7//2 8//2 9//2
f  7//2 9//2 10//2
f  7//2 10//2 11//2
f  7//2 11//2 12//2
f  7//2 12//2 13//2
f  7//2 13//2 14//2
f  7//2 14//2 15//2
f  2//2 15//2 16//2
f  7//2 15//2 2//2
f  2//2 16//2 17//2
f  1//2 7//2 2//2
f  18//2 16//2 19//2
f  17//2 16//2 18//2
f  18//2 19//2 20//2
f  21//2 19//2 22//2
f  20//2 19//2 21//2
f  21//2 22//2 23//2
f  24//2 22//2 25//2
f  23//2 22//2 24//2
f  7//2 24//2 25//2
f  24//2 7//2 26//2
f  7//2 25//2 27//2
f  7//2 27//2 28//2
f  7//2 28//2 29//2
f  7//2 29//2 30//2
f  7//2 30//2 31//2
f  7//2 31//2 32//2
f  7//2 32//2 33//2
f  7//2 33//2 34//2
f  7//2 34//2 35//2
f  7//2 1//2 36//2
f  26//2 7//2 36//2
f  1//3 4//3 36//3
f  36//3 4//3 37//3
f  38//4 39//4 40//4
f  41//4 38//4 42//4
f  42//4 38//4 40//4
f  43//4 38//4 41//4
f  44//4 38//4 43//4
f  45//4 38//4 44//4
f  46//4 38//4 45//4
f  47//4 38//4 46//4
f  48//4 38//4 47//4
f  49//4 38//4 48//4
f  50//4 38//4 51//4
f  52//4 38//4 50//4
f  53//4 38//4 52//4
f  54//4 38//4 53//4
f  55//4 38//4 54//4
f  56//4 38//4 55//4
f  57//4 38//4 56//4
f  58//4 38//4 57//4
f  59//4 38//4 58//4
f  4//4 38//4 37//4
f  51//4 38//4 3//4
f  49//4 60//4 38//4
f  4//4 3//4 38//4
f  60//4 37//4 38//4
f  3//4 61//4 62//4
f  51//4 3//4 62//4
f  61//4 63//4 62//4
f  62//4 63//4 64//4
f  63//4 65//4 64//4
f  64//4 65//4 66//4
f  65//4 67//4 66//4
f  67//4 68//4 66//4
f  66//4 68//4 48//4
f  68//4 49//4 48//4
f  2//5 17//5 61//5
f  3//5 2//5 61//5
f  7//6 35//6 69//6
f  69//6 35//6 70//6
f  71//7 5//7 69//7
f  69//7 5//7 7//7
f  35//8 34//8 70//8
f  70//8 34//8 72//8
f  34//9 33//9 72//9
f  72//9 33//9 73//9
f  33//10 32//10 73//10
f  73//10 32//10 74//10
f  32//11 31//11 74//11
f  74//11 31//11 75//11
f  31//12 30//12 75//12
f  75//12 30//12 76//12
f  30//13 29//13 76//13
f  76//13 29//13 77//13
f  29//14 28//14 77//14
f  77//14 28//14 78//14
f  28//15 27//15 78//15
f  78//15 27//15 79//15
f  79//16 27//16 25//16
f  80//16 79//16 25//16
f  80//17 25//17 22//17
f  81//17 80//17 22//17
f  81//18 22//18 19//18
f  82//18 81//18 19//18
f  83//19 82//19 19//19
f  16//19 83//19 19//19
f  84//20 83//20 16//20
f  15//20 84//20 16//20
f  85//21 84//21 15//21
f  14//21 85//21 15//21
f  86//22 85//22 14//22
f  13//22 86//22 14//22
f  87//23 86//23 13//23
f  12//23 87//23 13//23
f  88//24 87//24 12//24
f  11//24 88//24 12//24
f  89//25 88//25 11//25
f  10//25 89//25 11//25
f  90//26 89//26 10//26
f  9//26 90//26 10//26
f  91//27 90//27 9//27
f  8//27 91//27 9//27
f  91//28 8//28 92//28
f  92//28 8//28 6//28
f  92//29 6//29 71//29
f  71//29 6//29 5//29
f  37//30 60//30 36//30
f  36//30 60//30 26//30
f  17//31 18//31 63//31
f  61//31 17//31 63//31
f  18//32 20//32 65//32
f  63//32 18//32 65//32
f  21//33 67//33 65//33
f  20//33 21//33 65//33
f  68//34 67//34 23//34
f  23//34 67//34 21//34
f  49//35 68//35 24//35
f  24//35 68//35 23//35
f  60//36 49//36 26//36
f  26//36 49//36 24//36
f  59//7 93//7 38//7
f  38//7 93//7 94//7
f  94//6 95//6 38//6
f  38//6 95//6 39//6
f  58//29 96//29 59//29
f  59//29 96//29 93//29
f  57//28 97//28 58//28
f  58//28 97//28 96//28
f  57//27 56//27 98//27
f  97//27 57//27 98//27
f  56//26 55//26 99//26
f  98//26 56//26 99//26
f  55//25 54//25 100//25
f  99//25 55//25 100//25
f  54//24 53//24 101//24
f  100//24 54//24 101//24
f  53//23 52//23 102//23
f  101//23 53//23 102//23
f  52//22 50//22 103//22
f  102//22 52//22 103//22
f  50//21 51//21 104//21
f  103//21 50//21 104//21
f  51//20 62//20 105//20
f  104//20 51//20 105//20
f  62//19 64//19 106//19
f  105//19 62//19 106//19
f  66//18 107//18 106//18
f  64//18 66//18 106//18
f  48//17 108//17 107//17
f  66//17 48//17 107//17
f  47//16 109//16 108//16
f  48//16 47//16 108//16
f  110//15 109//15 46//15
f  46//15 109//15 47//15
f  111//14 110//14 45//14
f  45//14 110//14 46//14
f  112//13 111//13 44//13
f  44//13 111//13 45//13
f  113//12 112//12 43//12
f  43//12 112//12 44//12
f  114//11 113//11 41//11
f  41//11 113//11 43//11
f  115//10 114//10 42//10
f  42//10 114//10 41//10
f  116//9 115//9 40//9
f  40//9 115//9 42//9
f  95//8 116//8 39//8
f  39//8 116//8 40//8
f  69//4 70//4 72//4
f  74//4 69//4 73//4
f  73//4 69//4 72//4
f  75//4 69//4 74//4
f  76//4 69//4 75//4
f  77//4 69//4 76//4
f  78//4 69//4 77//4
f  79//4 69//4 78//4
f  80//4 69//4 79//4
f  81//4 69//4 80//4
f  82//4 69//4 81//4
f  83//4 69//4 82//4
f  84//4 69//4 83//4
f  85//4 69//4 84//4
f  86//4 69//4 85//4
f  87//4 69//4 86//4
f  88//4 69//4 87//4
f  89//4 69//4 88//4
f  90//4 69//4 89//4
f  91//4 69//4 90//4
f  92//4 69//4 91//4
f  71//4 69//4 92//4
f  93//2 96//2 94//2
f  94//2 96//2 97//2
f  94//2 97//2 98//2
f  94//2 98//2 99//2
f  94//2 99//2 100//2
f  94//2 100//2 101//2
f  94//2 101//2 102//2
f  94//2 102//2 103//2
f  94//2 103//2 104//2
f  94//2 104//2 105//2
f  94//2 105//2 106//2
f  94//2 106//2 107//2
f  94//2 107//2 108//2
f  94//2 108//2 109//2
f  94//2 109//2 110//2
f  94//2 110//2 111//2
f  94//2 111//2 112//2
f  94//2 112//2 113//2
f  94//2 113//2 114//2
f  94//2 114//2 115//2
f  94//2 115//2 116//2
f  94//2 116//2 95//2
f  117//37 118//37 119//37
f  119//37 118//37 120//37
f  119//4 121//4 122//4
f  123//4 119//4 124//4
f  124//4 119//4 122//4
f  125//4 119//4 123//4
f  126//4 119//4 125//4
f  127//4 119//4 126//4
f  128//4 119//4 127//4
f  117//4 119//4 128//4
f  120//38 129//38 119//38
f  119//38 129//38 121//38
f  118//2 130//2 120//2
f  120//2 130//2 131//2
f  120//2 131//2 132//2
f  120//2 132//2 133//2
f  120//2 133//2 134//2
f  120//2 134//2 135//2
f  120//2 135//2 136//2
f  120//2 136//2 129//2
f  117//39 128//39 130//39
f  118//39 117//39 130//39
f  128//40 127//40 131//40
f  130//40 128//40 131//40
f  127//41 126//41 132//41
f  131//41 127//41 132//41
f  126//42 125//42 133//42
f  132//42 126//42 133//42
f  123//43 134//43 133//43
f  125//43 123//43 133//43
f  135//44 134//44 124//44
f  124//44 134//44 123//44
f  136//45 135//45 122//45
f  122//45 135//45 124//45
f  129//46 136//46 121//46
f  121//46 136//46 122//46
f  137//39 138//39 139//39
f  140//39 137//39 139//39
f  141//2 142//2 143//2
f  143//2 142//2 144//2
f  143//2 144//2 145//2
f  143//2 145//2 146//2
f  143//2 146//2 147//2
f  143//2 147//2 148//2
f  143//2 148//2 149//2
f  143//2 149//2 150//2
f  143//2 150//2 151//2
f  138//2 151//2 152//2
f  143//2 151//2 138//2
f  138//2 152//2 153//2
f  137//2 143//2 138//2
f  154//2 152//2 155//2
f  153//2 152//2 154//2
f  154//2 155//2 156//2
f  157//2 155//2 158//2
f  156//2 155//2 157//2
f  157//2 158//2 159//2
f  160//2 158//2 161//2
f  159//2 158//2 160//2
f  143//2 160//2 161//2
f  160//2 143//2 162//2
f  143//2 161//2 163//2
f  143//2 163//2 164//2
f  143//2 164//2 165//2
f  143//2 165//2 166//2
f  143//2 166//2 167//2
f  143//2 167//2 168//2
f  143//2 168//2 169//2
f  143//2 169//2 170//2
f  143//2 170//2 171//2
f  143//2 137//2 172//2
f  162//2 143//2 172//2
f  137//37 140//37 172//37
f  172//37 140//37 173//37
f  174//4 175//4 176//4
f  177//4 174//4 178//4
f  178//4 174//4 176//4
f  179//4 174//4 177//4
f  180//4 174//4 179//4
f  181//4 174//4 180//4
f  182//4 174//4 181//4
f  183//4 174//4 182//4
f  184//4 174//4 183//4
f  185//4 174//4 184//4
f  186//4 174//4 187//4
f  188//4 174//4 186//4
f  189//4 174//4 188//4
f  190//4 174//4 189//4
f  191//4 174//4 190//4
f  192//4 174//4 191//4
f  193//4 174//4 192//4
f  194//4 174//4 193//4
f  195//4 174//4 194//4
f  140//4 174//4 173//4
f  187//4 174//4 139//4
f  185//4 196//4 174//4
f  140//4 139//4 174//4
f  196//4 173//4 174//4
f  139//4 197//4 198//4
f  187//4 139//4 198//4
f  197//4 199//4 198//4
f  198//4 199//4 200//4
f  199//4 201//4 200//4
f  200//4 201//4 202//4
f  201//4 203//4 202//4
f  203//4 204//4 202//4
f  202//4 204//4 184//4
f  204//4 185//4 184//4
f  138//40 153//40 197//40
f  139//40 138//40 197//40
f  143//6 171//6 205//6
f  205//6 171//6 206//6
f  207//7 141//7 205//7
f  205//7 141//7 143//7
f  171//8 170//8 206//8
f  206//8 170//8 208//8
f  170//9 169//9 208//9
f  208//9 169//9 209//9
f  169//10 168//10 209//10
f  209//10 168//10 210//10
f  168//47 167//47 210//47
f  210//47 167//47 211//47
f  167//48 166//48 211//48
f  211//48 166//48 212//48
f  166//49 165//49 212//49
f  212//49 165//49 213//49
f  165//50 164//50 213//50
f  213//50 164//50 214//50
f  164//51 163//51 214//51
f  214//51 163//51 215//51
f  215//16 163//16 161//16
f  216//16 215//16 161//16
f  216//17 161//17 158//17
f  217//17 216//17 158//17
f  217//18 158//18 155//18
f  218//18 217//18 155//18
f  219//19 218//19 155//19
f  152//19 219//19 155//19
f  220//52 219//52 152//52
f  151//52 220//52 152//52
f  221//53 220//53 151//53
f  150//53 221//53 151//53
f  222//22 221//22 150//22
f  149//22 222//22 150//22
f  223//54 222//54 149//54
f  148//54 223//54 149//54
f  224//55 223//55 148//55
f  147//55 224//55 148//55
f  225//25 224//25 147//25
f  146//25 225//25 147//25
f  226//56 225//56 146//56
f  145//56 226//56 146//56
f  227//57 226//57 145//57
f  144//57 227//57 145//57
f  227//28 144//28 228//28
f  228//28 144//28 142//28
f  228//29 142//29 207//29
f  207//29 142//29 141//29
f  173//38 196//38 172//38
f  172//38 196//38 162//38
f  153//41 154//41 199//41
f  197//41 153//41 199//41
f  154//42 156//42 201//42
f  199//42 154//42 201//42
f  157//43 203//43 201//43
f  156//43 157//43 201//43
f  204//44 203//44 159//44
f  159//44 203//44 157//44
f  185//45 204//45 160//45
f  160//45 204//45 159//45
f  196//46 185//46 162//46
f  162//46 185//46 160//46
f  195//7 229//7 174//7
f  174//7 229//7 230//7
f  230//6 231//6 174//6
f  174//6 231//6 175//6
f  194//29 232//29 195//29
f  195//29 232//29 229//29
f  193//28 233//28 194//28
f  194//28 233//28 232//28
f  193//57 192//57 234//57
f  233//57 193//57 234//57
f  192//56 191//56 235//56
f  234//56 192//56 235//56
f  191//25 190//25 236//25
f  235//25 191//25 236//25
f  190//55 189//55 237//55
f  236//55 190//55 237//55
f  189//54 188//54 238//54
f  237//54 189//54 238//54
f  188//22 186//22 239//22
f  238//22 188//22 239//22
f  186//53 187//53 240//53
f  239//53 186//53 240//53
f  187//52 198//52 241//52
f  240//52 187//52 241//52
f  198//19 200//19 242//19
f  241//19 198//19 242//19
f  202//18 243//18 242//18
f  200//18 202//18 242//18
f  184//17 244//17 243//17
f  202//17 184//17 243//17
f  183//16 245//16 244//16
f  184//16 183//16 244//16
f  246//51 245//51 182//51
f  182//51 245//51 183//51
f  247//50 246//50 181//50
f  181//50 246//50 182//50
f  248//49 247//49 180//49
f  180//49 247//49 181//49
f  249//48 248//48 179//48
f  179//48 248//48 180//48
f  250//47 249//47 177//47
f  177//47 249//47 179//47
f  251//10 250//10 178//10
f  178//10 250//10 177//10
f  252//9 251//9 176//9
f  176//9 251//9 178//9
f  231//8 252//8 175//8
f  175//8 252//8 176//8
f  205//4 206//4 208//4
f  210//4 205//4 209//4
f  209//4 205//4 208//4
f  211//4 205//4 210//4
f  212//4 205//4 211//4
f  213//4 205//4 212//4
f  214//4 205//4 213//4
f  215//4 205//4 214//4
f  216//4 205//4 215//4
f  217//4 205//4 216//4
f  218//4 205//4 217//4
f  219//4 205//4 218//4
f  220//4 205//4 219//4
f  221//4 205//4 220//4
f  222//4 205//4 221//4
f  223//4 205//4 222//4
f  224//4 205//4 223//4
f  225//4 205//4 224//4
f  226//4 205//4 225//4
f  227//4 205//4 226//4
f  228//4 205//4 227//4
f  207//4 205//4 228//4
f  229//2 232//2 230//2
f  230//2 232//2 233//2
f  230//2 233//2 234//2
f  230//2 234//2 235//2
f  230//2 235//2 236//2
f  230//2 236//2 237//2
f  230//2 237//2 238//2
f  230//2 238//2 239//2
f  230//2 239//2 240//2
f  230//2 240//2 241//2
f  230//2 241//2 242//2
f  230//2 242//2 243//2
f  230//2 243//2 244//2
f  230//2 244//2 245//2
f  230//2 245//2 246//2
f  230//2 246//2 247//2
f  230//2 247//2 248//2
f  230//2 248//2 249//2
f  230//2 249//2 250//2
f  230//2 250//2 251//2
f  230//2 251//2 252//2
f  230//2 252//2 231//2
f  253//4 254//4 255//4
f  256//4 253//4 255//4
f  254//58 257//58 258//58
f  255//58 254//58 258//58
f  259//59 257//59 253//59
f  253//59 257//59 254//59
f  256//60 260//60 253//60
f  253//60 260//60 259//60
f  255//59 261//59 262//59
f  258//59 261//59 255//59
f  263//59 255//59 262//59
f  255//59 263//59 256//59
f  260//59 261//59 258//59
f  264//59 261//59 260//59
f  264//59 260//59 256//59
f  264//59 256//59 263//59
f  260//2 258//2 259//2
f  259//2 258//2 257//2
f  263//4 262//4 265//4
f  266//4 263//4 265//4
f  266//60 267//60 263//60
f  263//60 267//60 264//60
f  262//58 261//58 268//58
f  265//58 262//58 268//58
f  267//2 268//2 264//2
f  264//2 268//2 261//2
f  269//61 265//61 268//61
f  270//61 269//61 268//61
f  271//61 265//61 269//61
f  272//61 270//61 268//61
f  267//61 266//61 268//61
f  266//61 273//61 268//61
f  273//61 274//61 268//61
f  274//61 272//61 268//61
f  266//61 275//61 273//61
f  266//61 276//61 275//61
f  266//61 277//61 276//61
f  266//61 265//61 278//61
f  266//61 278//61 279//61
f  266//61 279//61 277//61
f  280//61 278//61 265//61
f  280//61 265//61 281//61
f  281//61 265//61 282//61
f  271//61 282//61 265//61
f  276//62 283//62 275//62
f  275//62 283//62 284//62
f  284//63 285//63 275//63
f  275//63 285//63 273//63
f  277//64 286//64 276//64
f  276//64 286//64 283//64
f  277//65 279//65 287//65
f  286//65 277//65 287//65
f  279//4 278//4 288//4
f  287//4 279//4 288//4
f  278//66 280//66 289//66
f  288//66 278//66 289//66
f  280//67 281//67 290//67
f  289//67 280//67 290//67
f  281//68 282//68 291//68
f  290//68 281//68 291//68
f  271//69 292//69 291//69
f  282//69 271//69 291//69
f  269//70 293//70 292//70
f  271//70 269//70 292//70
f  294//71 293//71 270//71
f  270//71 293//71 269//71
f  295//2 294//2 272//2
f  272//2 294//2 270//2
f  296//72 295//72 274//72
f  274//72 295//72 272//72
f  285//73 296//73 273//73
f  273//73 296//73 274//73
f  291//59 297//59 298//59
f  292//59 297//59 291//59
f  290//59 291//59 298//59
f  299//59 287//59 298//59
f  287//59 288//59 298//59
f  288//59 289//59 298//59
f  289//59 290//59 298//59
f  300//59 284//59 299//59
f  284//59 283//59 299//59
f  283//59 286//59 299//59
f  287//59 299//59 286//59
f  300//59 297//59 296//59
f  300//59 296//59 285//59
f  300//59 285//59 284//59
f  296//59 297//59 295//59
f  295//59 297//59 294//59
f  294//59 297//59 293//59
f  293//59 297//59 292//59
f  299//4 298//4 301//4
f  302//4 299//4 301//4
f  302//60 303//60 299//60
f  299//60 303//60 300//60
f  298//58 297//58 304//58
f  301//58 298//58 304//58
f  303//2 304//2 300//2
f  300//2 304//2 297//2
f  302//61 301//61 304//61
f  303//61 302//61 304//61

