solid OpenSCAD_Model
  facet normal -1 0 0
    outer loop
      vertex -87.5 -120 180
      vertex -87.5 120 180
      vertex -87.5 -120 0
    endloop
  endfacet
  facet normal -1 0 0
    outer loop
      vertex -87.5 -120 0
      vertex -87.5 120 180
      vertex -87.5 120 0
    endloop
  endfacet
  facet normal 0 0 1
    outer loop
      vertex -87.5 -120 180
      vertex 87.5 -120 180
      vertex 87.5 120 180
    endloop
  endfacet
  facet normal 0 0 1
    outer loop
      vertex -87.5 120 180
      vertex -87.5 -120 180
      vertex 87.5 120 180
    endloop
  endfacet
  facet normal 0 -1 0
    outer loop
      vertex -87.5 -120 0
      vertex 87.5 -120 0
      vertex 87.5 -120 180
    endloop
  endfacet
  facet normal 0 -1 0
    outer loop
      vertex -87.5 -120 180
      vertex -87.5 -120 0
      vertex 87.5 -120 180
    endloop
  endfacet
  facet normal 0 0 -1
    outer loop
      vertex -87.5 120 0
      vertex 87.5 120 0
      vertex -87.5 -120 0
    endloop
  endfacet
  facet normal 0 0 -1
    outer loop
      vertex -87.5 -120 0
      vertex 87.5 120 0
      vertex 87.5 -120 0
    endloop
  endfacet
  facet normal 0 1 0
    outer loop
      vertex -87.5 120 180
      vertex 87.5 120 180
      vertex -87.5 120 0
    endloop
  endfacet
  facet normal 0 1 0
    outer loop
      vertex -87.5 120 0
      vertex 87.5 120 180
      vertex 87.5 120 0
    endloop
  endfacet
  facet normal 1 0 0
    outer loop
      vertex 87.5 -120 0
      vertex 87.5 120 0
      vertex 87.5 120 180
    endloop
  endfacet
  facet normal 1 0 0
    outer loop
      vertex 87.5 -120 180
      vertex 87.5 -120 0
      vertex 87.5 120 180
    endloop
  endfacet
endsolid OpenSCAD_Model
