# Blender v2.63 (sub 0) OBJ File: 'cube.blend'
# www.blender.org
mtllib cube.mtl
o Cube_Cube.001
v -87.500000 -120.000000 180.000000
v -87.500000 120.000000 180.000000
v -87.500000 -120.000000 0.000000
v -87.500000 120.000000 0.000000
v 87.500000 -120.000000 180.000000
v 87.500000 120.000000 180.000000
v 87.500000 -120.000000 0.000000
v 87.500000 120.000000 0.000000
vn -1.000000 0.000000 0.000000
vn 0.000000 0.000000 1.000000
vn -0.000000 -1.000000 -0.000000
vn 0.000000 0.000000 -1.000000
vn 0.000000 1.000000 -0.000000
vn 1.000000 0.000000 0.000000
usemtl Material.001
s off
f 1//1 2//1 3//1
f 3//1 2//1 4//1
f 1//2 5//2 6//2
f 2//2 1//2 6//2
f 3//3 7//3 5//3
f 1//3 3//3 5//3
f 4//4 8//4 3//4
f 3//4 8//4 7//4
f 2//5 6//5 4//5
f 4//5 6//5 8//5
f 7//6 8//6 6//6
f 5//6 7//6 6//6
