# File produced by Open Asset Import Library (http://www.assimp.sf.net)
# (assimp v3.1.187496374)

mtllib obstacle.obj.mtl

# 42 vertex positions
v  -0.629645 0.604429 -232.444
v  97.7483 -70.8705 -197.9
v  -38.2059 -115.045 -197.9
v  -122.232 0.604429 -197.899
v  -38.2059 116.254 -197.9
v  97.7483 72.0793 -197.9
v  60.1724 -186.521 -122.746
v  -64.5587 -196.152 -104.584
v  -159.809 -115.046 -122.745
v  -207.512 0.604429 -104.584
v  -159.809 116.255 -122.745
v  -220.611 -70.8708 -1.14169
v  -136.586 -186.523 -1.14169
v  -0.629645 -230.697 -1.14169
v  -168.001 -120.997 102.301
v  -61.4317 -186.521 120.462
v  -220.611 72.0796 -1.14169
v  -197.386 0.604429 120.462
v  -136.586 187.732 -1.14169
v  -168.001 122.206 102.301
v  -99.0076 72.0793 195.616
v  -99.0076 -70.8705 195.616
v  36.9466 -115.045 195.616
v  -0.629645 0.604429 230.16
v  36.9466 116.254 195.616
v  -61.4317 187.73 120.462
v  63.2994 197.361 102.301
v  -0.629645 231.906 -1.14169
v  120.973 0.604429 195.616
v  158.55 116.255 120.462
v  206.253 0.604429 102.3
v  158.55 -115.046 120.462
v  219.352 72.0796 -1.14169
v  135.326 187.732 -1.14169
v  166.742 122.206 -104.584
v  60.1724 187.73 -122.746
v  219.352 -70.8708 -1.14169
v  196.127 0.604429 -122.745
v  166.742 -120.997 -104.584
v  135.326 -186.523 -1.14169
v  -64.5587 197.361 -104.584
v  63.2994 -196.152 102.301

# 0 UV coordinates

# 42 vertex normals
vn -1.81588e-06 0 -1
vn 0.425324 -0.309015 -0.850652
vn -0.162459 -0.499997 -0.850653
vn -0.525729 0 -0.850652
vn -0.162459 0.499997 -0.850653
vn 0.425324 0.309015 -0.850652
vn 0.262869 -0.809015 -0.525733
vn -0.276392 -0.85065 -0.447217
vn -0.68819 -0.500001 -0.525732
vn -0.894427 0 -0.447215
vn -0.68819 0.500001 -0.525732
vn -0.951056 -0.309018 2.18668e-07
vn -0.587787 -0.809016 -4.20931e-07
vn -5.46665e-09 -1 5.46665e-09
vn -0.723608 -0.525729 0.447215
vn -0.262869 -0.809015 0.525733
vn -0.951056 0.309018 2.18668e-07
vn -0.85065 0 0.525732
vn -0.587787 0.809016 -4.2093e-07
vn -0.723608 0.525729 0.447215
vn -0.425324 0.309015 0.850652
vn -0.425324 -0.309015 0.850652
vn 0.162459 -0.499997 0.850653
vn 1.84539e-06 -6.9441e-09 1
vn 0.162459 0.499997 0.850653
vn -0.262869 0.809015 0.525733
vn 0.276392 0.85065 0.447217
vn 0 1 6.83331e-09
vn 0.525729 0 0.850652
vn 0.68819 0.500001 0.525732
vn 0.894426 0 0.447215
vn 0.68819 -0.500001 0.525732
vn 0.951056 0.309018 -2.21401e-07
vn 0.587787 0.809016 4.18197e-07
vn 0.723608 0.525729 -0.447215
vn 0.262869 0.809015 -0.525733
vn 0.951056 -0.309018 -2.18668e-07
vn 0.85065 0 -0.525733
vn 0.723608 -0.525729 -0.447215
vn 0.587787 -0.809016 4.26397e-07
vn -0.276392 0.85065 -0.447217
vn 0.276392 -0.85065 0.447217

# Mesh 'Exported' with 80 faces
g Exported
usemtl DefaultMaterial
f  1//1 2//2 3//3
f  1//1 3//3 4//4
f  1//1 4//4 5//5
f  1//1 5//5 6//6
f  2//2 1//1 6//6
f  3//3 7//7 8//8
f  3//3 2//2 7//7
f  4//4 3//3 9//9
f  3//3 8//8 9//9
f  4//4 9//9 10//10
f  5//5 4//4 11//11
f  4//4 10//10 11//11
f  10//10 9//9 12//12
f  12//12 9//9 13//13
f  9//9 8//8 13//13
f  8//8 7//7 14//14
f  8//8 14//14 13//13
f  12//12 13//13 15//15
f  13//13 16//16 15//15
f  13//13 14//14 16//16
f  10//10 12//12 17//17
f  17//17 12//12 18//18
f  12//12 15//15 18//18
f  11//11 10//10 17//17
f  19//19 17//17 20//20
f  19//19 11//11 17//17
f  17//17 18//18 20//20
f  20//20 18//18 21//21
f  21//21 18//18 22//22
f  18//18 15//15 22//22
f  15//15 16//16 22//22
f  22//22 23//23 24//24
f  22//22 16//16 23//23
f  21//21 22//22 24//24
f  25//25 21//21 24//24
f  25//25 26//26 21//21
f  26//26 20//20 21//21
f  19//19 20//20 26//26
f  27//27 26//26 25//25
f  28//28 26//26 27//27
f  28//28 19//19 26//26
f  29//29 25//25 24//24
f  29//29 30//30 25//25
f  30//30 27//27 25//25
f  23//23 29//29 24//24
f  31//31 30//30 29//29
f  23//23 32//32 29//29
f  32//32 31//31 29//29
f  33//33 30//30 31//31
f  33//33 34//34 30//30
f  34//34 27//27 30//30
f  34//34 28//28 27//27
f  35//35 36//36 34//34
f  35//35 34//34 33//33
f  34//34 36//36 28//28
f  37//37 33//33 31//31
f  37//37 38//38 33//33
f  38//38 35//35 33//33
f  37//37 31//31 32//32
f  39//39 38//38 37//37
f  39//39 37//37 40//40
f  40//40 37//37 32//32
f  39//39 2//2 38//38
f  38//38 6//6 35//35
f  38//38 2//2 6//6
f  6//6 36//36 35//35
f  6//6 5//5 36//36
f  5//5 41//41 36//36
f  36//36 41//41 28//28
f  5//5 11//11 41//41
f  41//41 11//11 19//19
f  41//41 19//19 28//28
f  2//2 39//39 7//7
f  7//7 39//39 40//40
f  14//14 7//7 40//40
f  14//14 40//40 42//42
f  14//14 42//42 16//16
f  42//42 32//32 23//23
f  40//40 32//32 42//42
f  16//16 42//42 23//23

