# File produced by Open Asset Import Library (http://www.assimp.sf.net)
# (assimp v3.1.187496374)

mtllib roue.obj.mtl

# 48 vertex positions
v  -4.7191 -10 39.4353
v  0.4719 -10 39.9944
v  0.4719 10 39.9944
v  -4.7191 10 39.4353
v  5.6308 -10 39.191
v  5.6308 10 39.191
v  -19.9944 -10 20.4719
v  -19.4353 -10 15.2809
v  -17.5517 -10 10.4115
v  -10.4059 -10 2.92028
v  -14.4719 -10 6.19551
v  -5.6308 -10 0.809007
v  -0.4719 -10 0.005569
v  4.7191 -10 0.564718
v  9.5885 -10 2.44835
v  13.8045 -10 5.5281
v  17.0797 -10 9.59408
v  19.191 -10 14.3692
v  19.9944 -10 19.5281
v  19.4353 -10 24.7191
v  17.5516 -10 29.5885
v  14.4719 -10 33.8045
v  10.4059 -10 37.0797
v  -9.5885 -10 37.5516
v  -13.8045 -10 34.4719
v  -17.0797 -10 30.4059
v  -19.191 -10 25.6308
v  -9.5885 10 37.5516
v  -19.191 10 25.6308
v  -17.0797 10 30.4059
v  -19.9944 10 20.4719
v  -13.8045 10 34.4719
v  10.4059 10 37.0797
v  14.4719 10 33.8045
v  17.5516 10 29.5885
v  19.4353 10 24.7191
v  19.9944 10 19.5281
v  19.191 10 14.3692
v  17.0797 10 9.59408
v  13.8045 10 5.5281
v  9.5885 10 2.44835
v  4.7191 10 0.564718
v  -0.4719 10 0.005569
v  -5.6308 10 0.809007
v  -10.4059 10 2.92028
v  -14.4719 10 6.19551
v  -17.5517 10 10.4115
v  -19.4353 10 15.2809

# 0 UV coordinates

# 26 vertex normals
vn -0.107086 0 0.99425
vn 0.153876 0 0.98809
vn 0 -1 0
vn -0.360789 0 0.932647
vn 0 1 0
vn 0.404384 0 0.914589
vn -0.99425 0 -0.107086
vn -0.98809 0 0.153876
vn -0.914589 0 0.404384
vn -0.778772 0 0.627308
vn -0.589864 0 0.807503
vn 0.627308 0 0.778772
vn 0.807503 0 0.589864
vn 0.932647 0 0.360789
vn 0.99425 0 0.107086
vn 0.98809 0 -0.153876
vn 0.91459 0 -0.404382
vn 0.77877 0 -0.627309
vn 0.58987 0 -0.807498
vn 0.360778 0 -0.932652
vn 0.107096 0 -0.994249
vn -0.153883 0 -0.988089
vn -0.404379 0 -0.914591
vn -0.627311 0 -0.778769
vn -0.807493 0 -0.589877
vn -0.932654 0 -0.360773

# Mesh 'OpenSCAD_Model' with 92 faces
g OpenSCAD_Model
usemtl DefaultMaterial
f  1//1 2//1 3//1
f  4//1 1//1 3//1
f  2//2 5//2 6//2
f  3//2 2//2 6//2
f  7//3 8//3 9//3
f  10//3 7//3 11//3
f  11//3 7//3 9//3
f  12//3 7//3 10//3
f  13//3 7//3 12//3
f  14//3 7//3 13//3
f  15//3 7//3 14//3
f  16//3 7//3 15//3
f  17//3 7//3 16//3
f  18//3 7//3 17//3
f  19//3 7//3 18//3
f  20//3 7//3 19//3
f  21//3 7//3 20//3
f  22//3 7//3 21//3
f  23//3 7//3 22//3
f  5//3 7//3 23//3
f  2//3 7//3 5//3
f  1//3 7//3 2//3
f  24//3 7//3 1//3
f  25//3 7//3 24//3
f  26//3 7//3 25//3
f  27//3 7//3 26//3
f  24//4 1//4 4//4
f  28//4 24//4 4//4
f  29//5 30//5 31//5
f  31//5 30//5 32//5
f  31//5 32//5 28//5
f  31//5 28//5 4//5
f  31//5 4//5 3//5
f  31//5 3//5 6//5
f  31//5 6//5 33//5
f  31//5 33//5 34//5
f  31//5 34//5 35//5
f  31//5 35//5 36//5
f  31//5 36//5 37//5
f  31//5 37//5 38//5
f  31//5 38//5 39//5
f  31//5 39//5 40//5
f  31//5 40//5 41//5
f  31//5 41//5 42//5
f  31//5 42//5 43//5
f  31//5 43//5 44//5
f  31//5 44//5 45//5
f  31//5 45//5 46//5
f  31//5 46//5 47//5
f  31//5 47//5 48//5
f  5//6 23//6 33//6
f  6//6 5//6 33//6
f  31//7 48//7 7//7
f  7//7 48//7 8//7
f  27//8 29//8 7//8
f  7//8 29//8 31//8
f  26//9 30//9 27//9
f  27//9 30//9 29//9
f  25//10 32//10 26//10
f  26//10 32//10 30//10
f  25//11 24//11 28//11
f  32//11 25//11 28//11
f  23//12 22//12 34//12
f  33//12 23//12 34//12
f  22//13 21//13 35//13
f  34//13 22//13 35//13
f  21//14 20//14 36//14
f  35//14 21//14 36//14
f  20//15 19//15 37//15
f  36//15 20//15 37//15
f  18//16 38//16 37//16
f  19//16 18//16 37//16
f  17//17 39//17 38//17
f  18//17 17//17 38//17
f  16//18 40//18 39//18
f  17//18 16//18 39//18
f  41//19 40//19 15//19
f  15//19 40//19 16//19
f  42//20 41//20 14//20
f  14//20 41//20 15//20
f  43//21 42//21 13//21
f  13//21 42//21 14//21
f  44//22 43//22 12//22
f  12//22 43//22 13//22
f  45//23 44//23 10//23
f  10//23 44//23 12//23
f  46//24 45//24 11//24
f  11//24 45//24 10//24
f  47//25 46//25 9//25
f  9//25 46//25 11//25
f  48//26 47//26 8//26
f  8//26 47//26 9//26

