solid OpenSCAD_Model
  facet normal 0 1 -2.22045e-16
    outer loop
      vertex -37.1696 16.25 45.9006
      vertex -34.7147 16.25 53.456
      vertex -38 16.25 38
    endloop
  endfacet
  facet normal 0 1 -2.22045e-16
    outer loop
      vertex -38 16.25 38
      vertex -34.7147 16.25 53.456
      vertex -30.7426 16.25 60.3358
    endloop
  endfacet
  facet normal 0 1 -2.22045e-16
    outer loop
      vertex -38 16.25 38
      vertex -30.7426 16.25 60.3358
      vertex -25.427 16.25 66.2395
    endloop
  endfacet
  facet normal 0 1 -2.22045e-16
    outer loop
      vertex -38 16.25 38
      vertex -25.427 16.25 66.2395
      vertex -19 16.25 70.909
    endloop
  endfacet
  facet normal 0 1 -2.22045e-16
    outer loop
      vertex -38 16.25 38
      vertex -19 16.25 70.909
      vertex -11.7426 16.25 74.1401
    endloop
  endfacet
  facet normal 0 1 -2.22045e-16
    outer loop
      vertex -38 16.25 38
      vertex -11.7426 16.25 74.1401
      vertex -3.97208 16.25 75.7918
    endloop
  endfacet
  facet normal 0 1 -2.22045e-16
    outer loop
      vertex -38 16.25 38
      vertex -3.97208 16.25 75.7918
      vertex 3.97208 16.25 75.7918
    endloop
  endfacet
  facet normal 0 1 -2.22045e-16
    outer loop
      vertex -38 16.25 38
      vertex 3.97208 16.25 75.7918
      vertex 11.7426 16.25 74.1401
    endloop
  endfacet
  facet normal 0 1 -2.22045e-16
    outer loop
      vertex -38 16.25 38
      vertex 11.7426 16.25 74.1401
      vertex 19 16.25 70.909
    endloop
  endfacet
  facet normal 0 1 -2.22045e-16
    outer loop
      vertex -38 16.25 38
      vertex 19 16.25 70.909
      vertex 25.427 16.25 66.2395
    endloop
  endfacet
  facet normal 0 1 -2.22045e-16
    outer loop
      vertex -38 16.25 38
      vertex 25.427 16.25 66.2395
      vertex 30.7426 16.25 60.3358
    endloop
  endfacet
  facet normal 0 1 -2.22045e-16
    outer loop
      vertex -38 16.25 38
      vertex 30.7426 16.25 60.3358
      vertex 34.7147 16.25 53.456
    endloop
  endfacet
  facet normal 0 1 -2.22045e-16
    outer loop
      vertex -38 16.25 38
      vertex 34.7147 16.25 53.456
      vertex 37.1696 16.25 45.9006
    endloop
  endfacet
  facet normal 0 1 -2.22045e-16
    outer loop
      vertex -38 16.25 38
      vertex 37.1696 16.25 45.9006
      vertex 38 16.25 38
    endloop
  endfacet
  facet normal 0 1 -2.22045e-16
    outer loop
      vertex -38 16.25 38
      vertex 38 16.25 38
      vertex 37.1696 16.25 30.0994
    endloop
  endfacet
  facet normal 0 1 -2.22045e-16
    outer loop
      vertex -38 16.25 38
      vertex 37.1696 16.25 30.0994
      vertex 34.7147 16.25 22.544
    endloop
  endfacet
  facet normal 0 1 -2.22045e-16
    outer loop
      vertex -38 16.25 38
      vertex 34.7147 16.25 22.544
      vertex 30.7426 16.25 15.6642
    endloop
  endfacet
  facet normal 0 1 -2.22045e-16
    outer loop
      vertex -38 16.25 38
      vertex 30.7426 16.25 15.6642
      vertex 25.427 16.25 9.7605
    endloop
  endfacet
  facet normal 0 1 -2.22045e-16
    outer loop
      vertex -38 16.25 38
      vertex 25.427 16.25 9.7605
      vertex 19 16.25 5.09103
    endloop
  endfacet
  facet normal 0 1 -2.22045e-16
    outer loop
      vertex -38 16.25 38
      vertex 19 16.25 5.09103
      vertex 11.7426 16.25 1.85985
    endloop
  endfacet
  facet normal 0 1 -2.22045e-16
    outer loop
      vertex -38 16.25 38
      vertex 11.7426 16.25 1.85985
      vertex 3.97208 16.25 0.208168
    endloop
  endfacet
  facet normal 0 1 -2.22045e-16
    outer loop
      vertex -38 16.25 38
      vertex 3.97208 16.25 0.208168
      vertex -3.97208 16.25 0.208168
    endloop
  endfacet
  facet normal 0 1 -2.22045e-16
    outer loop
      vertex -38 16.25 38
      vertex -3.97208 16.25 0.208168
      vertex -11.7426 16.25 1.85985
    endloop
  endfacet
  facet normal 0 1 -2.22045e-16
    outer loop
      vertex -38 16.25 38
      vertex -11.7426 16.25 1.85985
      vertex -19 16.25 5.09103
    endloop
  endfacet
  facet normal 0 1 -2.22045e-16
    outer loop
      vertex -38 16.25 38
      vertex -19 16.25 5.09103
      vertex -25.427 16.25 9.7605
    endloop
  endfacet
  facet normal 0 1 -2.22045e-16
    outer loop
      vertex -38 16.25 38
      vertex -25.427 16.25 9.7605
      vertex -30.7426 16.25 15.6642
    endloop
  endfacet
  facet normal 0 1 -2.22045e-16
    outer loop
      vertex -38 16.25 38
      vertex -30.7426 16.25 15.6642
      vertex -34.7147 16.25 22.544
    endloop
  endfacet
  facet normal 0 1 -2.22045e-16
    outer loop
      vertex -38 16.25 38
      vertex -34.7147 16.25 22.544
      vertex -37.1696 16.25 30.0994
    endloop
  endfacet
  facet normal 0.994522 2.321e-17 0.104528
    outer loop
      vertex 37.1696 16.25 45.9006
      vertex 37.1696 -16.25 45.9006
      vertex 38 -16.25 38
    endloop
  endfacet
  facet normal 0.994522 2.321e-17 0.104528
    outer loop
      vertex 38 16.25 38
      vertex 37.1696 16.25 45.9006
      vertex 38 -16.25 38
    endloop
  endfacet
  facet normal 0.951056 6.86156e-17 0.309017
    outer loop
      vertex 34.7147 16.25 53.456
      vertex 34.7147 -16.25 53.456
      vertex 37.1696 -16.25 45.9006
    endloop
  endfacet
  facet normal 0.951056 6.86156e-17 0.309017
    outer loop
      vertex 37.1696 16.25 45.9006
      vertex 34.7147 16.25 53.456
      vertex 37.1696 -16.25 45.9006
    endloop
  endfacet
  facet normal -0.994522 2.321e-17 0.104528
    outer loop
      vertex -38 -16.25 38
      vertex -37.1696 -16.25 45.9006
      vertex -38 16.25 38
    endloop
  endfacet
  facet normal -0.994522 2.321e-17 0.104528
    outer loop
      vertex -38 16.25 38
      vertex -37.1696 -16.25 45.9006
      vertex -37.1696 16.25 45.9006
    endloop
  endfacet
  facet normal -0.994522 -2.321e-17 -0.104528
    outer loop
      vertex -37.1696 16.25 30.0994
      vertex -37.1696 -16.25 30.0994
      vertex -38 16.25 38
    endloop
  endfacet
  facet normal -0.994522 -2.321e-17 -0.104528
    outer loop
      vertex -38 16.25 38
      vertex -37.1696 -16.25 30.0994
      vertex -38 -16.25 38
    endloop
  endfacet
  facet normal -0.951056 -6.86156e-17 -0.309017
    outer loop
      vertex -34.7147 16.25 22.544
      vertex -34.7147 -16.25 22.544
      vertex -37.1696 16.25 30.0994
    endloop
  endfacet
  facet normal -0.951056 -6.86156e-17 -0.309017
    outer loop
      vertex -37.1696 16.25 30.0994
      vertex -34.7147 -16.25 22.544
      vertex -37.1696 -16.25 30.0994
    endloop
  endfacet
  facet normal -0.866025 -1.11022e-16 -0.5
    outer loop
      vertex -30.7426 16.25 15.6642
      vertex -30.7426 -16.25 15.6642
      vertex -34.7147 16.25 22.544
    endloop
  endfacet
  facet normal -0.866025 -1.11022e-16 -0.5
    outer loop
      vertex -34.7147 16.25 22.544
      vertex -30.7426 -16.25 15.6642
      vertex -34.7147 -16.25 22.544
    endloop
  endfacet
  facet normal -0.743145 -1.48577e-16 -0.669131
    outer loop
      vertex -25.427 16.25 9.7605
      vertex -25.427 -16.25 9.7605
      vertex -30.7426 16.25 15.6642
    endloop
  endfacet
  facet normal -0.743145 -1.48577e-16 -0.669131
    outer loop
      vertex -30.7426 16.25 15.6642
      vertex -25.427 -16.25 9.7605
      vertex -30.7426 -16.25 15.6642
    endloop
  endfacet
  facet normal -0.587785 -1.79638e-16 -0.809017
    outer loop
      vertex -19 16.25 5.09103
      vertex -19 -16.25 5.09104
      vertex -25.427 16.25 9.7605
    endloop
  endfacet
  facet normal -0.587785 -1.79638e-16 -0.809017
    outer loop
      vertex -25.427 16.25 9.7605
      vertex -19 -16.25 5.09104
      vertex -25.427 -16.25 9.7605
    endloop
  endfacet
  facet normal -0.406737 -2.02848e-16 -0.913545
    outer loop
      vertex -11.7426 16.25 1.85985
      vertex -11.7426 -16.25 1.85985
      vertex -19 16.25 5.09103
    endloop
  endfacet
  facet normal -0.406737 -2.02848e-16 -0.913545
    outer loop
      vertex -19 16.25 5.09103
      vertex -11.7426 -16.25 1.85985
      vertex -19 -16.25 5.09104
    endloop
  endfacet
  facet normal -0.207912 -2.17192e-16 -0.978148
    outer loop
      vertex -3.97208 16.25 0.208168
      vertex -3.97208 -16.25 0.208168
      vertex -11.7426 16.25 1.85985
    endloop
  endfacet
  facet normal -0.207912 -2.17192e-16 -0.978148
    outer loop
      vertex -11.7426 16.25 1.85985
      vertex -3.97208 -16.25 0.208168
      vertex -11.7426 -16.25 1.85985
    endloop
  endfacet
  facet normal 0 -2.22045e-16 -1
    outer loop
      vertex 3.97208 16.25 0.208168
      vertex 3.97208 -16.25 0.208168
      vertex -3.97208 16.25 0.208168
    endloop
  endfacet
  facet normal 0 -2.22045e-16 -1
    outer loop
      vertex -3.97208 16.25 0.208168
      vertex 3.97208 -16.25 0.208168
      vertex -3.97208 -16.25 0.208168
    endloop
  endfacet
  facet normal 0.207912 -2.17192e-16 -0.978148
    outer loop
      vertex 11.7426 16.25 1.85985
      vertex 11.7426 -16.25 1.85985
      vertex 3.97208 16.25 0.208168
    endloop
  endfacet
  facet normal 0.207912 -2.17192e-16 -0.978148
    outer loop
      vertex 3.97208 16.25 0.208168
      vertex 11.7426 -16.25 1.85985
      vertex 3.97208 -16.25 0.208168
    endloop
  endfacet
  facet normal 0.406737 -2.02848e-16 -0.913545
    outer loop
      vertex 19 16.25 5.09103
      vertex 19 -16.25 5.09104
      vertex 11.7426 16.25 1.85985
    endloop
  endfacet
  facet normal 0.406737 -2.02848e-16 -0.913545
    outer loop
      vertex 11.7426 16.25 1.85985
      vertex 19 -16.25 5.09104
      vertex 11.7426 -16.25 1.85985
    endloop
  endfacet
  facet normal 0.587785 -1.79638e-16 -0.809017
    outer loop
      vertex 25.427 16.25 9.7605
      vertex 25.427 -16.25 9.7605
      vertex 19 16.25 5.09103
    endloop
  endfacet
  facet normal 0.587785 -1.79638e-16 -0.809017
    outer loop
      vertex 19 16.25 5.09103
      vertex 25.427 -16.25 9.7605
      vertex 19 -16.25 5.09104
    endloop
  endfacet
  facet normal 0.743145 -1.48577e-16 -0.669131
    outer loop
      vertex 25.427 16.25 9.7605
      vertex 30.7426 16.25 15.6642
      vertex 30.7426 -16.25 15.6642
    endloop
  endfacet
  facet normal 0.743145 -1.48577e-16 -0.669131
    outer loop
      vertex 25.427 -16.25 9.7605
      vertex 25.427 16.25 9.7605
      vertex 30.7426 -16.25 15.6642
    endloop
  endfacet
  facet normal 0.866025 -1.11022e-16 -0.5
    outer loop
      vertex 30.7426 16.25 15.6642
      vertex 34.7147 16.25 22.544
      vertex 34.7147 -16.25 22.544
    endloop
  endfacet
  facet normal 0.866025 -1.11022e-16 -0.5
    outer loop
      vertex 30.7426 -16.25 15.6642
      vertex 30.7426 16.25 15.6642
      vertex 34.7147 -16.25 22.544
    endloop
  endfacet
  facet normal 0.951056 -6.86156e-17 -0.309017
    outer loop
      vertex 34.7147 16.25 22.544
      vertex 37.1696 16.25 30.0994
      vertex 37.1696 -16.25 30.0994
    endloop
  endfacet
  facet normal 0.951056 -6.86156e-17 -0.309017
    outer loop
      vertex 34.7147 -16.25 22.544
      vertex 34.7147 16.25 22.544
      vertex 37.1696 -16.25 30.0994
    endloop
  endfacet
  facet normal 0.994522 -2.321e-17 -0.104528
    outer loop
      vertex 37.1696 16.25 30.0994
      vertex 38 16.25 38
      vertex 38 -16.25 38
    endloop
  endfacet
  facet normal 0.994522 -2.321e-17 -0.104528
    outer loop
      vertex 37.1696 -16.25 30.0994
      vertex 37.1696 16.25 30.0994
      vertex 38 -16.25 38
    endloop
  endfacet
  facet normal 0.866025 1.11022e-16 0.5
    outer loop
      vertex 30.7426 16.25 60.3358
      vertex 30.7426 -16.25 60.3358
      vertex 34.7147 -16.25 53.456
    endloop
  endfacet
  facet normal 0.866025 1.11022e-16 0.5
    outer loop
      vertex 34.7147 16.25 53.456
      vertex 30.7426 16.25 60.3358
      vertex 34.7147 -16.25 53.456
    endloop
  endfacet
  facet normal 0.743145 1.48577e-16 0.669131
    outer loop
      vertex 25.427 16.25 66.2395
      vertex 25.427 -16.25 66.2395
      vertex 30.7426 -16.25 60.3358
    endloop
  endfacet
  facet normal 0.743145 1.48577e-16 0.669131
    outer loop
      vertex 30.7426 16.25 60.3358
      vertex 25.427 16.25 66.2395
      vertex 30.7426 -16.25 60.3358
    endloop
  endfacet
  facet normal 0.587785 1.79638e-16 0.809017
    outer loop
      vertex 19 16.25 70.909
      vertex 19 -16.25 70.909
      vertex 25.427 -16.25 66.2395
    endloop
  endfacet
  facet normal 0.587785 1.79638e-16 0.809017
    outer loop
      vertex 25.427 16.25 66.2395
      vertex 19 16.25 70.909
      vertex 25.427 -16.25 66.2395
    endloop
  endfacet
  facet normal 0.406737 2.02848e-16 0.913545
    outer loop
      vertex 11.7426 16.25 74.1401
      vertex 11.7426 -16.25 74.1401
      vertex 19 -16.25 70.909
    endloop
  endfacet
  facet normal 0.406737 2.02848e-16 0.913545
    outer loop
      vertex 19 16.25 70.909
      vertex 11.7426 16.25 74.1401
      vertex 19 -16.25 70.909
    endloop
  endfacet
  facet normal 0.207912 2.17192e-16 0.978148
    outer loop
      vertex 3.97208 16.25 75.7918
      vertex 3.97208 -16.25 75.7918
      vertex 11.7426 -16.25 74.1401
    endloop
  endfacet
  facet normal 0.207912 2.17192e-16 0.978148
    outer loop
      vertex 11.7426 16.25 74.1401
      vertex 3.97208 16.25 75.7918
      vertex 11.7426 -16.25 74.1401
    endloop
  endfacet
  facet normal 0 2.22045e-16 1
    outer loop
      vertex -3.97208 16.25 75.7918
      vertex -3.97208 -16.25 75.7918
      vertex 3.97208 -16.25 75.7918
    endloop
  endfacet
  facet normal 0 2.22045e-16 1
    outer loop
      vertex 3.97208 16.25 75.7918
      vertex -3.97208 16.25 75.7918
      vertex 3.97208 -16.25 75.7918
    endloop
  endfacet
  facet normal -0.207912 2.17192e-16 0.978148
    outer loop
      vertex -11.7426 16.25 74.1401
      vertex -11.7426 -16.25 74.1401
      vertex -3.97208 -16.25 75.7918
    endloop
  endfacet
  facet normal -0.207912 2.17192e-16 0.978148
    outer loop
      vertex -3.97208 16.25 75.7918
      vertex -11.7426 16.25 74.1401
      vertex -3.97208 -16.25 75.7918
    endloop
  endfacet
  facet normal -0.406737 2.02848e-16 0.913545
    outer loop
      vertex -19 16.25 70.909
      vertex -19 -16.25 70.909
      vertex -11.7426 -16.25 74.1401
    endloop
  endfacet
  facet normal -0.406737 2.02848e-16 0.913545
    outer loop
      vertex -11.7426 16.25 74.1401
      vertex -19 16.25 70.909
      vertex -11.7426 -16.25 74.1401
    endloop
  endfacet
  facet normal -0.587785 1.79638e-16 0.809017
    outer loop
      vertex -25.427 16.25 66.2395
      vertex -25.427 -16.25 66.2395
      vertex -19 -16.25 70.909
    endloop
  endfacet
  facet normal -0.587785 1.79638e-16 0.809017
    outer loop
      vertex -19 16.25 70.909
      vertex -25.427 16.25 66.2395
      vertex -19 -16.25 70.909
    endloop
  endfacet
  facet normal -0.743145 1.48577e-16 0.669131
    outer loop
      vertex -30.7426 -16.25 60.3358
      vertex -25.427 -16.25 66.2395
      vertex -30.7426 16.25 60.3358
    endloop
  endfacet
  facet normal -0.743145 1.48577e-16 0.669131
    outer loop
      vertex -30.7426 16.25 60.3358
      vertex -25.427 -16.25 66.2395
      vertex -25.427 16.25 66.2395
    endloop
  endfacet
  facet normal -0.866025 1.11022e-16 0.5
    outer loop
      vertex -34.7147 -16.25 53.456
      vertex -30.7426 -16.25 60.3358
      vertex -34.7147 16.25 53.456
    endloop
  endfacet
  facet normal -0.866025 1.11022e-16 0.5
    outer loop
      vertex -34.7147 16.25 53.456
      vertex -30.7426 -16.25 60.3358
      vertex -30.7426 16.25 60.3358
    endloop
  endfacet
  facet normal -0.951056 6.86156e-17 0.309017
    outer loop
      vertex -37.1696 -16.25 45.9006
      vertex -34.7147 -16.25 53.456
      vertex -37.1696 16.25 45.9006
    endloop
  endfacet
  facet normal -0.951056 6.86156e-17 0.309017
    outer loop
      vertex -37.1696 16.25 45.9006
      vertex -34.7147 -16.25 53.456
      vertex -34.7147 16.25 53.456
    endloop
  endfacet
  facet normal 0 -1 2.22045e-16
    outer loop
      vertex -38 -16.25 38
      vertex -37.1696 -16.25 30.0994
      vertex -34.7147 -16.25 22.544
    endloop
  endfacet
  facet normal 0 -1 2.22045e-16
    outer loop
      vertex -25.427 -16.25 9.7605
      vertex -38 -16.25 38
      vertex -30.7426 -16.25 15.6642
    endloop
  endfacet
  facet normal 0 -1 2.22045e-16
    outer loop
      vertex -30.7426 -16.25 15.6642
      vertex -38 -16.25 38
      vertex -34.7147 -16.25 22.544
    endloop
  endfacet
  facet normal 0 -1 2.22045e-16
    outer loop
      vertex -19 -16.25 5.09104
      vertex -38 -16.25 38
      vertex -25.427 -16.25 9.7605
    endloop
  endfacet
  facet normal 0 -1 2.22045e-16
    outer loop
      vertex -11.7426 -16.25 1.85985
      vertex -38 -16.25 38
      vertex -19 -16.25 5.09104
    endloop
  endfacet
  facet normal 0 -1 2.22045e-16
    outer loop
      vertex -3.97208 -16.25 0.208168
      vertex -38 -16.25 38
      vertex -11.7426 -16.25 1.85985
    endloop
  endfacet
  facet normal 0 -1 2.22045e-16
    outer loop
      vertex 3.97208 -16.25 0.208168
      vertex -38 -16.25 38
      vertex -3.97208 -16.25 0.208168
    endloop
  endfacet
  facet normal 0 -1 2.22045e-16
    outer loop
      vertex 11.7426 -16.25 1.85985
      vertex -38 -16.25 38
      vertex 3.97208 -16.25 0.208168
    endloop
  endfacet
  facet normal 0 -1 2.22045e-16
    outer loop
      vertex 19 -16.25 5.09104
      vertex -38 -16.25 38
      vertex 11.7426 -16.25 1.85985
    endloop
  endfacet
  facet normal 0 -1 2.22045e-16
    outer loop
      vertex 25.427 -16.25 9.7605
      vertex -38 -16.25 38
      vertex 19 -16.25 5.09104
    endloop
  endfacet
  facet normal 0 -1 2.22045e-16
    outer loop
      vertex 30.7426 -16.25 15.6642
      vertex -38 -16.25 38
      vertex 25.427 -16.25 9.7605
    endloop
  endfacet
  facet normal 0 -1 2.22045e-16
    outer loop
      vertex 34.7147 -16.25 22.544
      vertex -38 -16.25 38
      vertex 30.7426 -16.25 15.6642
    endloop
  endfacet
  facet normal 0 -1 2.22045e-16
    outer loop
      vertex 37.1696 -16.25 30.0994
      vertex -38 -16.25 38
      vertex 34.7147 -16.25 22.544
    endloop
  endfacet
  facet normal 0 -1 2.22045e-16
    outer loop
      vertex 38 -16.25 38
      vertex -38 -16.25 38
      vertex 37.1696 -16.25 30.0994
    endloop
  endfacet
  facet normal 0 -1 2.22045e-16
    outer loop
      vertex 37.1696 -16.25 45.9006
      vertex -38 -16.25 38
      vertex 38 -16.25 38
    endloop
  endfacet
  facet normal 0 -1 2.22045e-16
    outer loop
      vertex 34.7147 -16.25 53.456
      vertex -38 -16.25 38
      vertex 37.1696 -16.25 45.9006
    endloop
  endfacet
  facet normal 0 -1 2.22045e-16
    outer loop
      vertex 30.7426 -16.25 60.3358
      vertex -38 -16.25 38
      vertex 34.7147 -16.25 53.456
    endloop
  endfacet
  facet normal 0 -1 2.22045e-16
    outer loop
      vertex 25.427 -16.25 66.2395
      vertex -38 -16.25 38
      vertex 30.7426 -16.25 60.3358
    endloop
  endfacet
  facet normal 0 -1 2.22045e-16
    outer loop
      vertex 19 -16.25 70.909
      vertex -38 -16.25 38
      vertex 25.427 -16.25 66.2395
    endloop
  endfacet
  facet normal 0 -1 2.22045e-16
    outer loop
      vertex 11.7426 -16.25 74.1401
      vertex -38 -16.25 38
      vertex 19 -16.25 70.909
    endloop
  endfacet
  facet normal 0 -1 2.22045e-16
    outer loop
      vertex 3.97208 -16.25 75.7918
      vertex -38 -16.25 38
      vertex 11.7426 -16.25 74.1401
    endloop
  endfacet
  facet normal 0 -1 2.22045e-16
    outer loop
      vertex -3.97208 -16.25 75.7918
      vertex -38 -16.25 38
      vertex 3.97208 -16.25 75.7918
    endloop
  endfacet
  facet normal 0 -1 2.22045e-16
    outer loop
      vertex -11.7426 -16.25 74.1401
      vertex -38 -16.25 38
      vertex -3.97208 -16.25 75.7918
    endloop
  endfacet
  facet normal 0 -1 2.22045e-16
    outer loop
      vertex -19 -16.25 70.909
      vertex -38 -16.25 38
      vertex -11.7426 -16.25 74.1401
    endloop
  endfacet
  facet normal 0 -1 2.22045e-16
    outer loop
      vertex -25.427 -16.25 66.2395
      vertex -38 -16.25 38
      vertex -19 -16.25 70.909
    endloop
  endfacet
  facet normal 0 -1 2.22045e-16
    outer loop
      vertex -30.7426 -16.25 60.3358
      vertex -38 -16.25 38
      vertex -25.427 -16.25 66.2395
    endloop
  endfacet
  facet normal 0 -1 2.22045e-16
    outer loop
      vertex -34.7147 -16.25 53.456
      vertex -38 -16.25 38
      vertex -30.7426 -16.25 60.3358
    endloop
  endfacet
  facet normal 0 -1 2.22045e-16
    outer loop
      vertex -37.1696 -16.25 45.9006
      vertex -38 -16.25 38
      vertex -34.7147 -16.25 53.456
    endloop
  endfacet
endsolid OpenSCAD_Model
