# Blender v2.63 (sub 0) OBJ File: ''
# www.blender.org
mtllib roue.mtl
o Roue
v -37.169601 16.250000 45.900600
v -34.714699 16.250000 53.456001
v -38.000000 16.250000 38.000000
v -30.742599 16.250000 60.335800
v -25.427000 16.250000 66.239502
v -19.000000 16.250000 70.908997
v -11.742600 16.250000 74.140099
v -3.972080 16.250000 75.791801
v 3.972080 16.250000 75.791801
v 11.742600 16.250000 74.140099
v 19.000000 16.250000 70.908997
v 25.427000 16.250000 66.239502
v 30.742599 16.250000 60.335800
v 34.714699 16.250000 53.456001
v 37.169601 16.250000 45.900600
v 38.000000 16.250000 38.000000
v 37.169601 16.250000 30.099400
v 34.714699 16.250000 22.544001
v 30.742599 16.250000 15.664200
v 25.427000 16.250000 9.760500
v 19.000000 16.250000 5.091030
v 11.742600 16.250000 1.859850
v 3.972080 16.250000 0.208168
v -3.972080 16.250000 0.208168
v -11.742600 16.250000 1.859850
v -19.000000 16.250000 5.091030
v -25.427000 16.250000 9.760500
v -30.742599 16.250000 15.664200
v -34.714699 16.250000 22.544001
v -37.169601 16.250000 30.099400
v 37.169601 -16.250000 45.900600
v 38.000000 -16.250000 38.000000
v 34.714699 -16.250000 53.456001
v -38.000000 -16.250000 38.000000
v -37.169601 -16.250000 45.900600
v -37.169601 -16.250000 30.099400
v -34.714699 -16.250000 22.544001
v -30.742599 -16.250000 15.664200
v -25.427000 -16.250000 9.760500
v -19.000000 -16.250000 5.091040
v -11.742600 -16.250000 1.859850
v -3.972080 -16.250000 0.208168
v 3.972080 -16.250000 0.208168
v 11.742600 -16.250000 1.859850
v 19.000000 -16.250000 5.091040
v 25.427000 -16.250000 9.760500
v 30.742599 -16.250000 15.664200
v 34.714699 -16.250000 22.544001
v 37.169601 -16.250000 30.099400
v 30.742599 -16.250000 60.335800
v 25.427000 -16.250000 66.239502
v 19.000000 -16.250000 70.908997
v 11.742600 -16.250000 74.140099
v 3.972080 -16.250000 75.791801
v -3.972080 -16.250000 75.791801
v -11.742600 -16.250000 74.140099
v -19.000000 -16.250000 70.908997
v -25.427000 -16.250000 66.239502
v -30.742599 -16.250000 60.335800
v -34.714699 -16.250000 53.456001
vn 0.000000 1.000000 -0.000000
vn 0.994522 -0.000000 0.104530
vn 0.951056 -0.000000 0.309017
vn -0.994522 0.000000 0.104530
vn -0.994522 0.000000 -0.104530
vn -0.951056 0.000000 -0.309018
vn -0.866023 0.000000 -0.500004
vn -0.743152 0.000000 -0.669123
vn -0.587784 -0.000000 -0.809018
vn -0.587783 0.000000 -0.809019
vn -0.406734 0.000000 -0.913547
vn -0.406735 -0.000000 -0.913546
vn -0.207913 0.000000 -0.978148
vn 0.000000 0.000000 -1.000000
vn 0.207913 0.000000 -0.978148
vn 0.406734 -0.000000 -0.913547
vn 0.406735 0.000000 -0.913546
vn 0.587784 0.000000 -0.809018
vn 0.587783 -0.000000 -0.809019
vn 0.743152 0.000000 -0.669123
vn 0.866023 0.000000 -0.500004
vn 0.951056 0.000000 -0.309018
vn 0.994522 0.000000 -0.104530
vn 0.866023 -0.000000 0.500004
vn 0.743152 -0.000000 0.669122
vn 0.587786 -0.000000 0.809017
vn 0.406726 -0.000000 0.913550
vn 0.207915 -0.000000 0.978147
vn 0.000000 -0.000000 1.000000
vn -0.207915 0.000000 0.978147
vn -0.406726 0.000000 0.913550
vn -0.587786 0.000000 0.809017
vn -0.743152 0.000000 0.669122
vn -0.866023 0.000000 0.500004
vn -0.951056 0.000000 0.309017
vn 0.000000 -1.000000 0.000000
usemtl Material.001
s off
f 1//1 2//1 3//1
f 3//1 2//1 4//1
f 3//1 4//1 5//1
f 3//1 5//1 6//1
f 3//1 6//1 7//1
f 3//1 7//1 8//1
f 3//1 8//1 9//1
f 3//1 9//1 10//1
f 3//1 10//1 11//1
f 3//1 11//1 12//1
f 3//1 12//1 13//1
f 3//1 13//1 14//1
f 3//1 14//1 15//1
f 3//1 15//1 16//1
f 3//1 16//1 17//1
f 3//1 17//1 18//1
f 3//1 18//1 19//1
f 3//1 19//1 20//1
f 3//1 20//1 21//1
f 3//1 21//1 22//1
f 3//1 22//1 23//1
f 3//1 23//1 24//1
f 3//1 24//1 25//1
f 3//1 25//1 26//1
f 3//1 26//1 27//1
f 3//1 27//1 28//1
f 3//1 28//1 29//1
f 3//1 29//1 30//1
f 15//2 31//2 32//2
f 16//2 15//2 32//2
f 14//3 33//3 31//3
f 15//3 14//3 31//3
f 34//4 35//4 3//4
f 35//4 1//4 3//4
f 30//5 36//5 3//5
f 3//5 36//5 34//5
f 29//6 37//6 30//6
f 30//6 37//6 36//6
f 28//7 38//7 29//7
f 29//7 38//7 37//7
f 27//8 39//8 28//8
f 28//8 39//8 38//8
f 26//9 40//9 27//9
f 27//10 40//10 39//10
f 25//11 41//11 26//11
f 26//12 41//12 40//12
f 24//13 42//13 25//13
f 25//13 42//13 41//13
f 23//14 43//14 24//14
f 24//14 43//14 42//14
f 22//15 44//15 23//15
f 23//15 44//15 43//15
f 21//16 45//16 22//16
f 22//17 45//17 44//17
f 20//18 46//18 21//18
f 21//19 46//19 45//19
f 20//20 19//20 47//20
f 46//20 20//20 47//20
f 19//21 18//21 48//21
f 47//21 19//21 48//21
f 18//22 17//22 49//22
f 48//22 18//22 49//22
f 17//23 16//23 32//23
f 49//23 17//23 32//23
f 13//24 50//24 33//24
f 14//24 13//24 33//24
f 12//25 51//25 50//25
f 13//25 12//25 50//25
f 11//26 52//26 51//26
f 12//26 11//26 51//26
f 10//27 53//27 52//27
f 11//27 10//27 52//27
f 9//28 54//28 53//28
f 10//28 9//28 53//28
f 8//29 55//29 54//29
f 9//29 8//29 54//29
f 7//30 56//30 55//30
f 8//30 7//30 55//30
f 6//31 57//31 56//31
f 7//31 6//31 56//31
f 5//32 58//32 57//32
f 6//32 5//32 57//32
f 59//33 58//33 4//33
f 4//33 58//33 5//33
f 60//34 59//34 2//34
f 2//34 59//34 4//34
f 60//35 1//35 35//35
f 1//35 60//35 2//35
f 34//36 36//36 37//36
f 39//36 34//36 38//36
f 38//36 34//36 37//36
f 40//36 34//36 39//36
f 41//36 34//36 40//36
f 42//36 34//36 41//36
f 43//36 34//36 42//36
f 44//36 34//36 43//36
f 45//36 34//36 44//36
f 46//36 34//36 45//36
f 47//36 34//36 46//36
f 48//36 34//36 47//36
f 49//36 34//36 48//36
f 32//36 34//36 49//36
f 31//36 34//36 32//36
f 33//36 34//36 31//36
f 50//36 34//36 33//36
f 51//36 34//36 50//36
f 52//36 34//36 51//36
f 53//36 34//36 52//36
f 54//36 34//36 53//36
f 55//36 34//36 54//36
f 56//36 34//36 55//36
f 57//36 34//36 56//36
f 58//36 34//36 57//36
f 59//36 34//36 58//36
f 60//36 34//36 59//36
f 35//36 34//36 60//36
