solid CATIA STL
  facet normal  0.000000e+000  0.000000e+000  1.000000e+000
    outer loop
      vertex  0.000000e+000  0.000000e+000  2.700000e+002
      vertex  1.600000e+002  0.000000e+000  2.700000e+002
      vertex  8.000000e+001  1.385641e+002  2.700000e+002
    endloop
  endfacet
  facet normal  0.000000e+000  0.000000e+000 -1.000000e+000
    outer loop
      vertex  8.000000e+001  1.385641e+002  0.000000e+000
      vertex  1.600000e+002  0.000000e+000  0.000000e+000
      vertex  0.000000e+000  0.000000e+000  0.000000e+000
    endloop
  endfacet
  facet normal -8.660254e-001  5.000000e-001  0.000000e+000
    outer loop
      vertex  8.000000e+001  1.385641e+002  0.000000e+000
      vertex  0.000000e+000  0.000000e+000  0.000000e+000
      vertex  8.000000e+001  1.385641e+002  2.700000e+002
    endloop
  endfacet
  facet normal -8.660254e-001  5.000000e-001  0.000000e+000
    outer loop
      vertex  8.000000e+001  1.385641e+002  2.700000e+002
      vertex  0.000000e+000  0.000000e+000  0.000000e+000
      vertex  0.000000e+000  0.000000e+000  2.700000e+002
    endloop
  endfacet
  facet normal  8.660254e-001  5.000000e-001  0.000000e+000
    outer loop
      vertex  1.600000e+002  0.000000e+000  0.000000e+000
      vertex  8.000000e+001  1.385641e+002  0.000000e+000
      vertex  1.600000e+002  0.000000e+000  2.700000e+002
    endloop
  endfacet
  facet normal  8.660254e-001  5.000000e-001  0.000000e+000
    outer loop
      vertex  1.600000e+002  0.000000e+000  2.700000e+002
      vertex  8.000000e+001  1.385641e+002  0.000000e+000
      vertex  8.000000e+001  1.385641e+002  2.700000e+002
    endloop
  endfacet
  facet normal  0.000000e+000 -1.000000e+000  0.000000e+000
    outer loop
      vertex  0.000000e+000  0.000000e+000  0.000000e+000
      vertex  1.600000e+002  0.000000e+000  0.000000e+000
      vertex  0.000000e+000  0.000000e+000  2.700000e+002
    endloop
  endfacet
  facet normal  0.000000e+000 -1.000000e+000  0.000000e+000
    outer loop
      vertex  0.000000e+000  0.000000e+000  2.700000e+002
      vertex  1.600000e+002  0.000000e+000  0.000000e+000
      vertex  1.600000e+002  0.000000e+000  2.700000e+002
    endloop
  endfacet
endsolid CATIA STL
