solid OpenSCAD_Model
  facet normal 0 -1 0
    outer loop
      vertex -80 -80 0
      vertex 80 -80 0
      vertex 80 -80 270
    endloop
  endfacet
  facet normal 0 -1 0
    outer loop
      vertex -80 -80 270
      vertex -80 -80 0
      vertex 80 -80 270
    endloop
  endfacet
  facet normal -0.866025 0.5 0
    outer loop
      vertex -80 -80 270
      vertex 0 58.5641 270
      vertex -80 -80 0
    endloop
  endfacet
  facet normal -0.866025 0.5 0
    outer loop
      vertex -80 -80 0
      vertex 0 58.5641 270
      vertex 0 58.5641 0
    endloop
  endfacet
  facet normal 0 0 1
    outer loop
      vertex -80 -80 270
      vertex 80 -80 270
      vertex 0 58.5641 270
    endloop
  endfacet
  facet normal 0 0 -1
    outer loop
      vertex -80 -80 0
      vertex 0 58.5641 0
      vertex 80 -80 0
    endloop
  endfacet
  facet normal 0.866025 0.5 0
    outer loop
      vertex 0 58.5641 0
      vertex 0 58.5641 270
      vertex 80 -80 270
    endloop
  endfacet
  facet normal 0.866025 0.5 0
    outer loop
      vertex 80 -80 0
      vertex 0 58.5641 0
      vertex 80 -80 270
    endloop
  endfacet
endsolid OpenSCAD_Model
